<svg width="246" height="201" viewBox="0 0 246 201" fill="none" xmlns="http://www.w3.org/2000/svg">
<g opacity="0.1" filter="url(#filter0_f_6785_42931)">
<path d="M53.6737 68.01C51.1555 72.3059 47.4521 81.7864 47.4521 82.853L57.229 107.117H83.4485L101.669 122.227H125.666L150.108 134.226H172.328L198.104 111.117V75.5648L172.328 38.6797H91.4477L62.1173 51.1229L53.6737 68.01Z" fill="url(#paint0_linear_6785_42931)"/>
</g>
<g filter="url(#filter1_f_6785_42931)">
<path d="M136.997 174.778C136.997 169.646 143.401 166.228 162.864 166.228C182.327 166.228 198.104 170.389 198.104 175.522C198.104 180.655 186.005 185.373 166.542 185.373C147.079 185.373 136.997 179.911 136.997 174.778Z" fill="url(#paint1_radial_6785_42931)" fill-opacity="0.8"/>
</g>
<path d="M153.554 56.5592C153.554 53.8842 151.379 51.7129 148.698 51.7129C146.018 51.7129 143.843 53.8842 143.843 56.5592C143.843 59.0719 145.762 61.1408 148.217 61.3827V77.7199C148.217 78.5708 147.706 79.7973 147.105 80.4006L138.148 89.339C137.313 88.8126 136.195 88.9122 135.465 89.6407C134.618 90.4859 134.618 91.8546 135.465 92.697C136.312 93.5422 137.684 93.5422 138.528 92.697C139.255 91.9713 139.354 90.8558 138.83 90.0192L147.786 81.0807C148.567 80.301 149.18 78.8241 149.18 77.7199V61.3827C151.635 61.1408 153.554 59.0748 153.554 56.5592Z" fill="url(#paint2_linear_6785_42931)"/>
<path d="M196.847 61.8001C196.847 59.0654 194.625 56.8457 191.882 56.8457C189.139 56.8457 186.918 59.0625 186.918 61.8001C186.918 64.3726 188.886 66.487 191.401 66.7289V69.2274C191.401 70.0783 190.89 71.3048 190.289 71.9081L186.867 75.323C186.265 75.9234 185.033 76.4328 184.181 76.4328H162.382C161.276 76.4328 159.799 77.0446 159.015 77.8244L155.949 80.8835C154.216 79.8875 151.966 80.1237 150.486 81.6006C148.716 83.3678 148.716 86.2306 150.486 87.9978C152.257 89.765 155.125 89.765 156.896 87.9978C158.667 86.2306 158.667 83.3678 156.896 81.6006C156.845 81.5494 156.791 81.5067 156.736 81.4584L159.696 78.5045C160.298 77.904 161.53 77.3947 162.382 77.3947H184.181C185.287 77.3947 186.764 76.7828 187.548 76.0031L190.97 72.5882C191.751 71.8085 192.364 70.3316 192.364 69.2274V66.7289C194.879 66.487 196.847 64.3726 196.847 61.8001Z" fill="url(#paint3_linear_6785_42931)"/>
<path d="M147.557 94.8038C146.71 93.9586 145.339 93.9586 144.495 94.8038C143.768 95.5294 143.668 96.6478 144.193 97.4815L142.456 99.2146C141.854 99.815 140.623 100.324 139.77 100.324H137.118C136.885 98.6426 135.439 97.3478 133.691 97.3478C131.778 97.3478 130.227 98.8958 130.227 100.805C130.227 102.715 131.778 104.263 133.691 104.263C135.442 104.263 136.885 102.968 137.118 101.286H139.77C140.876 101.286 142.353 100.674 143.138 99.8947L144.874 98.1617C145.71 98.6881 146.827 98.5885 147.557 97.86C148.404 97.0149 148.404 95.6461 147.557 94.8038Z" fill="url(#paint4_linear_6785_42931)"/>
<path d="M140.087 56.3942C139.36 55.6685 138.242 55.5689 137.404 56.0925L132.919 51.6163C132.137 50.8366 130.657 50.2248 129.551 50.2248H96.9286C96.076 50.2248 94.8471 49.7154 94.2426 49.115L89.6633 44.5449C90.7411 43.5688 91.3969 42.146 91.3456 40.5837C91.2487 37.7608 88.8763 35.5469 86.0478 35.6437C83.2192 35.7404 81.0008 38.108 81.0978 40.9309C81.1947 43.7538 83.5671 45.9677 86.3956 45.871C87.3081 45.8397 88.1549 45.5693 88.882 45.1282L93.5611 49.798C94.3424 50.5777 95.8223 51.1895 96.9286 51.1895H129.551C130.404 51.1895 131.633 51.6989 132.237 52.2993L136.722 56.7755C136.195 57.6093 136.295 58.7248 137.025 59.4533C137.871 60.2984 139.243 60.2984 140.087 59.4533C140.931 58.6081 140.934 57.2393 140.087 56.397V56.3942Z" fill="url(#paint5_linear_6785_42931)"/>
<path d="M164.968 48.2543C164.968 46.3449 163.417 44.7969 161.504 44.7969C159.591 44.7969 158.04 46.3449 158.04 48.2543C158.04 50.0016 159.337 51.4415 161.022 51.6748V60.1378C161.022 60.9886 160.512 62.2151 159.91 62.8184L157.811 64.9128C156.976 64.3863 155.858 64.4859 155.128 65.2144C154.281 66.0596 154.281 67.4283 155.128 68.2707C155.975 69.113 157.347 69.1158 158.191 68.2707C158.918 67.545 159.018 66.4267 158.493 65.5929L160.592 63.4985C161.373 62.7188 161.986 61.2419 161.986 60.1378V51.6748C163.671 51.4415 164.968 49.9987 164.968 48.2543Z" fill="url(#paint6_linear_6785_42931)"/>
<path d="M186.239 101.135C185.001 99.8998 183.062 99.7973 181.705 100.822L178.671 97.794C177.89 97.0143 176.41 96.4025 175.304 96.4025H165.33C165.11 95.4407 164.249 94.7207 163.22 94.7207C162.025 94.7207 161.053 95.6882 161.053 96.8834C161.053 98.0786 162.022 99.0461 163.22 99.0461C164.249 99.0461 165.11 98.3261 165.33 97.3643H175.304C176.156 97.3643 177.385 97.8737 177.99 98.4741L181.024 101.502C179.997 102.856 180.1 104.791 181.337 106.026C182.692 107.378 184.884 107.378 186.239 106.026C187.593 104.675 187.593 102.486 186.239 101.135Z" fill="url(#paint7_linear_6785_42931)"/>
<path d="M125.279 91.6875C124.25 91.6875 123.389 92.4075 123.169 93.3693H114.356C113.249 93.3693 111.772 93.9811 110.988 94.7608L104.059 101.676C103.278 102.455 102.665 103.932 102.665 105.036V106.872C100.98 107.105 99.6826 108.548 99.6826 110.292C99.6826 112.202 101.234 113.75 103.147 113.75C105.06 113.75 106.611 112.202 106.611 110.292C106.611 108.545 105.314 107.105 103.629 106.872V105.036C103.629 104.186 104.139 102.959 104.741 102.356L111.67 95.4409C112.271 94.8405 113.503 94.3311 114.356 94.3311H123.169C123.389 95.2929 124.25 96.0129 125.279 96.0129C126.474 96.0129 127.446 95.0454 127.446 93.8502C127.446 92.655 126.477 91.6875 125.279 91.6875Z" fill="url(#paint8_linear_6785_42931)"/>
<path d="M113.945 64.0174C112.08 64.0174 110.541 65.4061 110.304 67.2045H98.5363C97.6837 67.2045 96.4548 66.6952 95.8503 66.0947L91.4136 61.6669C90.6323 60.8872 89.1525 60.2754 88.0461 60.2754H62.9826C62.7488 58.5936 61.3031 57.2988 59.5552 57.2988C57.642 57.2988 56.0908 58.8469 56.0908 60.7563C56.0908 62.6657 57.642 64.2138 59.5552 64.2138C61.306 64.2138 62.7488 62.919 62.9826 61.2372H88.0461C88.8987 61.2372 90.1276 61.7466 90.7321 62.347L95.1688 66.7749C95.9501 67.5546 97.43 68.1664 98.5363 68.1664H110.304C110.541 69.9648 112.077 71.3535 113.945 71.3535C115.975 71.3535 117.621 69.7116 117.621 67.6855C117.621 65.6594 115.975 64.0174 113.945 64.0174Z" fill="url(#paint9_linear_6785_42931)"/>
<path d="M128.827 70.0294V67.6988C128.827 66.5947 128.214 65.1207 127.433 64.3381L122.169 59.085C121.388 58.3053 119.908 57.6935 118.802 57.6935H108.149C107.93 56.7317 107.068 56.0117 106.039 56.0117C104.844 56.0117 103.872 56.9792 103.872 58.1744C103.872 59.3696 104.842 60.3371 106.039 60.3371C107.068 60.3371 107.93 59.6172 108.149 58.6553H118.802C119.654 58.6553 120.883 59.1647 121.488 59.7651L126.751 65.0182C127.353 65.6186 127.863 66.848 127.863 67.6988V69.54C127.253 69.3038 126.595 69.1672 125.902 69.1672C122.911 69.1672 120.481 71.5888 120.481 74.5768C120.481 77.5647 122.908 79.9863 125.902 79.9863C128.896 79.9863 131.322 77.5647 131.322 74.5768C131.322 72.6673 130.327 70.9912 128.83 70.0294H128.827Z" fill="url(#paint10_linear_6785_42931)"/>
<path d="M136.687 30.7105C134.726 28.7527 131.546 28.7527 129.585 30.7105C127.623 32.6684 127.623 35.8413 129.585 37.7991C129.625 37.8389 129.664 37.8702 129.704 37.9072L127.098 40.5081C126.497 41.1086 125.265 41.6179 124.412 41.6179H107.541C106.688 41.6179 105.459 41.1086 104.855 40.5081L102.596 38.2544C103.124 37.4206 103.024 36.3051 102.294 35.5766C101.447 34.7315 100.076 34.7315 99.2318 35.5766C98.385 36.4218 98.385 37.7905 99.2318 38.6328C99.9589 39.3585 101.077 39.4581 101.915 38.9345L104.173 41.1882C104.955 41.9679 106.434 42.5798 107.541 42.5798H124.412C125.519 42.5798 126.996 41.9679 127.78 41.1882L130.471 38.5019C132.41 39.7142 134.997 39.4837 136.685 37.7991C138.646 35.8413 138.646 32.6684 136.685 30.7105H136.687Z" fill="url(#paint11_linear_6785_42931)"/>
<path d="M100.217 77.8706C99.4895 77.145 98.3718 77.0454 97.5335 77.569L91.4943 71.5419C90.713 70.7622 89.2332 70.1504 88.1268 70.1504H72.2704C71.4834 68.3975 69.7212 67.1738 67.6711 67.1738C64.8882 67.1738 62.6299 69.4276 62.6299 72.2049C62.6299 74.9823 64.8882 77.2361 67.6711 77.2361C70.454 77.2361 72.7123 74.9823 72.7123 72.2049C72.7123 71.8293 72.6667 71.4651 72.5897 71.1122H88.124C88.9765 71.1122 90.2055 71.6216 90.81 72.222L96.8492 78.2491C96.3217 79.0829 96.4215 80.1984 97.1514 80.9269C97.9983 81.772 99.3698 81.772 100.214 80.9269C101.061 80.0817 101.061 78.713 100.214 77.8706H100.217Z" fill="url(#paint12_linear_6785_42931)"/>
<path d="M141.295 68.0827C141.295 66.8903 140.326 65.9199 139.128 65.9199C137.931 65.9199 136.961 66.8875 136.961 68.0827C136.961 69.11 137.683 69.9694 138.647 70.1885V74.0644C138.647 74.9153 138.136 76.1418 137.535 76.7451L131.592 82.6755C130.991 83.276 129.762 83.7854 128.909 83.7854L103.757 83.7711C102.651 83.7711 101.174 84.383 100.393 85.1627L93.7831 91.7591C93.0018 92.5388 92.3888 94.0157 92.3888 95.1199V101.554C90.7036 101.787 89.4062 103.23 89.4062 104.975C89.4062 106.884 90.9574 108.432 92.8707 108.432C94.7839 108.432 96.3351 106.884 96.3351 104.975C96.3351 103.227 95.0377 101.787 93.3525 101.554V95.1199C93.3525 94.269 93.8629 93.0425 94.4646 92.4392L101.074 85.8428C101.676 85.2424 102.905 84.733 103.757 84.733L128.909 84.7472C130.015 84.7472 131.492 84.1354 132.274 83.3557L138.216 77.4252C138.997 76.6455 139.61 75.1685 139.61 74.0644V70.1885C140.574 69.9694 141.295 69.11 141.295 68.0827Z" fill="url(#paint13_linear_6785_42931)"/>
<path d="M86.0218 77.547C84.6674 76.1953 82.4746 76.1953 81.1202 77.547C79.8828 78.782 79.7801 80.717 80.8066 82.0716L78.8876 83.9867C78.286 84.5871 77.0542 85.0965 76.2016 85.0965H58.3806C58.161 84.1347 57.2999 83.4147 56.2706 83.4147C55.0758 83.4147 54.1035 84.3822 54.1035 85.5774C54.1035 86.7726 55.073 87.7401 56.2706 87.7401C57.2999 87.7401 58.161 87.0201 58.3806 86.0583H76.2016C77.308 86.0583 78.785 85.4465 79.5691 84.6668L81.4881 82.7517C82.8453 83.7761 84.7843 83.6737 86.0218 82.4386C87.3762 81.087 87.3762 78.8987 86.0218 77.547Z" fill="url(#paint14_linear_6785_42931)"/>
<path d="M133.066 110.09C131.829 108.855 129.89 108.753 128.533 109.777L125.69 106.94C124.909 106.161 123.429 105.549 122.322 105.549H114.923C113.68 105.549 112.668 106.559 112.668 107.8V109.439C111.704 109.658 110.982 110.517 110.982 111.545C110.982 112.737 111.952 113.707 113.149 113.707C114.347 113.707 115.317 112.74 115.317 111.545C115.317 110.517 114.595 109.658 113.631 109.439V107.8C113.631 107.088 114.21 106.511 114.923 106.511H122.322C123.175 106.511 124.404 107.02 125.008 107.62L127.851 110.458C126.825 111.812 126.927 113.747 128.165 114.982C129.519 116.334 131.712 116.334 133.066 114.982C134.421 113.63 134.421 111.442 133.066 110.09Z" fill="url(#paint15_linear_6785_42931)"/>
<path d="M185.806 52.5234C184.776 52.5234 183.915 53.2434 183.696 54.2052H177.026C175.783 54.2052 174.771 55.2154 174.771 56.4561V60.9665C174.771 61.8173 174.26 63.0438 173.659 63.6471L172.587 64.7171C171.229 63.6926 169.29 63.7951 168.053 65.0301C166.699 66.3818 166.699 68.5701 168.053 69.9218C169.407 71.2734 171.6 71.2734 172.954 69.9218C174.192 68.6867 174.295 66.7517 173.268 65.3972L174.34 64.3272C175.121 63.5475 175.735 62.0706 175.735 60.9665V56.4561C175.735 55.7447 176.313 55.167 177.026 55.167H183.696C183.915 56.1289 184.776 56.8488 185.806 56.8488C187 56.8488 187.973 55.8813 187.973 54.6861C187.973 53.491 187.003 52.5234 185.806 52.5234Z" fill="url(#paint16_linear_6785_42931)"/>
<path d="M196.818 106.869V103.224C196.818 102.12 196.205 100.646 195.424 99.8633L183.796 88.2587C183.014 87.479 181.535 86.8672 180.428 86.8672H164.637C163.531 86.8672 162.054 87.479 161.27 88.2587L152.451 97.0603C151.669 97.84 151.056 99.3169 151.056 100.421V104.155C150.092 104.374 149.371 105.233 149.371 106.26C149.371 107.453 150.341 108.423 151.538 108.423C152.736 108.423 153.705 107.455 153.705 106.26C153.705 105.233 152.984 104.374 152.02 104.155V100.421C152.02 99.5702 152.53 98.3437 153.132 97.7404L161.951 88.9388C162.553 88.3384 163.785 87.829 164.637 87.829H180.428C181.281 87.829 182.51 88.3384 183.114 88.9388L194.742 100.543C195.344 101.144 195.854 102.373 195.854 103.224V106.869C194.169 107.103 192.872 108.545 192.872 110.29C192.872 112.199 194.423 113.747 196.336 113.747C198.249 113.747 199.8 112.199 199.8 110.29C199.8 108.543 198.503 107.103 196.818 106.869Z" fill="url(#paint17_linear_6785_42931)"/>
<path d="M175.812 112.502V111.691C175.812 110.45 174.799 109.44 173.556 109.44H167.523C166.67 109.44 165.441 108.93 164.837 108.33L164.765 108.259C165.293 107.425 165.193 106.31 164.463 105.581C163.616 104.736 162.245 104.736 161.401 105.581C160.554 106.426 160.554 107.795 161.401 108.637C162.128 109.363 163.246 109.463 164.084 108.939L164.155 109.01C164.936 109.79 166.416 110.402 167.523 110.402H173.556C174.269 110.402 174.848 110.979 174.848 111.691V112.502C173.163 112.735 171.865 114.178 171.865 115.922C171.865 117.832 173.416 119.38 175.33 119.38C177.243 119.38 178.794 117.832 178.794 115.922C178.794 114.175 177.497 112.735 175.812 112.502Z" fill="url(#paint18_linear_6785_42931)"/>
<path d="M156.536 125.099C155.299 123.864 153.36 123.761 152.003 124.786L145.755 118.551C147.631 116.516 147.589 113.349 145.61 111.377C143.58 109.351 140.289 109.351 138.262 111.377C136.232 113.403 136.232 116.687 138.262 118.71C140.11 120.554 143.004 120.714 145.04 119.197L151.321 125.466C150.295 126.82 150.397 128.755 151.635 129.99C152.989 131.342 155.182 131.342 156.536 129.99C157.891 128.639 157.891 126.45 156.536 125.099Z" fill="url(#paint19_linear_6785_42931)"/>
<path d="M169.804 157.245C166.915 157.245 164.546 159.459 164.3 162.279H162.535C161.823 162.279 161.244 161.702 161.244 160.99V148.62C161.244 147.516 160.631 146.042 159.849 145.259L146.471 131.907C145.69 131.127 144.21 130.515 143.103 130.515H134.809C133.956 130.515 132.727 130.006 132.123 129.406L129.933 127.22C129.331 126.62 128.821 125.39 128.821 124.539V123.358C129.785 123.139 130.506 122.28 130.506 121.253C130.506 120.06 129.536 119.09 128.339 119.09C127.141 119.09 126.172 120.057 126.172 121.253C126.172 122.28 126.893 123.139 127.857 123.358V124.539C127.857 125.644 128.47 127.118 129.251 127.9L131.441 130.086C132.222 130.865 133.702 131.477 134.809 131.477H143.103C143.956 131.477 145.185 131.987 145.789 132.587L159.168 145.939C159.77 146.54 160.28 147.769 160.28 148.62V160.99C160.28 162.231 161.292 163.241 162.535 163.241H164.3C164.546 166.061 166.912 168.275 169.804 168.275C172.854 168.275 175.329 165.805 175.329 162.76C175.329 159.715 172.854 157.245 169.804 157.245Z" fill="url(#paint20_linear_6785_42931)"/>
<path d="M168.849 147.134V139.393C169.812 139.174 170.534 138.315 170.534 137.288C170.534 136.095 169.564 135.125 168.367 135.125C167.169 135.125 166.2 136.093 166.2 137.288C166.2 138.315 166.921 139.174 167.885 139.393V147.134C166.2 147.367 164.902 148.81 164.902 150.554C164.902 152.464 166.453 154.012 168.367 154.012C170.28 154.012 171.831 152.464 171.831 150.554C171.831 148.807 170.534 147.367 168.849 147.134Z" fill="url(#paint21_linear_6785_42931)"/>
<path d="M187.769 112.083C187.769 110.89 186.8 109.92 185.602 109.92C184.405 109.92 183.435 110.887 183.435 112.083C183.435 113.11 184.157 113.969 185.12 114.188V120.913C185.12 121.764 184.61 122.99 184.008 123.593L180.746 126.849C180.145 127.449 178.913 127.959 178.06 127.959H163.276C162.563 127.959 161.984 127.381 161.984 126.669V123.218C163.67 122.984 164.967 121.542 164.967 119.797C164.967 117.888 163.416 116.34 161.502 116.34C159.589 116.34 158.038 117.888 158.038 119.797C158.038 121.544 159.335 122.984 161.021 123.218V126.669C161.021 127.91 162.033 128.92 163.276 128.92H178.06C179.167 128.92 180.644 128.309 181.428 127.529L184.69 124.273C185.471 123.494 186.084 122.017 186.084 120.913V114.188C187.048 113.969 187.769 113.11 187.769 112.083Z" fill="url(#paint22_linear_6785_42931)"/>
<path d="M76.9089 48.078C75.8795 48.078 75.0184 48.7979 74.7988 49.7598H67.3625C67.1287 48.078 65.683 46.7832 63.9351 46.7832C62.0218 46.7832 60.4707 48.3312 60.4707 50.2407C60.4707 52.1501 62.0218 53.6981 63.9351 53.6981C65.6859 53.6981 67.1287 52.4034 67.3625 50.7216H74.7988C75.0184 51.6834 75.8795 52.4034 76.9089 52.4034C78.1036 52.4034 79.0759 51.4358 79.0759 50.2407C79.0759 49.0455 78.1064 48.078 76.9089 48.078Z" fill="url(#paint23_linear_6785_42931)"/>
<path d="M179.623 42.4982C178.386 41.2632 176.447 41.1608 175.09 42.1852L172.629 39.7294C171.848 38.9497 170.368 38.3379 169.262 38.3379H148.424C147.181 38.3379 146.168 39.3481 146.168 40.5888V41.4624C146.168 42.3133 145.658 43.5397 145.056 44.143L141.669 47.5237C140.833 46.9972 139.716 47.0968 138.986 47.8253C138.139 48.6705 138.139 50.0392 138.986 50.8815C139.833 51.7267 141.204 51.7267 142.048 50.8815C142.775 50.1559 142.875 49.0404 142.35 48.2038L145.738 44.8231C146.519 44.0434 147.132 42.5665 147.132 41.4624V40.5888C147.132 39.8774 147.711 39.2997 148.424 39.2997H169.262C170.114 39.2997 171.343 39.8091 171.948 40.4095L174.408 42.8653C173.382 44.2199 173.484 46.1549 174.722 47.3899C176.076 48.7416 178.269 48.7416 179.623 47.3899C180.978 46.0382 180.978 43.8499 179.623 42.4982Z" fill="url(#paint24_linear_6785_42931)"/>
<path d="M79.4636 93.5016C78.1006 92.1613 75.9079 92.1756 74.5621 93.5358C74.5279 93.5699 74.4965 93.6098 74.4651 93.6439C73.6981 93.2114 72.76 92.924 72.0187 92.924H64.7448C64.5253 91.9621 63.6642 91.2422 62.6348 91.2422C61.4401 91.2422 60.4678 92.2097 60.4678 93.4049C60.4678 94.6001 61.4372 95.5676 62.6348 95.5676C63.6642 95.5676 64.5253 94.8476 64.7448 93.8858H72.0187C72.5718 93.8858 73.3103 94.1135 73.9205 94.4407C73.2818 95.7383 73.5071 97.3518 74.5963 98.4246C75.9593 99.7649 78.152 99.7507 79.4978 98.3905C80.8408 97.0302 80.8266 94.8419 79.4636 93.4988V93.5016Z" fill="url(#paint25_linear_6785_42931)"/>
<path d="M52.5637 66.4366C51.7169 65.5914 50.3453 65.5914 49.5013 66.4366C48.7742 67.1622 48.6744 68.2777 49.1991 69.1144L46.496 71.812C45.7147 72.5918 45.1017 74.0686 45.1017 75.1728V85.8127C43.4165 86.046 42.1191 87.4887 42.1191 89.2331C42.1191 91.1426 43.6703 92.6906 45.5836 92.6906C47.4968 92.6906 49.048 91.1426 49.048 89.2331C49.048 87.4859 47.7506 86.046 46.0654 85.8127V75.1728C46.0654 74.3219 46.5758 73.0954 47.1775 72.4922L49.8806 69.7945C50.716 70.3209 51.8338 70.2213 52.5637 69.4928C53.4106 68.6477 53.4106 67.2789 52.5637 66.4366Z" fill="url(#paint26_linear_6785_42931)"/>
<path d="M84.7891 99.9745C83.9422 99.1294 82.5707 99.1294 81.7267 99.9745C80.9996 100.7 80.8998 101.816 81.4245 102.652L77.3442 106.724C76.7425 107.325 75.5107 107.834 74.6582 107.834H61.7472C60.8946 107.834 59.6657 107.325 59.0612 106.724L54.7271 102.399C55.457 101.727 55.8933 100.749 55.8391 99.6786C55.7422 97.772 54.1112 96.3036 52.2008 96.4032C50.2904 96.5 48.8191 98.1277 48.9189 100.034C49.0158 101.941 50.6468 103.409 52.5572 103.31C53.0476 103.284 53.5067 103.156 53.9202 102.951L58.3797 107.402C59.161 108.181 60.6408 108.793 61.7472 108.793H74.6582C75.7645 108.793 77.2415 108.181 78.0256 107.402L82.1059 103.33C82.9414 103.856 84.0591 103.756 84.7891 103.028C85.6359 102.183 85.6359 100.814 84.7891 99.9717V99.9745Z" fill="url(#paint27_linear_6785_42931)"/>
<path d="M117.139 120.322C115.389 120.322 113.946 121.617 113.712 123.298H103.071C102.218 123.298 100.989 122.789 100.385 122.189L95.8425 117.655C96.37 116.822 96.2702 115.706 95.5403 114.978C94.6934 114.132 93.3219 114.132 92.4779 114.978C91.6311 115.823 91.6311 117.192 92.4779 118.034C93.205 118.759 94.3228 118.859 95.1611 118.335L99.7033 122.869C100.485 123.648 101.964 124.26 103.071 124.26H113.712C113.946 125.942 115.392 127.237 117.139 127.237C119.053 127.237 120.604 125.689 120.604 123.779C120.604 121.87 119.053 120.322 117.139 120.322Z" fill="url(#paint28_linear_6785_42931)"/>
<path d="M202.602 75.5704C201.247 74.2187 199.054 74.2187 197.7 75.5704C196.463 76.8054 196.36 78.7405 197.386 80.095L192.542 84.9298C191.706 84.4033 190.589 84.5029 189.859 85.2314C189.012 86.0766 189.012 87.4453 189.859 88.2876C190.706 89.1328 192.077 89.1328 192.921 88.2876C193.648 87.562 193.748 86.4436 193.223 85.6099L198.068 80.7751C199.425 81.7995 201.364 81.6971 202.602 80.4621C203.956 79.1104 203.956 76.9221 202.602 75.5704Z" fill="url(#paint29_linear_6785_42931)"/>
<defs>
<filter id="filter0_f_6785_42931" x="34.1202" y="25.3477" width="177.315" height="122.211" filterUnits="userSpaceOnUse" color-interpolation-filters="sRGB">
<feFlood flood-opacity="0" result="BackgroundImageFix"/>
<feBlend mode="normal" in="SourceGraphic" in2="BackgroundImageFix" result="shape"/>
<feGaussianBlur stdDeviation="6.66599" result="effect1_foregroundBlur_6785_42931"/>
</filter>
<filter id="filter1_f_6785_42931" x="128.304" y="157.535" width="78.4939" height="36.531" filterUnits="userSpaceOnUse" color-interpolation-filters="sRGB">
<feFlood flood-opacity="0" result="BackgroundImageFix"/>
<feBlend mode="normal" in="SourceGraphic" in2="BackgroundImageFix" result="shape"/>
<feGaussianBlur stdDeviation="4.34662" result="effect1_foregroundBlur_6785_42931"/>
</filter>
<linearGradient id="paint0_linear_6785_42931" x1="47.4521" y1="82.2308" x2="198.548" y2="82.2308" gradientUnits="userSpaceOnUse">
<stop stop-color="#C6D8F1"/>
<stop offset="1" stop-color="#F3FF00"/>
</linearGradient>
<radialGradient id="paint1_radial_6785_42931" cx="0" cy="0" r="1" gradientUnits="userSpaceOnUse" gradientTransform="translate(162.864 182.453) rotate(-91.6714) scale(12.2201 46.3308)">
<stop stop-color="#080B27"/>
<stop offset="1" stop-color="#1C2157"/>
</radialGradient>
<linearGradient id="paint2_linear_6785_42931" x1="139.888" y1="89.7049" x2="148.311" y2="59.0761" gradientUnits="userSpaceOnUse">
<stop stop-color="#CEDDF2"/>
<stop offset="0.13" stop-color="#9FABC9"/>
<stop offset="0.52" stop-color="#1C2157"/>
<stop offset="1" stop-color="#F3FF00"/>
</linearGradient>
<linearGradient id="paint3_linear_6785_42931" x1="154.997" y1="82.1592" x2="190.534" y2="66.5913" gradientUnits="userSpaceOnUse">
<stop stop-color="#CEDDF2"/>
<stop offset="0.13" stop-color="#9FABC9"/>
<stop offset="0.52" stop-color="#1C2157"/>
<stop offset="1" stop-color="#F3FF00"/>
</linearGradient>
<linearGradient id="paint4_linear_6785_42931" x1="136.332" y1="99.2174" x2="144.769" y2="94.134" gradientUnits="userSpaceOnUse">
<stop stop-color="#CEDDF2"/>
<stop offset="0.13" stop-color="#9FABC9"/>
<stop offset="0.52" stop-color="#1C2157"/>
<stop offset="1" stop-color="#F3FF00"/>
</linearGradient>
<linearGradient id="paint5_linear_6785_42931" x1="139.887" y1="47.8601" x2="90.559" y2="47.8601" gradientUnits="userSpaceOnUse">
<stop offset="0.1" stop-color="#F3FF00"/>
<stop offset="0.61494" stop-color="#1C2157"/>
<stop offset="0.87" stop-color="#9FABC9"/>
<stop offset="1" stop-color="#CEDDF2"/>
</linearGradient>
<linearGradient id="paint6_linear_6785_42931" x1="158.553" y1="65.7377" x2="162.099" y2="51.09" gradientUnits="userSpaceOnUse">
<stop stop-color="#CEDDF2"/>
<stop offset="0.13" stop-color="#9FABC9"/>
<stop offset="0.52" stop-color="#1C2157"/>
<stop offset="1" stop-color="#F3FF00"/>
</linearGradient>
<linearGradient id="paint7_linear_6785_42931" x1="164.329" y1="99.9128" x2="179.437" y2="102.583" gradientUnits="userSpaceOnUse">
<stop stop-color="#CEDDF2"/>
<stop offset="0.13" stop-color="#9FABC9"/>
<stop offset="0.52" stop-color="#1C2157"/>
<stop offset="1" stop-color="#F3FF00"/>
</linearGradient>
<linearGradient id="paint8_linear_6785_42931" x1="99.6826" y1="102.717" x2="127.444" y2="102.717" gradientUnits="userSpaceOnUse">
<stop stop-color="#CEDDF2"/>
<stop offset="0.13" stop-color="#9FABC9"/>
<stop offset="0.52" stop-color="#1C2157"/>
<stop offset="1" stop-color="#F3FF00"/>
</linearGradient>
<linearGradient id="paint9_linear_6785_42931" x1="63.0059" y1="67.5138" x2="110.112" y2="67.5138" gradientUnits="userSpaceOnUse">
<stop stop-color="#CEDDF2"/>
<stop offset="0.13" stop-color="#9FABC9"/>
<stop offset="0.52" stop-color="#1C2157"/>
<stop offset="1" stop-color="#F3FF00"/>
</linearGradient>
<linearGradient id="paint10_linear_6785_42931" x1="109.224" y1="57.3055" x2="122.988" y2="67.0867" gradientUnits="userSpaceOnUse">
<stop stop-color="#CEDDF2"/>
<stop offset="0.13" stop-color="#9FABC9"/>
<stop offset="0.52" stop-color="#1C2157"/>
<stop offset="1" stop-color="#F3FF00"/>
</linearGradient>
<linearGradient id="paint11_linear_6785_42931" x1="104.335" y1="35.9096" x2="132.776" y2="35.9096" gradientUnits="userSpaceOnUse">
<stop stop-color="#CEDDF2"/>
<stop offset="0.13" stop-color="#9FABC9"/>
<stop offset="0.52" stop-color="#1C2157"/>
<stop offset="1" stop-color="#F3FF00"/>
</linearGradient>
<linearGradient id="paint12_linear_6785_42931" x1="62.5623" y1="71.9524" x2="96.781" y2="72.8421" gradientUnits="userSpaceOnUse">
<stop stop-color="#CEDDF2"/>
<stop offset="0.13" stop-color="#9FABC9"/>
<stop offset="0.52" stop-color="#1C2157"/>
<stop offset="1" stop-color="#F3FF00"/>
</linearGradient>
<linearGradient id="paint13_linear_6785_42931" x1="89.4005" y1="87.1746" x2="141.295" y2="87.1746" gradientUnits="userSpaceOnUse">
<stop stop-color="#CEDDF2"/>
<stop offset="0.13" stop-color="#9FABC9"/>
<stop offset="0.52" stop-color="#1C2157"/>
<stop offset="1" stop-color="#F3FF00"/>
</linearGradient>
<linearGradient id="paint14_linear_6785_42931" x1="54.1035" y1="82.1398" x2="87.0368" y2="82.1398" gradientUnits="userSpaceOnUse">
<stop stop-color="#CEDDF2"/>
<stop offset="0.13" stop-color="#9FABC9"/>
<stop offset="0.52" stop-color="#1C2157"/>
<stop offset="1" stop-color="#F3FF00"/>
</linearGradient>
<linearGradient id="paint15_linear_6785_42931" x1="114.112" y1="110.771" x2="127.888" y2="110.771" gradientUnits="userSpaceOnUse">
<stop stop-color="#CEDDF2"/>
<stop offset="0.13" stop-color="#9FABC9"/>
<stop offset="0.52" stop-color="#1C2157"/>
<stop offset="1" stop-color="#F3FF00"/>
</linearGradient>
<linearGradient id="paint16_linear_6785_42931" x1="167.038" y1="61.7291" x2="187.973" y2="61.7291" gradientUnits="userSpaceOnUse">
<stop stop-color="#CEDDF2"/>
<stop offset="0.13" stop-color="#9FABC9"/>
<stop offset="0.52" stop-color="#1C2157"/>
<stop offset="1" stop-color="#F3FF00"/>
</linearGradient>
<linearGradient id="paint17_linear_6785_42931" x1="149.374" y1="100.31" x2="199.803" y2="100.31" gradientUnits="userSpaceOnUse">
<stop stop-color="#CEDDF2"/>
<stop offset="0.13" stop-color="#9FABC9"/>
<stop offset="0.52" stop-color="#1C2157"/>
<stop offset="1" stop-color="#F3FF00"/>
</linearGradient>
<linearGradient id="paint18_linear_6785_42931" x1="162.552" y1="109.234" x2="173.209" y2="115.904" gradientUnits="userSpaceOnUse">
<stop stop-color="#CEDDF2"/>
<stop offset="0.13" stop-color="#9FABC9"/>
<stop offset="0.52" stop-color="#1C2157"/>
<stop offset="1" stop-color="#F3FF00"/>
</linearGradient>
<linearGradient id="paint19_linear_6785_42931" x1="142.554" y1="112.784" x2="153.649" y2="123.45" gradientUnits="userSpaceOnUse">
<stop stop-color="#CEDDF2"/>
<stop offset="0.13" stop-color="#9FABC9"/>
<stop offset="0.52" stop-color="#1C2157"/>
<stop offset="1" stop-color="#F3FF00"/>
</linearGradient>
<linearGradient id="paint20_linear_6785_42931" x1="130.11" y1="122.546" x2="163.153" y2="160.089" gradientUnits="userSpaceOnUse">
<stop stop-color="#CEDDF2"/>
<stop offset="0.13" stop-color="#9FABC9"/>
<stop offset="0.688485" stop-color="#1C2157"/>
<stop offset="1" stop-color="#F3FF00"/>
</linearGradient>
<linearGradient id="paint21_linear_6785_42931" x1="170.107" y1="138.525" x2="170.107" y2="150.064" gradientUnits="userSpaceOnUse">
<stop stop-color="#CEDDF2"/>
<stop offset="0.13" stop-color="#9FABC9"/>
<stop offset="1" stop-color="#F3FF00"/>
</linearGradient>
<linearGradient id="paint22_linear_6785_42931" x1="158.038" y1="119.422" x2="187.769" y2="119.422" gradientUnits="userSpaceOnUse">
<stop stop-color="#CEDDF2"/>
<stop offset="0.13" stop-color="#9FABC9"/>
<stop offset="0.52" stop-color="#1C2157"/>
<stop offset="1" stop-color="#F3FF00"/>
</linearGradient>
<linearGradient id="paint23_linear_6785_42931" x1="75.0049" y1="50.2407" x2="67.0057" y2="50.2407" gradientUnits="userSpaceOnUse">
<stop stop-color="#F3FF00"/>
<stop offset="0.48" stop-color="#1C2157"/>
<stop offset="0.87" stop-color="#9FABC9"/>
<stop offset="1" stop-color="#CEDDF2"/>
</linearGradient>
<linearGradient id="paint24_linear_6785_42931" x1="138.353" y1="44.9227" x2="180.639" y2="44.9227" gradientUnits="userSpaceOnUse">
<stop stop-color="#CEDDF2"/>
<stop offset="0.13" stop-color="#9FABC9"/>
<stop offset="0.52" stop-color="#1C2157"/>
<stop offset="1" stop-color="#F3FF00"/>
</linearGradient>
<linearGradient id="paint25_linear_6785_42931" x1="60.4678" y1="95.3342" x2="80.4958" y2="95.3342" gradientUnits="userSpaceOnUse">
<stop stop-color="#CEDDF2"/>
<stop offset="0.13" stop-color="#9FABC9"/>
<stop offset="0.52" stop-color="#1C2157"/>
<stop offset="1" stop-color="#F3FF00"/>
</linearGradient>
<linearGradient id="paint26_linear_6785_42931" x1="44.7855" y1="90.1481" x2="49.6613" y2="66.624" gradientUnits="userSpaceOnUse">
<stop stop-color="#CEDDF2"/>
<stop offset="0.13" stop-color="#9FABC9"/>
<stop offset="0.52" stop-color="#1C2157"/>
<stop offset="1" stop-color="#F3FF00"/>
</linearGradient>
<linearGradient id="paint27_linear_6785_42931" x1="49.2288" y1="100.801" x2="84.7808" y2="101.246" gradientUnits="userSpaceOnUse">
<stop stop-color="#CEDDF2"/>
<stop offset="0.13" stop-color="#9FABC9"/>
<stop offset="0.52" stop-color="#1C2157"/>
<stop offset="1" stop-color="#F3FF00"/>
</linearGradient>
<linearGradient id="paint28_linear_6785_42931" x1="91.8449" y1="120.791" x2="114.557" y2="120.791" gradientUnits="userSpaceOnUse">
<stop stop-color="#CEDDF2"/>
<stop offset="0.13" stop-color="#9FABC9"/>
<stop offset="0.52" stop-color="#1C2157"/>
<stop offset="1" stop-color="#F3FF00"/>
</linearGradient>
<linearGradient id="paint29_linear_6785_42931" x1="191.883" y1="87.9311" x2="199.427" y2="79.9326" gradientUnits="userSpaceOnUse">
<stop stop-color="#CEDDF2"/>
<stop offset="0.13" stop-color="#9FABC9"/>
<stop offset="0.52" stop-color="#1C2157"/>
<stop offset="1" stop-color="#F3FF00"/>
</linearGradient>
</defs>
</svg>
