<svg xmlns="http://www.w3.org/2000/svg" width="152.102" height="220.889" viewBox="0 0 152.102 220.889">
  <g id="D_C_Logo_outline_blue_right" data-name="D+C Logo outline blue right" transform="translate(0.621 0.5)" opacity="0.75">
    <path id="Pfad_118" data-name="Pfad 118" d="M55,114.388A67.177,67.177,0,0,1,122.179,47.21l62.057-.155V3.915H122.179A110.188,110.188,0,0,0,33.254,49.031,109.832,109.832,0,0,1,54.8,114.388" transform="translate(-33.254 -3.915)" fill="none" stroke="#1c2157" stroke-width="1"/>
    <path id="Pfad_119" data-name="Pfad 119" d="M55,24.6a67.185,67.185,0,0,0,67.183,67.183l62.057.155V135.08H122.179A110.2,110.2,0,0,1,33.254,89.963,109.848,109.848,0,0,0,54.8,24.6" transform="translate(-33.254 84.809)" fill="none" stroke="#1c2157" stroke-width="1"/>
  </g>
</svg>
