<svg xmlns="http://www.w3.org/2000/svg" xmlns:xlink="http://www.w3.org/1999/xlink" width="480.091" height="352.697" viewBox="0 0 480.091 352.697">
  <defs>
    <linearGradient id="linear-gradient" x1="1" y1="1" x2="0.669" y2="1" gradientUnits="objectBoundingBox">
      <stop offset="0" stop-color="#c6d8f1"/>
      <stop offset="1" stop-color="#1c2157"/>
    </linearGradient>
    <linearGradient id="linear-gradient-5" x1="0" y1="-0.019" x2="1.076" y2="-0.019" xlink:href="#linear-gradient"/>
  </defs>
  <g id="Gruppe_5405" data-name="Gruppe 5405" transform="translate(-408.198 116.96)">
    <g id="Group_5401" data-name="Group 5401" transform="translate(653.344 -116.96)">
      <path id="Path_118" data-name="Path 118" d="M499.339,55.161H494.7a167.629,167.629,0,0,0-32.664-99.074l-1.016-1.373,1.008-1.378A171.644,171.644,0,0,1,600.565-116.96h95.391v4.641H600.565A167.611,167.611,0,0,0,466.78-45.288,171.143,171.143,0,0,1,499.339,55.161Z" transform="translate(-461.017 116.96)" fill="url(#linear-gradient)"/>
      <path id="Path_118-2" data-name="Path 118" d="M472.979,3.145h-4.641a104.919,104.919,0,0,1,8.3-41.094,105.218,105.218,0,0,1,22.622-33.557,105.21,105.21,0,0,1,33.554-22.625,104.9,104.9,0,0,1,41.092-8.3l95.39-.246.012,4.641-95.391.246A101.045,101.045,0,0,0,472.979,3.145Z" transform="translate(-434.36 168.975)" fill="url(#linear-gradient)"/>
      <path id="Path_119" data-name="Path 119" d="M600.564,91.9a171.9,171.9,0,0,1-40.2-4.776,171.963,171.963,0,0,1-37.477-13.81,171.972,171.972,0,0,1-33.276-22.091,171.921,171.921,0,0,1-27.59-29.618l-1.009-1.378,1.016-1.373A167.629,167.629,0,0,0,494.7-80.228h4.641a170.818,170.818,0,0,1-8.6,53.619A170.88,170.88,0,0,1,466.78,20.229,167.675,167.675,0,0,0,600.565,87.26Z" transform="translate(-461.017 250.706)" fill="url(#linear-gradient)"/>
      <path id="Path_119-2" data-name="Path 119" d="M605.78,25.6l-31.89-.237a104.906,104.906,0,0,1-41.078-8.3A105.231,105.231,0,0,1,499.257-5.573a105.23,105.23,0,0,1-22.622-33.56,104.931,104.931,0,0,1-8.3-41.1h4.641A101.064,101.064,0,0,0,573.908,20.718l31.907.237Z" transform="translate(-434.36 250.706)" fill="url(#linear-gradient)"/>
    </g>
    <g id="Group_5401-2" data-name="Group 5401" transform="translate(424.317 -116.96)">
      <path id="Path_118-3" data-name="Path 118" d="M490.357,91.894H415.238V87.252h75.118A167.624,167.624,0,0,0,624.141,20.221a170.816,170.816,0,0,1-23.953-46.833,170.872,170.872,0,0,1-8.606-53.616h4.641a167.631,167.631,0,0,0,32.665,99.074L629.9,20.22,628.9,21.6a171.817,171.817,0,0,1-27.586,29.621,171.925,171.925,0,0,1-33.276,22.092,171.942,171.942,0,0,1-37.48,13.809A171.877,171.877,0,0,1,490.357,91.894Z" transform="translate(-394.959 250.713)" fill="url(#linear-gradient-5)"/>
      <path id="Path_118-4" data-name="Path 118" d="M410.881,25.593l-.012-4.641,95.391-.246A100.282,100.282,0,0,0,577.637-8.859a100.259,100.259,0,0,0,29.557-71.367h4.641a104.9,104.9,0,0,1-8.294,41.093A105.21,105.21,0,0,1,580.919-5.578a105.221,105.221,0,0,1-33.555,22.625,104.92,104.92,0,0,1-41.093,8.3Z" transform="translate(-410.869 250.714)" fill="url(#linear-gradient-5)"/>
      <path id="Path_119-3" data-name="Path 119" d="M607.479,55.17A171.169,171.169,0,0,1,640.038-45.287a167.675,167.675,0,0,0-133.785-67.031H410.872v-4.641h95.382A171.706,171.706,0,0,1,644.792-46.665l1.009,1.378-1.016,1.373a167.667,167.667,0,0,0-32.665,99.084Z" transform="translate(-410.857 116.96)" fill="url(#linear-gradient-5)"/>
      <path id="Path_119-4" data-name="Path 119" d="M611.828,3.151h-4.641A101.058,101.058,0,0,0,506.258-97.8l-95.387-.237.012-4.641,95.382.237a104.927,104.927,0,0,1,41.09,8.3,105.232,105.232,0,0,1,33.557,22.629,105.222,105.222,0,0,1,22.623,33.56A104.917,104.917,0,0,1,611.828,3.151Z" transform="translate(-410.861 168.979)" fill="url(#linear-gradient-5)"/>
    </g>
    <circle id="Ellipse_703" data-name="Ellipse 703" cx="12.411" cy="12.411" r="12.411" transform="translate(812.37 144.554)" fill="#1c2157"/>
    <circle id="Ellipse_704" data-name="Ellipse 704" cx="12.411" cy="12.411" r="12.411" transform="translate(780.48 210.914)" fill="#1c2157"/>
    <circle id="Ellipse_705" data-name="Ellipse 705" cx="12.411" cy="12.411" r="12.411" transform="translate(408.198 144.554)" fill="#1c2157"/>
    <circle id="Ellipse_706" data-name="Ellipse 706" cx="12.411" cy="12.411" r="12.411" transform="translate(428.46 210.914)" fill="#1c2157"/>
  </g>
</svg>
