<svg width="96" height="96" viewBox="0 0 96 96" fill="none" xmlns="http://www.w3.org/2000/svg">
<g filter="url(#filter0_d_678_10795)">
<path fill-rule="evenodd" clip-rule="evenodd" d="M32.8499 35.9038C32.8499 35.9038 32.8062 35.9257 32.7844 35.9403C31.1088 36.5522 29.914 38.1476 29.914 40.0272C29.914 41.2365 30.4021 42.322 31.1889 43.1161C31.4585 43.3783 31.6187 43.7426 31.6187 44.1506C31.6187 44.9519 30.9704 45.6076 30.1617 45.6076C29.7392 45.6076 29.3604 45.4255 29.0981 45.1413C27.8014 43.8227 27 42.0233 27 40.0345C27 36.88 29.0107 34.1918 31.8227 33.1865L31.8373 33.1792C32.4128 32.9825 32.8281 32.4361 32.8281 31.795V11.457C32.8281 10.6557 33.4837 10 34.2851 10C35.0864 10 35.7421 10.6557 35.7421 11.457V31.7878C35.7421 33.6819 34.5328 35.2992 32.8499 35.9038Z" fill="url(#paint0_linear_678_10795)"/>
<path fill-rule="evenodd" clip-rule="evenodd" d="M36.9194 47.4284L36.9048 47.4356C36.3293 47.6323 35.914 48.1787 35.914 48.8198V73.7207C35.914 74.5221 35.2584 75.1778 34.457 75.1778C33.6557 75.1778 33 74.5221 33 73.7207V48.8198C33 46.9257 34.2093 45.3084 35.8922 44.7037C35.914 44.7037 35.9359 44.6819 35.9577 44.6673C37.6333 44.0554 38.8281 42.4599 38.8281 40.5804C38.8281 39.3711 38.34 38.2856 37.5532 37.4915C37.2909 37.2292 37.1234 36.865 37.1234 36.457C37.1234 35.6557 37.779 35 38.5804 35C39.0029 35 39.3817 35.1821 39.644 35.4662C40.9407 36.7848 41.7421 38.5843 41.7421 40.5731C41.7421 43.7275 39.7314 46.4157 36.9194 47.4211V47.4284Z" fill="url(#paint1_linear_678_10795)"/>
<path d="M36 79.5C36 80.3284 35.3284 81 34.5 81C33.6716 81 33 80.3284 33 79.5C33 78.6716 33.6716 78 34.5 78C35.3284 78 36 78.6716 36 79.5Z" fill="url(#paint2_linear_678_10795)"/>
<path fill-rule="evenodd" clip-rule="evenodd" d="M60.8499 41.9038C60.8499 41.9038 60.8062 41.9257 60.7844 41.9403C59.1088 42.5522 57.914 44.1476 57.914 46.0272C57.914 47.2365 58.4021 48.322 59.1889 49.1161C59.4585 49.3783 59.6187 49.7426 59.6187 50.1506C59.6187 50.9519 58.9704 51.6076 58.1617 51.6076C57.7392 51.6076 57.3604 51.4255 57.0981 51.1413C55.8014 49.8227 55 48.0233 55 46.0345C55 42.88 57.0107 40.1918 59.8227 39.1865L59.8373 39.1792C60.4128 38.9825 60.8281 38.4361 60.8281 37.795V27.457C60.8281 26.6557 61.4837 26 62.2851 26C63.0864 26 63.7421 26.6557 63.7421 27.457V37.7878C63.7421 39.6819 62.5328 41.2992 60.8499 41.9038Z" fill="url(#paint3_linear_678_10795)"/>
<path d="M64 22.5C64 23.3284 63.3284 24 62.5 24C61.6716 24 61 23.3284 61 22.5C61 21.6716 61.6716 21 62.5 21C63.3284 21 64 21.6716 64 22.5Z" fill="url(#paint4_linear_678_10795)"/>
<path fill-rule="evenodd" clip-rule="evenodd" d="M64.9194 53.4284L64.9048 53.4356C64.3293 53.6323 63.914 54.1787 63.914 54.8198V81.7207C63.914 82.5221 63.2584 83.1778 62.457 83.1778C61.6557 83.1778 61 82.5221 61 81.7207V54.8198C61 52.9257 62.2093 51.3084 63.8922 50.7037C63.914 50.7037 63.9359 50.6819 63.9577 50.6673C65.6333 50.0554 66.8281 48.4599 66.8281 46.5804C66.8281 45.3711 66.34 44.2856 65.5532 43.4915C65.2909 43.2292 65.1234 42.865 65.1234 42.457C65.1234 41.6557 65.779 41 66.5804 41C67.0029 41 67.3817 41.1821 67.644 41.4662C68.9407 42.7848 69.7421 44.5843 69.7421 46.5731C69.7421 49.7275 67.7314 52.4157 64.9194 53.4211V53.4284Z" fill="url(#paint5_linear_678_10795)"/>
<path fill-rule="evenodd" clip-rule="evenodd" d="M46.8499 52.9038C46.8499 52.9038 46.8062 52.9257 46.7844 52.9403C45.1088 53.5522 43.914 55.1476 43.914 57.0272C43.914 58.2365 44.4021 59.322 45.1889 60.1161C45.4585 60.3783 45.6187 60.7426 45.6187 61.1506C45.6187 61.9519 44.9704 62.6076 44.1617 62.6076C43.7392 62.6076 43.3604 62.4255 43.0981 62.1413C41.8014 60.8227 41 59.0233 41 57.0345C41 53.88 43.0107 51.1918 45.8227 50.1865L45.8373 50.1792C46.4128 49.9825 46.8281 49.4361 46.8281 48.795V12.457C46.8281 11.6557 47.4837 11 48.2851 11C49.0864 11 49.7421 11.6557 49.7421 12.457V48.7878C49.7421 50.6819 48.5328 52.2992 46.8499 52.9038Z" fill="url(#paint6_linear_678_10795)"/>
<path fill-rule="evenodd" clip-rule="evenodd" d="M50.9194 64.4284L50.9048 64.4356C50.3293 64.6323 49.914 65.1787 49.914 65.8198V83.7207C49.914 84.5221 49.2584 85.1778 48.457 85.1778C47.6557 85.1778 47 84.5221 47 83.7207V65.8198C47 63.9257 48.2093 62.3084 49.8922 61.7037C49.914 61.7037 49.9359 61.6819 49.9577 61.6673C51.6333 61.0554 52.8281 59.4599 52.8281 57.5804C52.8281 56.3711 52.34 55.2856 51.5532 54.4915C51.2909 54.2292 51.1234 53.865 51.1234 53.457C51.1234 52.6557 51.779 52 52.5804 52C53.0029 52 53.3817 52.1821 53.644 52.4662C54.9407 53.7848 55.7421 55.5843 55.7421 57.5731C55.7421 60.7275 53.7314 63.4157 50.9194 64.4211V64.4284Z" fill="url(#paint7_linear_678_10795)"/>
<path d="M44.5 10C44.5 7.79086 46.2909 6 48.5 6C50.7091 6 52.5 7.79086 52.5 10C52.5 12.2091 50.7091 14 48.5 14C46.2909 14 44.5 12.2091 44.5 10Z" fill="white"/>
<path d="M44.5 86C44.5 83.7909 46.2909 82 48.5 82C50.7091 82 52.5 83.7909 52.5 86C52.5 88.2091 50.7091 90 48.5 90C46.2909 90 44.5 88.2091 44.5 86Z" fill="white"/>
</g>
<defs>
<filter id="filter0_d_678_10795" x="-3" y="-2" width="104" height="104" filterUnits="userSpaceOnUse" color-interpolation-filters="sRGB">
<feFlood flood-opacity="0" result="BackgroundImageFix"/>
<feColorMatrix in="SourceAlpha" type="matrix" values="0 0 0 0 0 0 0 0 0 0 0 0 0 0 0 0 0 0 127 0" result="hardAlpha"/>
<feOffset dx="1" dy="2"/>
<feGaussianBlur stdDeviation="2"/>
<feColorMatrix type="matrix" values="0 0 0 0 0.109804 0 0 0 0 0.129412 0 0 0 0 0.341176 0 0 0 0.2 0"/>
<feBlend mode="normal" in2="BackgroundImageFix" result="effect1_dropShadow_678_10795"/>
<feBlend mode="normal" in="SourceGraphic" in2="effect1_dropShadow_678_10795" result="shape"/>
</filter>
<linearGradient id="paint0_linear_678_10795" x1="35" y1="36" x2="34.5" y2="7" gradientUnits="userSpaceOnUse">
<stop stop-color="white"/>
<stop offset="0.021" stop-color="white"/>
<stop offset="0.167" stop-color="white"/>
<stop offset="0.808" stop-color="#545D89"/>
<stop offset="1" stop-color="#1C2157"/>
</linearGradient>
<linearGradient id="paint1_linear_678_10795" x1="35" y1="45.5" x2="17.6963" y2="57.7353" gradientUnits="userSpaceOnUse">
<stop stop-color="white"/>
<stop offset="0.021" stop-color="white"/>
<stop offset="0.167" stop-color="white"/>
<stop offset="0.808" stop-color="#545D89"/>
<stop offset="1" stop-color="#1C2157"/>
</linearGradient>
<linearGradient id="paint2_linear_678_10795" x1="35" y1="45.5" x2="34.5" y2="85.5" gradientUnits="userSpaceOnUse">
<stop stop-color="white"/>
<stop offset="0.021" stop-color="white"/>
<stop offset="0.167" stop-color="white"/>
<stop offset="0.808" stop-color="#545D89"/>
<stop offset="1" stop-color="#1C2157"/>
</linearGradient>
<linearGradient id="paint3_linear_678_10795" x1="63" y1="42.5" x2="63.5" y2="17.5" gradientUnits="userSpaceOnUse">
<stop stop-color="white"/>
<stop offset="0.021" stop-color="white"/>
<stop offset="0.167" stop-color="white"/>
<stop offset="0.808" stop-color="#545D89"/>
<stop offset="1" stop-color="#1C2157"/>
</linearGradient>
<linearGradient id="paint4_linear_678_10795" x1="63" y1="42.5" x2="63.5" y2="17.5" gradientUnits="userSpaceOnUse">
<stop stop-color="white"/>
<stop offset="0.021" stop-color="white"/>
<stop offset="0.167" stop-color="white"/>
<stop offset="0.808" stop-color="#545D89"/>
<stop offset="1" stop-color="#1C2157"/>
</linearGradient>
<linearGradient id="paint5_linear_678_10795" x1="61.5" y1="47.5" x2="62" y2="87.5" gradientUnits="userSpaceOnUse">
<stop stop-color="white"/>
<stop offset="0.021" stop-color="white"/>
<stop offset="0.167" stop-color="white"/>
<stop offset="0.808" stop-color="#545D89"/>
<stop offset="1" stop-color="#1C2157"/>
</linearGradient>
<linearGradient id="paint6_linear_678_10795" x1="48.5" y1="52" x2="48.5" y2="10" gradientUnits="userSpaceOnUse">
<stop stop-color="white"/>
<stop offset="0.021" stop-color="white"/>
<stop offset="0.167" stop-color="white"/>
<stop offset="0.808" stop-color="#545D89"/>
<stop offset="1" stop-color="#1C2157"/>
</linearGradient>
<linearGradient id="paint7_linear_678_10795" x1="48" y1="58.5" x2="34.9952" y2="71.5931" gradientUnits="userSpaceOnUse">
<stop stop-color="white"/>
<stop offset="0.021" stop-color="white"/>
<stop offset="0.167" stop-color="white"/>
<stop offset="0.808" stop-color="#545D89"/>
<stop offset="1" stop-color="#1C2157"/>
</linearGradient>
</defs>
</svg>
