<svg xmlns="http://www.w3.org/2000/svg" width="152.107" height="220.889" viewBox="0 0 152.107 220.889">
  <g id="D_C_Logo_outline_white_left" data-name="D+C Logo outline white left" transform="translate(-772.517 -604.5)">
    <path id="Pfad_46993" data-name="Pfad 46993" d="M134.414,114.393A109.816,109.816,0,0,1,155.968,49.03,110.226,110.226,0,0,0,67.044,3.914H4.982V47.055l62.062.155a67.177,67.177,0,0,1,67.178,67.183" transform="translate(768.035 601.086)" fill="none" stroke="#fff" stroke-width="1"/>
    <path id="Pfad_46994" data-name="Pfad 46994" d="M134.414,24.6a109.812,109.812,0,0,0,21.554,65.357,110.226,110.226,0,0,1-88.925,45.117H4.982V91.934l62.062-.155A67.179,67.179,0,0,0,134.222,24.6" transform="translate(768.035 689.814)" fill="none" stroke="#fff" stroke-width="1"/>
  </g>
</svg>
