<svg id="Layer_1" data-name="Layer 1" xmlns="http://www.w3.org/2000/svg" xmlns:xlink="http://www.w3.org/1999/xlink" viewBox="0 0 100 100"><defs><style>.cls-1{fill:none;}.cls-2,.cls-3,.cls-4,.cls-5,.cls-6{fill-rule:evenodd;}.cls-2{fill:url(#linear-gradient);}.cls-3{fill:url(#linear-gradient-2);}.cls-4{fill:url(#linear-gradient-3);}.cls-5{fill:url(#linear-gradient-4);}.cls-6{fill:url(#linear-gradient-5);}.cls-7{fill:url(#linear-gradient-6);}.cls-8{fill:url(#linear-gradient-7);}.cls-9{fill:#f3ff00;}</style><linearGradient id="linear-gradient" x1="54.41" y1="36.69" x2="91.97" y2="36.69" gradientUnits="userSpaceOnUse"><stop offset="0" stop-color="#f3ff00"/><stop offset="0.86" stop-color="#1c2157"/></linearGradient><linearGradient id="linear-gradient-2" x1="47.17" y1="32.35" x2="88.88" y2="32.35" xlink:href="#linear-gradient"/><linearGradient id="linear-gradient-3" x1="28.12" y1="34.37" x2="86.02" y2="34.37" xlink:href="#linear-gradient"/><linearGradient id="linear-gradient-4" x1="16.79" y1="30.22" x2="56.83" y2="41.91" xlink:href="#linear-gradient"/><linearGradient id="linear-gradient-5" x1="13.88" y1="25.48" x2="49.98" y2="35.85" xlink:href="#linear-gradient"/><linearGradient id="linear-gradient-6" x1="54.8" y1="28.41" x2="63.4" y2="28.41" gradientUnits="userSpaceOnUse"><stop offset="0" stop-color="#1c2157"/><stop offset="1" stop-color="#f3ff00"/></linearGradient><linearGradient id="linear-gradient-7" x1="48.31" y1="18.3" x2="56.92" y2="18.3" xlink:href="#linear-gradient-6"/></defs><rect class="cls-1" width="100" height="100"/><path class="cls-2" d="M55.42,52.73c-1.89,0-3.74-.09-5.54-.27l.32-3.31c1.39.15,2.82.26,4.27.31C71.32,50,85.3,42.94,85.59,33.67c.16-5-3.76-9.7-10.07-13C82.78,24,87.44,29,87.44,34.69c0,9.93-14.38,18-32,18Z"/><path class="cls-3" d="M48.26,43.43c-1.89-.27-3.72-.61-5.48-1l1-2.61c1.36.32,2.76.61,4.2.85,16.73,2.84,32.27-.87,34.6-8.25,1.26-4-1.63-8.29-7.21-11.82,6.53,3.67,10.08,8.37,8.83,12.9-2.18,8-18.34,12.41-36,9.93Z"/><path class="cls-4" d="M49.94,5.42a29,29,0,0,1,29,28.68,25.54,25.54,0,1,0-6,17.93A28.94,28.94,0,1,1,49.94,5.42Z"/><path class="cls-5" d="M51.62,25.31q2.84.4,5.48,1l-1,2.6c-1.36-.32-2.77-.6-4.21-.85-16.72-2.83-32.27.88-34.59,8.25-1.26,4,1.63,8.29,7.21,11.83-6.53-3.67-10.08-8.38-8.83-12.9,2.18-8,18.34-12.41,36-9.93Z"/><path class="cls-6" d="M44.46,16c1.89,0,3.74.09,5.54.27l-.32,3.31c-1.39-.16-2.82-.26-4.27-.31C28.56,18.7,14.58,25.8,14.29,35.07c-.16,5,3.76,9.7,10.06,13-7.25-3.31-11.91-8.37-11.91-14,0-9.94,14.38-18,32-18Z"/><circle class="cls-7" cx="59.1" cy="28.41" r="4.3"/><circle class="cls-8" cx="52.61" cy="18.3" r="4.3"/><circle class="cls-9" cx="40.78" cy="40.32" r="4.3"/><circle class="cls-9" cx="47.27" cy="50.44" r="4.3"/><path class="cls-9" d="M30,83.08a8.32,8.32,0,0,1,0,16.64H23.54V83.08ZM26.53,97h3.29a5.63,5.63,0,0,0,0-11.24H26.53Z"/><path class="cls-9" d="M49.57,96.83H42.7l-1.22,2.89h-3.2L45.66,82.8h.92l7.36,16.92H50.79Zm-1.15-2.72-2.3-5.42-2.27,5.42Z"/><path class="cls-9" d="M52.79,85.79V83.08H64.38v2.71h-4.3V99.72h-3V85.79Z"/><path class="cls-9" d="M74.5,96.83H67.63l-1.22,2.89h-3.2L70.6,82.8h.92l7.35,16.92H75.72Zm-1.15-2.72-2.29-5.42-2.28,5.42Z"/></svg>