<svg id="Ebene_1" data-name="Ebene 1" xmlns="http://www.w3.org/2000/svg" viewBox="0 0 213 155.38"><defs><style>.cls-1{fill:none;stroke:#1c2157;}.cls-2{opacity:0.75;}</style></defs><g id="D_C_Logo_outline_white_left" data-name="D C Logo outline white left"><path id="Pfad_46993" data-name="Pfad 46993" class="cls-1" d="M91.37,78.06A77.13,77.13,0,0,1,106.5,32.17,77.38,77.38,0,0,0,44.07.5H.5V30.79l43.57.11A47.15,47.15,0,0,1,91.23,78.06h0" transform="translate(0 0)"/><path id="Pfad_46994" data-name="Pfad 46994" class="cls-1" d="M91.37,77.32A77.1,77.1,0,0,0,106.5,123.2a77.38,77.38,0,0,1-62.43,31.67H.5V124.59l43.57-.11A47.16,47.16,0,0,0,91.23,77.32" transform="translate(0 0)"/></g><g id="D_C_Logo_outline_blue_right" data-name="D C Logo outline blue right" class="cls-2"><path id="Pfad_118" data-name="Pfad 118" class="cls-1" d="M121.76,78.06A47.16,47.16,0,0,1,168.93,30.9h0l43.57-.11V.5H168.93A77.36,77.36,0,0,0,106.5,32.18a77.08,77.08,0,0,1,15.13,45.88" transform="translate(0 0)"/><path id="Pfad_119" data-name="Pfad 119" class="cls-1" d="M121.76,77.31a47.17,47.17,0,0,0,47.17,47.17l43.57.11v30.29H168.93A77.36,77.36,0,0,1,106.5,123.2a77.11,77.11,0,0,0,15.13-45.89" transform="translate(0 0)"/></g></svg>