<svg id="Ebene_1" data-name="Ebene 1" xmlns="http://www.w3.org/2000/svg" viewBox="0 0 32.28 23.65"><defs><style>.cls-1{fill:#f3ff00;}.cls-2{fill:#c6d8f1;}</style></defs><path class="cls-1" d="M18.45,11.83a7.24,7.24,0,0,1,7.2-7.2h6.63V0H25.65a11.92,11.92,0,0,0-9.54,4.8,11.65,11.65,0,0,1,2.34,7"/><path class="cls-1" d="M18.45,11.83A7.2,7.2,0,0,0,25.65,19h6.63v4.63H25.65a11.89,11.89,0,0,1-9.54-4.8,11.64,11.64,0,0,0,2.34-7"/><path class="cls-2" d="M13.83,11.83a11.68,11.68,0,0,1,2.28-7A11.8,11.8,0,0,0,6.57.06H0V4.63H6.63a7.24,7.24,0,0,1,7.2,7.2"/><path class="cls-2" d="M13.83,11.83a11.73,11.73,0,0,0,2.28,7,11.82,11.82,0,0,1-9.54,4.79H0V19H6.63a7.16,7.16,0,0,0,7.2-7.14"/></svg>