<svg id="Layer_1" data-name="Layer 1" xmlns="http://www.w3.org/2000/svg" xmlns:xlink="http://www.w3.org/1999/xlink" viewBox="0 0 100 100"><defs><style>.cls-1{fill:none;}.cls-2{fill:#f3ff00;}.cls-10,.cls-11,.cls-12,.cls-13,.cls-14,.cls-15,.cls-16,.cls-17,.cls-18,.cls-19,.cls-20,.cls-21,.cls-22,.cls-23,.cls-24,.cls-25,.cls-26,.cls-27,.cls-28,.cls-29,.cls-3,.cls-4,.cls-5,.cls-6,.cls-7,.cls-8,.cls-9{fill-rule:evenodd;}.cls-3{fill:url(#linear-gradient);}.cls-4{fill:url(#linear-gradient-2);}.cls-5{fill:url(#linear-gradient-3);}.cls-6{fill:url(#linear-gradient-4);}.cls-7{fill:url(#linear-gradient-5);}.cls-8{fill:url(#linear-gradient-6);}.cls-9{fill:url(#linear-gradient-7);}.cls-10{fill:url(#linear-gradient-8);}.cls-11{fill:url(#linear-gradient-9);}.cls-12{fill:url(#linear-gradient-10);}.cls-13{fill:url(#linear-gradient-11);}.cls-14{fill:url(#linear-gradient-12);}.cls-15{fill:url(#linear-gradient-13);}.cls-16{fill:url(#linear-gradient-14);}.cls-17{fill:url(#linear-gradient-15);}.cls-18{fill:url(#linear-gradient-16);}.cls-19{fill:url(#linear-gradient-17);}.cls-20{fill:url(#linear-gradient-18);}.cls-21{fill:url(#linear-gradient-19);}.cls-22{fill:url(#linear-gradient-20);}.cls-23{fill:url(#linear-gradient-21);}.cls-24{fill:url(#linear-gradient-22);}.cls-25{fill:url(#linear-gradient-23);}.cls-26{fill:url(#linear-gradient-24);}.cls-27{fill:url(#linear-gradient-25);}.cls-28{fill:url(#linear-gradient-26);}.cls-29{fill:url(#linear-gradient-27);}</style><linearGradient id="linear-gradient" x1="6.51" y1="33.83" x2="89.01" y2="33.83" gradientUnits="userSpaceOnUse"><stop offset="0.18" stop-color="#f3ff00"/><stop offset="0.26" stop-color="#e5f106"/><stop offset="0.41" stop-color="#c1cb14"/><stop offset="0.61" stop-color="#868e2c"/><stop offset="0.86" stop-color="#353b4d"/><stop offset="0.94" stop-color="#1c2157"/></linearGradient><linearGradient id="linear-gradient-2" x1="84.91" y1="22.34" x2="87.7" y2="22.34" gradientUnits="userSpaceOnUse"><stop offset="0" stop-color="#f3ff00" stop-opacity="0.5"/><stop offset="0.14" stop-color="#bfc915" stop-opacity="0.62"/><stop offset="0.37" stop-color="#788032" stop-opacity="0.79"/><stop offset="0.6" stop-color="#454b46" stop-opacity="0.9"/><stop offset="0.81" stop-color="#262c53" stop-opacity="0.98"/><stop offset="1" stop-color="#1c2157"/></linearGradient><linearGradient id="linear-gradient-3" x1="64.64" y1="7.43" x2="66.9" y2="7.43" xlink:href="#linear-gradient-2"/><linearGradient id="linear-gradient-4" x1="69.5" y1="12.92" x2="73.3" y2="12.92" xlink:href="#linear-gradient-2"/><linearGradient id="linear-gradient-5" x1="66.47" y1="17.67" x2="68.73" y2="17.67" xlink:href="#linear-gradient-2"/><linearGradient id="linear-gradient-6" x1="65.47" y1="49.01" x2="67.73" y2="49.01" xlink:href="#linear-gradient-2"/><linearGradient id="linear-gradient-7" x1="64.15" y1="62.92" x2="66.41" y2="62.92" xlink:href="#linear-gradient-2"/><linearGradient id="linear-gradient-8" x1="69.13" y1="55" x2="72.93" y2="55" xlink:href="#linear-gradient-2"/><linearGradient id="linear-gradient-9" x1="56.93" y1="62.97" x2="60.25" y2="62.97" xlink:href="#linear-gradient-2"/><linearGradient id="linear-gradient-10" x1="59.78" y1="58.25" x2="63.09" y2="58.25" xlink:href="#linear-gradient-2"/><linearGradient id="linear-gradient-11" x1="59.9" y1="54.1" x2="63.22" y2="54.1" xlink:href="#linear-gradient-2"/><linearGradient id="linear-gradient-12" x1="59.9" y1="49.62" x2="63.22" y2="49.62" xlink:href="#linear-gradient-2"/><linearGradient id="linear-gradient-13" x1="54.58" y1="40.54" x2="57.89" y2="40.54" xlink:href="#linear-gradient-2"/><linearGradient id="linear-gradient-14" x1="54.22" y1="26.88" x2="57.53" y2="26.88" xlink:href="#linear-gradient-2"/><linearGradient id="linear-gradient-15" x1="59.94" y1="18.08" x2="63.25" y2="18.08" xlink:href="#linear-gradient-2"/><linearGradient id="linear-gradient-16" x1="74.66" y1="22.19" x2="77.97" y2="22.19" xlink:href="#linear-gradient-2"/><linearGradient id="linear-gradient-17" x1="76.64" y1="26.91" x2="79.95" y2="26.91" xlink:href="#linear-gradient-2"/><linearGradient id="linear-gradient-18" x1="76.64" y1="31.58" x2="79.95" y2="31.58" xlink:href="#linear-gradient-2"/><linearGradient id="linear-gradient-19" x1="76.56" y1="36.07" x2="79.87" y2="36.07" xlink:href="#linear-gradient-2"/><linearGradient id="linear-gradient-20" x1="76.6" y1="40.54" x2="79.91" y2="40.54" xlink:href="#linear-gradient-2"/><linearGradient id="linear-gradient-21" x1="74.12" y1="45.04" x2="77.43" y2="45.04" xlink:href="#linear-gradient-2"/><linearGradient id="linear-gradient-22" x1="59.94" y1="13.61" x2="63.25" y2="13.61" xlink:href="#linear-gradient-2"/><linearGradient id="linear-gradient-23" x1="59.94" y1="9.14" x2="63.25" y2="9.14" xlink:href="#linear-gradient-2"/><linearGradient id="linear-gradient-24" x1="56.94" y1="4.69" x2="60.25" y2="4.69" xlink:href="#linear-gradient-2"/><linearGradient id="linear-gradient-25" x1="81.53" y1="44.91" x2="83.78" y2="44.91" xlink:href="#linear-gradient-2"/><linearGradient id="linear-gradient-26" x1="86.39" y1="39.41" x2="90.19" y2="39.41" xlink:href="#linear-gradient-2"/><linearGradient id="linear-gradient-27" x1="81.37" y1="33.19" x2="83.62" y2="33.19" xlink:href="#linear-gradient-2"/></defs><rect class="cls-1" width="100" height="100"/><path class="cls-2" d="M21.84,83.08v2.71H14.52V90h6.81v2.71H14.52V97h7.32v2.71H11.53V83.08Z"/><path class="cls-2" d="M24.62,92.64V83.05h3v9.34c0,2.73,1.17,4.8,3.66,4.8s3.63-2.07,3.63-4.8V83.05h3v9.59c0,4.09-2.32,7.36-6.62,7.36S24.62,96.73,24.62,92.64Z"/><path class="cls-2" d="M49.44,83.08V90h7.75V83.08h3V99.72h-3V92.66H49.44v7.06h-3V83.08Z"/><path class="cls-2" d="M62.39,85.79V83.08H74v2.71h-4.3V99.72h-3V85.79Z"/><path class="cls-2" d="M84.1,96.83H77.22L76,99.72H72.81L80.19,82.8h.92l7.36,16.92H85.32ZM83,94.11l-2.3-5.42-2.28,5.42Z"/><path class="cls-3" d="M42,3.86H57.17A1.62,1.62,0,0,1,58.58,3a1.64,1.64,0,1,1-1.41,2.47H50.38V7.17h1.5V8.33h8.27a1.64,1.64,0,1,1,0,1.66H45.92v1.66h2.83v1.17h11.4a1.64,1.64,0,1,1,1.41,2.47,1.65,1.65,0,0,1-1.41-.81H49.54v1.66h2.34V17.3h8.27a1.64,1.64,0,1,1,0,1.67H43.48v1.66h3v.78H57.24L61.71,26H76.82a1.63,1.63,0,1,1,0,1.71H61l-4.43-4.62h-9v1.67h4.37v1.28h2.5a1.64,1.64,0,1,1,0,1.67H42.18V29.4h3.18v1.34H76.79a1.64,1.64,0,1,1,1.41,2.47,1.62,1.62,0,0,1-1.41-.81H34.89v1.67h5.63v1.16H57.41l4.35,4.49h15a1.64,1.64,0,1,1,1.41,2.47,1.62,1.62,0,0,1-1.41-.81H61l-4.3-4.49H25.46v1.67H44.64v1.16H54.78a1.64,1.64,0,1,1,1.41,2.47,1.62,1.62,0,0,1-1.41-.81H40.52v1.67H51.88v1.16h22.5a1.64,1.64,0,1,1,0,1.66H47.81v1.66h4.07v1.23h3.35l-1.74,1.66H42.39V52h3.18v1.22h7.52l4.4-4.49h2.66a1.64,1.64,0,1,1,0,1.67H58.22l-4.45,4.49H40.32v1.66H51.88v1.16h7.94a1.64,1.64,0,1,1,1.56,2.17,1.61,1.61,0,0,1-1.18-.51H44.12v1.67h4.09v1.07h9a1.64,1.64,0,1,1,0,1.67H42a5,5,0,0,1-5-5V46.61H24.83a5,5,0,0,1-5-5V26.07a5,5,0,0,1,5-5H37V8.87a5,5,0,0,1,5-5ZM61.56,52.45a1.64,1.64,0,0,0-1.41.8H58.06L56.4,54.92h3.75a1.64,1.64,0,1,0,1.41-2.47Zm16.64-18a1.64,1.64,0,0,0-1.41.81H59.56l1.67,1.66H76.79a1.62,1.62,0,0,0,1.41.81,1.64,1.64,0,1,0,0-3.28Zm-2-13.81a1.62,1.62,0,0,0-1.41.81H59.64l1.66,1.66H74.83a1.64,1.64,0,1,0,1.41-2.47Z"/><path class="cls-4" d="M86.3,21a1.39,1.39,0,1,1-1.39,1.39A1.4,1.4,0,0,1,86.3,21Z"/><path class="cls-5" d="M65.77,8.55a1.13,1.13,0,1,0-1.13-1.12,1.13,1.13,0,0,0,1.13,1.12Z"/><path class="cls-6" d="M71.4,11a1.9,1.9,0,1,0,1.9,1.9A1.9,1.9,0,0,0,71.4,11Z"/><path class="cls-7" d="M67.6,16.54a1.13,1.13,0,1,0,1.13,1.13,1.13,1.13,0,0,0-1.13-1.13Z"/><path class="cls-8" d="M66.6,47.89A1.13,1.13,0,1,0,67.73,49a1.13,1.13,0,0,0-1.13-1.12Z"/><path class="cls-9" d="M65.28,61.79a1.13,1.13,0,1,0,1.13,1.13,1.14,1.14,0,0,0-1.13-1.13Z"/><path class="cls-10" d="M71,53.1a1.91,1.91,0,1,0,1.9,1.9A1.9,1.9,0,0,0,71,53.1Z"/><path class="cls-11" d="M58.59,61.31A1.66,1.66,0,1,0,60.25,63a1.67,1.67,0,0,0-1.66-1.66Z"/><path class="cls-12" d="M61.43,56.59a1.66,1.66,0,1,0,1.66,1.66,1.65,1.65,0,0,0-1.66-1.66Z"/><path class="cls-13" d="M61.56,52.44a1.66,1.66,0,1,0,1.66,1.66,1.66,1.66,0,0,0-1.66-1.66Z"/><path class="cls-14" d="M61.56,48a1.66,1.66,0,1,0,1.66,1.66A1.67,1.67,0,0,0,61.56,48Z"/><path class="cls-15" d="M56.23,38.88a1.66,1.66,0,1,0,1.66,1.66,1.65,1.65,0,0,0-1.66-1.66Z"/><path class="cls-16" d="M55.87,25.22a1.66,1.66,0,1,0,1.66,1.66,1.65,1.65,0,0,0-1.66-1.66Z"/><path class="cls-17" d="M61.6,16.42a1.66,1.66,0,1,0,1.65,1.66,1.66,1.66,0,0,0-1.65-1.66Z"/><path class="cls-18" d="M76.31,20.54A1.66,1.66,0,1,0,78,22.19a1.65,1.65,0,0,0-1.66-1.65Z"/><path class="cls-19" d="M78.3,25.26A1.66,1.66,0,1,0,80,26.91a1.65,1.65,0,0,0-1.65-1.65Z"/><path class="cls-20" d="M78.3,29.92A1.66,1.66,0,1,0,80,31.58a1.66,1.66,0,0,0-1.65-1.66Z"/><path class="cls-21" d="M78.22,34.42a1.66,1.66,0,1,0,1.65,1.65,1.65,1.65,0,0,0-1.65-1.65Z"/><path class="cls-22" d="M78.26,38.88a1.66,1.66,0,1,0,1.65,1.66,1.66,1.66,0,0,0-1.65-1.66Z"/><path class="cls-23" d="M75.77,43.39A1.66,1.66,0,1,0,77.43,45a1.65,1.65,0,0,0-1.66-1.65Z"/><path class="cls-24" d="M61.6,12a1.66,1.66,0,1,0,1.65,1.66A1.66,1.66,0,0,0,61.6,12Z"/><path class="cls-25" d="M61.6,7.48a1.66,1.66,0,1,0,1.65,1.66A1.66,1.66,0,0,0,61.6,7.48Z"/><path class="cls-26" d="M58.59,3a1.66,1.66,0,1,0,1.66,1.66A1.65,1.65,0,0,0,58.59,3Z"/><path class="cls-27" d="M82.66,43.78a1.13,1.13,0,1,0,1.12,1.13,1.13,1.13,0,0,0-1.12-1.13Z"/><path class="cls-28" d="M88.29,41.31a1.9,1.9,0,1,0-1.9-1.9,1.9,1.9,0,0,0,1.9,1.9Z"/><path class="cls-29" d="M82.5,34.31a1.13,1.13,0,1,0-1.13-1.12,1.12,1.12,0,0,0,1.13,1.12Z"/></svg>