<svg width="96" height="96" viewBox="0 0 96 96" fill="none" xmlns="http://www.w3.org/2000/svg">
<g filter="url(#filter0_d_678_9928)">
<path d="M14 65.4921V14.1905C14 11.8761 15.8761 10 18.1905 10H37.746C40.0604 10 41.9365 11.8761 41.9365 14.1905V81.2381C41.9365 83.5524 40.0604 85.4286 37.746 85.4286H18.1905C15.8761 85.4286 14 83.5524 14 81.2381V71.7619M81.0476 31.1111L81.0476 81.2381C81.0476 83.5524 79.1715 85.4286 76.8571 85.4286H57.3016C54.9872 85.4286 53.1111 83.5524 53.1111 81.2381L53.1111 14.1905C53.1111 11.8761 54.9873 10 57.3016 10L76.8571 10C79.1715 10 81.0476 11.8761 81.0476 14.1905C81.0476 14.1905 81.0476 14.1905 81.0476 14.1905C81.0476 14.1905 81.0476 16.3861 81.0476 24.8413M34.9524 68.5397C34.9524 72.3969 31.8255 75.5238 27.9683 75.5238C24.111 75.5238 20.9841 72.3969 20.9841 68.5397C20.9841 64.6825 24.111 61.5556 27.9683 61.5556C31.8255 61.5556 34.9524 64.6825 34.9524 68.5397ZM74.0635 68.5397C74.0635 72.3969 70.9366 75.5238 67.0794 75.5238C63.2221 75.5238 60.0952 72.3969 60.0952 68.5397C60.0952 64.6825 63.2221 61.5556 67.0794 61.5556C70.9366 61.5556 74.0635 64.6825 74.0635 68.5397Z" stroke="url(#paint0_linear_678_9928)" stroke-width="2.5" stroke-linecap="round" stroke-linejoin="round"/>
</g>
<path d="M21.6855 21.4937L33.5586 21.4937M21.6855 29.1762H33.5586M21.6855 38.2556H33.5586" stroke="white" stroke-width="2.5" stroke-linecap="square"/>
<path d="M61.4922 21.4937H73.3652M61.4922 29.8742H73.3652" stroke="white" stroke-width="2.5" stroke-linecap="square"/>
<defs>
<filter id="filter0_d_678_9928" x="8.55952" y="5.95635" width="80.7215" height="89.1033" filterUnits="userSpaceOnUse" color-interpolation-filters="sRGB">
<feFlood flood-opacity="0" result="BackgroundImageFix"/>
<feColorMatrix in="SourceAlpha" type="matrix" values="0 0 0 0 0 0 0 0 0 0 0 0 0 0 0 0 0 0 127 0" result="hardAlpha"/>
<feOffset dx="1.39683" dy="2.79365"/>
<feGaussianBlur stdDeviation="2.79365"/>
<feColorMatrix type="matrix" values="0 0 0 0 0.109804 0 0 0 0 0.129412 0 0 0 0 0.341176 0 0 0 0.2 0"/>
<feBlend mode="normal" in2="BackgroundImageFix" result="effect1_dropShadow_678_9928"/>
<feBlend mode="normal" in="SourceGraphic" in2="effect1_dropShadow_678_9928" result="shape"/>
</filter>
<linearGradient id="paint0_linear_678_9928" x1="71.2698" y1="7.20635" x2="1.08087" y2="94.0928" gradientUnits="userSpaceOnUse">
<stop stop-color="white"/>
<stop offset="0.021" stop-color="white"/>
<stop offset="0.167" stop-color="white"/>
<stop offset="0.808" stop-color="#545D89"/>
<stop offset="1" stop-color="#1C2157"/>
</linearGradient>
</defs>
</svg>
