<svg width="65" height="59" viewBox="0 0 65 59" fill="none" xmlns="http://www.w3.org/2000/svg">
<g clip-path="url(#clip0_1677_10287)" filter="url(#filter0_d_1677_10287)">
<path d="M15.5459 39.1296C15.3327 38.9164 14.9894 38.9164 14.7798 39.1296L12.8105 41.0989C12.507 40.9254 12.1565 40.8243 11.7843 40.8243C10.6425 40.8243 9.71387 41.7529 9.71387 42.8947C9.71387 44.0366 10.6425 44.9652 11.7843 44.9652C12.9262 44.9652 13.8548 44.0366 13.8548 42.8947C13.8548 42.5226 13.7536 42.1721 13.5802 41.8685L15.5495 39.8992C15.7627 39.6861 15.7627 39.3428 15.5495 39.1332L15.5459 39.1296ZM12.7672 42.8947C12.7672 43.4368 12.3264 43.8812 11.7807 43.8812C11.2351 43.8812 10.7943 43.4404 10.7943 42.8947C10.7943 42.3491 11.2351 41.9083 11.7807 41.9083C12.3264 41.9083 12.7672 42.3491 12.7672 42.8947Z" fill="url(#paint0_linear_1677_10287)"/>
<path d="M35.9362 31.4112C35.6363 31.4112 35.3942 31.6533 35.3942 31.9532V36.4411C34.5162 36.6795 33.8657 37.4817 33.8657 38.4356C33.8657 39.5775 34.7944 40.5061 35.9362 40.5061C37.078 40.5061 38.0067 39.5775 38.0067 38.4356C38.0067 37.4817 37.3563 36.6795 36.4782 36.4411V31.9532C36.4782 31.6533 36.2361 31.4112 35.9362 31.4112ZM36.9227 38.4356C36.9227 38.9777 36.4818 39.4221 35.9362 39.4221C35.3906 39.4221 34.9498 38.9813 34.9498 38.4356C34.9498 37.89 35.3906 37.4492 35.9362 37.4492C36.4818 37.4492 36.9227 37.89 36.9227 38.4356Z" fill="url(#paint1_linear_1677_10287)"/>
<path d="M40.6012 42.3671C40.3013 42.3671 40.0592 42.6092 40.0592 42.9091V48.8062C39.1811 49.0447 38.5307 49.8469 38.5307 50.8008C38.5307 51.9426 39.4593 52.8713 40.6012 52.8713C41.743 52.8713 42.6716 51.9426 42.6716 50.8008C42.6716 49.8469 42.0248 49.0447 41.1432 48.8062V42.9091C41.1432 42.6092 40.9011 42.3671 40.6012 42.3671ZM41.5876 50.8008C41.5876 51.3428 41.1468 51.7873 40.6012 51.7873C40.0555 51.7873 39.6147 51.3464 39.6147 50.8008C39.6147 50.2552 40.0555 49.8143 40.6012 49.8143C41.1468 49.8143 41.5876 50.2552 41.5876 50.8008Z" fill="url(#paint2_linear_1677_10287)"/>
<path d="M21.5913 48.81C20.7133 49.0485 20.0629 49.8507 20.0629 50.8046C20.0629 51.9464 20.9915 52.8751 22.1333 52.8751C23.2752 52.8751 24.2038 51.9464 24.2038 50.8046C24.2038 49.8507 23.5534 49.0485 22.6753 48.81V38.6853C22.6753 38.3854 22.4332 38.1433 22.1333 38.1433C21.8334 38.1433 21.5913 38.3854 21.5913 38.6853V48.81ZM23.1198 50.8046C23.1198 51.3466 22.679 51.7911 22.1333 51.7911C21.5877 51.7911 21.1469 51.3502 21.1469 50.8046C21.1469 50.259 21.5877 49.8181 22.1333 49.8181C22.679 49.8181 23.1198 50.259 23.1198 50.8046Z" fill="url(#paint3_linear_1677_10287)"/>
<path d="M22.1328 36.6214C22.4327 36.6214 22.6748 36.3793 22.6748 36.0793V32.3901C22.6748 32.0902 22.4327 31.8481 22.1328 31.8481C21.8329 31.8481 21.5908 32.0902 21.5908 32.3901V36.0793C21.5908 36.3793 21.8329 36.6214 22.1328 36.6214Z" fill="url(#paint4_linear_1677_10287)"/>
<path d="M41.1142 15.2775C40.9154 15.0534 40.5758 15.0281 40.3481 15.2269C40.1241 15.4256 40.1024 15.7653 40.2975 15.9929C40.7239 16.4807 41.1142 17.0083 41.4574 17.5575C41.5586 17.7237 41.7357 17.8141 41.9163 17.8141C42.0139 17.8141 42.1115 17.7888 42.2018 17.731C42.4547 17.572 42.5342 17.2395 42.3752 16.983C42.0031 16.3832 41.5767 15.8086 41.1105 15.2775H41.1142Z" fill="url(#paint5_linear_1677_10287)"/>
<path d="M43.4809 19.2049C43.3725 18.923 43.0617 18.7857 42.7799 18.8905C42.5016 18.9953 42.3607 19.3097 42.4655 19.5915C42.9822 20.9465 43.2424 22.3738 43.2424 23.8264V26.5039H41.1394V23.8264C41.1394 18.4352 36.7527 14.0486 31.3615 14.0486C27.9939 14.0486 24.9044 15.7505 23.0977 18.6014C22.9387 18.8544 23.011 19.1904 23.2639 19.3494C23.5169 19.5084 23.8493 19.4361 24.0119 19.1832C25.6199 16.6466 28.366 15.1362 31.3579 15.1362C36.1529 15.1362 40.0518 19.035 40.0518 23.83V26.5076H36.4709V23.83C36.4709 21.0116 34.1764 18.7207 31.3579 18.7207C28.5395 18.7207 26.2486 21.0116 26.2486 23.83V42.4498C25.3705 42.6883 24.7201 43.4905 24.7201 44.4444C24.7201 45.5863 25.6488 46.5149 26.7906 46.5149C27.9324 46.5149 28.8611 45.5863 28.8611 44.4444C28.8611 43.4905 28.2143 42.6883 27.3326 42.4498V23.83C27.3326 21.6114 29.1393 19.8047 31.3579 19.8047C33.5766 19.8047 35.3869 21.6114 35.3869 23.83V27.0459V29.2429C35.3869 29.5428 35.629 29.7849 35.9289 29.7849C36.2288 29.7849 36.4709 29.5428 36.4709 29.2429V27.5843H40.0518V39.5085C40.0518 39.8085 40.2939 40.0506 40.5938 40.0506C40.8937 40.0506 41.1358 39.8085 41.1358 39.5085V27.5843H43.2388V35.7289C43.2388 35.8735 43.2966 36.0108 43.3978 36.112L49.2298 41.944C49.0058 42.2764 48.8757 42.6739 48.8757 43.1003C48.8757 44.2421 49.8043 45.1707 50.9461 45.1707C52.088 45.1707 53.0166 44.2421 53.0166 43.1003C53.0166 41.9584 52.088 41.0298 50.9461 41.0298C50.6282 41.0298 50.3283 41.1057 50.0573 41.2321L44.3264 35.5013V23.8192C44.3264 22.2329 44.041 20.6791 43.4773 19.2013L43.4809 19.2049ZM51.9362 43.1039C51.9362 43.6459 51.4954 44.0903 50.9498 44.0903C50.4041 44.0903 49.9633 43.6495 49.9633 43.1039C49.9633 42.5583 50.4041 42.1174 50.9498 42.1174C51.4954 42.1174 51.9362 42.5583 51.9362 43.1039ZM27.7843 44.4372C27.7843 44.9792 27.3435 45.4237 26.7978 45.4237C26.2522 45.4237 25.8114 44.9828 25.8114 44.4372C25.8114 43.8916 26.2522 43.4508 26.7978 43.4508C27.3435 43.4508 27.7843 43.8916 27.7843 44.4372Z" fill="url(#paint6_linear_1677_10287)"/>
<path d="M24.576 26.5003H22.6753V23.8228C22.6753 22.9664 22.7982 22.1281 23.0403 21.3259C23.127 21.0405 22.9644 20.7369 22.6789 20.6502C22.3935 20.5635 22.0899 20.7261 22.0032 21.0115C21.7322 21.9113 21.5949 22.858 21.5949 23.8192V26.4967H19.4919V23.8192C19.4919 17.2681 24.8217 11.9383 31.3691 11.9383C34.0141 11.9383 36.5146 12.7875 38.5995 14.3954C38.838 14.5797 39.1777 14.5327 39.3584 14.2979C39.5426 14.0594 39.4957 13.7197 39.2608 13.539C36.9844 11.7866 34.2526 10.8579 31.3691 10.8579C24.2218 10.8579 18.4079 16.6755 18.4079 23.8228V26.5003H15.4268C15.1269 26.5003 14.8848 26.7424 14.8848 27.0423C14.8848 27.3422 15.1269 27.5843 15.4268 27.5843H18.4079V35.5049L16.3302 37.5826C16.117 37.7958 16.117 38.139 16.3302 38.3486C16.435 38.4534 16.5759 38.5076 16.7132 38.5076C16.8505 38.5076 16.9914 38.4534 17.0962 38.3486L19.3329 36.1119C19.4341 36.0107 19.4919 35.8734 19.4919 35.7289V27.5843H21.5949V29.8066C21.5949 30.1065 21.837 30.3486 22.1369 30.3486C22.4368 30.3486 22.6789 30.1065 22.6789 29.8066V27.5843H24.5796C24.8795 27.5843 25.1216 27.3422 25.1216 27.0423C25.1216 26.7424 24.8795 26.5003 24.5796 26.5003H24.576Z" fill="url(#paint7_linear_1677_10287)"/>
<path d="M55.1855 33.2233H51.9045V20.6053C51.9045 20.3777 51.76 20.1717 51.5432 20.0958L48.0237 18.842C47.7094 17.7796 47.2722 16.7318 46.7302 15.7236L48.3381 12.3523C48.4357 12.1464 48.3959 11.897 48.2333 11.7344L43.6768 7.17795C43.5142 7.01534 43.2685 6.97198 43.0589 7.07316L39.6876 8.67751C38.6831 8.1355 37.6389 7.70189 36.5693 7.38391L35.3118 3.86085C35.2359 3.64405 35.03 3.49951 34.8023 3.49951H28.3669C28.1392 3.49951 27.9333 3.64405 27.8574 3.86085L26.5999 7.38391C25.5268 7.7055 24.4825 8.13911 23.4816 8.67751L20.1103 7.07316C19.9043 6.9756 19.6586 7.01534 19.4924 7.17795L14.9359 11.7344C14.7733 11.897 14.7299 12.1427 14.8311 12.3523L16.4355 15.7236C15.8898 16.739 15.4562 17.7833 15.1419 18.842L11.6224 20.0958C11.4056 20.1717 11.2611 20.3777 11.2611 20.6053V33.2233H7.98011C7.74162 32.3452 6.93945 31.6948 5.98551 31.6948C4.84368 31.6948 3.91504 32.6235 3.91504 33.7653C3.91504 34.9071 4.84368 35.8358 5.98551 35.8358C6.93945 35.8358 7.74162 35.1854 7.98011 34.3073H11.8031C12.103 34.3073 12.3451 34.0652 12.3451 33.7653V27.5864H13.3207C13.6206 27.5864 13.8627 27.3443 13.8627 27.0444C13.8627 26.7445 13.6206 26.5024 13.3207 26.5024H12.3451V20.9883L15.767 19.767C15.9332 19.7092 16.0597 19.5719 16.1066 19.4021C16.4282 18.2458 16.9016 17.1039 17.5159 16.0019C17.6026 15.8501 17.6062 15.6622 17.5303 15.5032L15.9693 12.2295L19.9838 8.21499L23.2612 9.77236C23.4201 9.84825 23.608 9.84102 23.7598 9.7543C24.8402 9.14725 25.982 8.67389 27.1564 8.34507C27.3262 8.2981 27.4599 8.17163 27.5213 8.00541L28.7427 4.58353H34.4157L35.637 8.00541C35.6948 8.17163 35.8322 8.2981 36.002 8.34507C37.1691 8.67028 38.3109 9.14725 39.3986 9.7543C39.554 9.84102 39.7382 9.84825 39.8972 9.77236L43.1746 8.21499L47.1891 12.2295L45.6281 15.5032C45.5522 15.6622 45.5594 15.8465 45.6425 16.0019C46.2568 17.0967 46.7302 18.2422 47.0517 19.4021C47.0987 19.5719 47.2252 19.7092 47.3914 19.767L50.8133 20.9883V26.5024H46.5242C46.2243 26.5024 45.9822 26.7445 45.9822 27.0444C45.9822 27.3443 46.2243 27.5864 46.5242 27.5864H50.8133V33.7653C50.8133 34.0652 51.0554 34.3073 51.3553 34.3073H55.1783C55.4168 35.1854 56.2189 35.8358 57.1729 35.8358C58.3147 35.8358 59.2433 34.9071 59.2433 33.7653C59.2433 32.6235 58.3147 31.6948 57.1729 31.6948C56.2189 31.6948 55.4168 32.3452 55.1783 33.2233H55.1855ZM6.96474 33.7653C6.96474 34.3073 6.52391 34.7518 5.97829 34.7518C5.43266 34.7518 4.99183 34.3109 4.99183 33.7653C4.99183 33.2197 5.43266 32.7788 5.97829 32.7788C6.52391 32.7788 6.96474 33.2197 6.96474 33.7653ZM58.1629 33.7653C58.1629 34.3073 57.7221 34.7518 57.1765 34.7518C56.6309 34.7518 56.19 34.3109 56.19 33.7653C56.19 33.2197 56.6309 32.7788 57.1765 32.7788C57.7221 32.7788 58.1629 33.2197 58.1629 33.7653Z" fill="url(#paint8_linear_1677_10287)"/>
<path d="M3.91292 33.6305C3.91292 32.3496 4.95136 31.3111 6.23234 31.3111C7.51332 31.3111 8.55176 32.3496 8.55176 33.6305C8.55176 34.9115 7.51332 35.95 6.23234 35.95C4.95136 35.95 3.91292 34.9115 3.91292 33.6305Z" fill="#C6C9D8"/>
<path d="M9.13167 42.9091C9.13167 41.6281 10.1701 40.5897 11.4511 40.5897C12.7321 40.5897 13.7705 41.6281 13.7705 42.9091C13.7705 44.1901 12.7321 45.2285 11.4511 45.2285C10.1701 45.2285 9.13167 44.1901 9.13167 42.9091Z" fill="white"/>
<path d="M48.5614 42.9091C48.5614 41.6281 49.5998 40.5897 50.8808 40.5897C52.1618 40.5897 53.2002 41.6281 53.2002 42.9091C53.2002 44.1901 52.1618 45.2285 50.8808 45.2285C49.5998 45.2285 48.5614 44.1901 48.5614 42.9091Z" fill="white"/>
<path d="M19.5692 50.4457C19.5692 49.1647 20.6076 48.1263 21.8886 48.1263C23.1696 48.1263 24.208 49.1647 24.208 50.4457C24.208 51.7267 23.1696 52.7651 21.8886 52.7651C20.6076 52.7651 19.5692 51.7267 19.5692 50.4457Z" fill="#C6C9D8"/>
<path d="M24.2078 44.0683C24.2078 42.7873 25.2463 41.7489 26.5273 41.7489C27.8082 41.7489 28.8467 42.7873 28.8467 44.0683C28.8467 45.3493 27.8082 46.3877 26.5273 46.3877C25.2463 46.3877 24.2078 45.3493 24.2078 44.0683Z" fill="white"/>
<path d="M33.4852 38.2698C33.4852 36.9888 34.5236 35.9504 35.8046 35.9504C37.0856 35.9504 38.124 36.9888 38.124 38.2698C38.124 39.5508 37.0856 40.5892 35.8046 40.5892C34.5236 40.5892 33.4852 39.5508 33.4852 38.2698Z" fill="white"/>
<path d="M38.1239 50.4457C38.1239 49.1647 39.1623 48.1263 40.4433 48.1263C41.7243 48.1263 42.7627 49.1647 42.7627 50.4457C42.7627 51.7267 41.7243 52.7651 40.4433 52.7651C39.1623 52.7651 38.1239 51.7267 38.1239 50.4457Z" fill="#C6C9D8"/>
<path d="M54.3602 33.6305C54.3602 32.3496 55.3986 31.3111 56.6796 31.3111C57.9606 31.3111 58.999 32.3496 58.999 33.6305C58.999 34.9115 57.9606 35.95 56.6796 35.95C55.3986 35.95 54.3602 34.9115 54.3602 33.6305Z" fill="#C6C9D8"/>
</g>
<defs>
<filter id="filter0_d_1677_10287" x="0.333008" y="-2" width="64" height="64" filterUnits="userSpaceOnUse" color-interpolation-filters="sRGB">
<feFlood flood-opacity="0" result="BackgroundImageFix"/>
<feColorMatrix in="SourceAlpha" type="matrix" values="0 0 0 0 0 0 0 0 0 0 0 0 0 0 0 0 0 0 127 0" result="hardAlpha"/>
<feOffset dx="1" dy="2"/>
<feGaussianBlur stdDeviation="2"/>
<feColorMatrix type="matrix" values="0 0 0 0 0.109804 0 0 0 0 0.129412 0 0 0 0 0.341176 0 0 0 0.2 0"/>
<feBlend mode="normal" in2="BackgroundImageFix" result="effect1_dropShadow_1677_10287"/>
<feBlend mode="normal" in="SourceGraphic" in2="effect1_dropShadow_1677_10287" result="shape"/>
</filter>
<linearGradient id="paint0_linear_1677_10287" x1="31.3325" y1="9.91683" x2="31.9333" y2="56.284" gradientUnits="userSpaceOnUse">
<stop stop-color="white"/>
<stop offset="0.021" stop-color="white"/>
<stop offset="0.167" stop-color="white"/>
<stop offset="0.808" stop-color="#545D89"/>
<stop offset="1" stop-color="#1C2157"/>
</linearGradient>
<linearGradient id="paint1_linear_1677_10287" x1="31.3325" y1="9.91683" x2="31.9333" y2="56.284" gradientUnits="userSpaceOnUse">
<stop stop-color="white"/>
<stop offset="0.021" stop-color="white"/>
<stop offset="0.167" stop-color="white"/>
<stop offset="0.808" stop-color="#545D89"/>
<stop offset="1" stop-color="#1C2157"/>
</linearGradient>
<linearGradient id="paint2_linear_1677_10287" x1="31.3325" y1="9.91683" x2="31.9333" y2="56.284" gradientUnits="userSpaceOnUse">
<stop stop-color="white"/>
<stop offset="0.021" stop-color="white"/>
<stop offset="0.167" stop-color="white"/>
<stop offset="0.808" stop-color="#545D89"/>
<stop offset="1" stop-color="#1C2157"/>
</linearGradient>
<linearGradient id="paint3_linear_1677_10287" x1="31.3325" y1="9.91683" x2="31.9333" y2="56.284" gradientUnits="userSpaceOnUse">
<stop stop-color="white"/>
<stop offset="0.021" stop-color="white"/>
<stop offset="0.167" stop-color="white"/>
<stop offset="0.808" stop-color="#545D89"/>
<stop offset="1" stop-color="#1C2157"/>
</linearGradient>
<linearGradient id="paint4_linear_1677_10287" x1="31.3325" y1="9.91683" x2="31.9333" y2="56.284" gradientUnits="userSpaceOnUse">
<stop stop-color="white"/>
<stop offset="0.021" stop-color="white"/>
<stop offset="0.167" stop-color="white"/>
<stop offset="0.808" stop-color="#545D89"/>
<stop offset="1" stop-color="#1C2157"/>
</linearGradient>
<linearGradient id="paint5_linear_1677_10287" x1="31.3325" y1="9.91683" x2="31.9333" y2="56.284" gradientUnits="userSpaceOnUse">
<stop stop-color="white"/>
<stop offset="0.021" stop-color="white"/>
<stop offset="0.167" stop-color="white"/>
<stop offset="0.808" stop-color="#545D89"/>
<stop offset="1" stop-color="#1C2157"/>
</linearGradient>
<linearGradient id="paint6_linear_1677_10287" x1="31.3325" y1="9.91683" x2="31.9333" y2="56.284" gradientUnits="userSpaceOnUse">
<stop stop-color="white"/>
<stop offset="0.021" stop-color="white"/>
<stop offset="0.167" stop-color="white"/>
<stop offset="0.808" stop-color="#545D89"/>
<stop offset="1" stop-color="#1C2157"/>
</linearGradient>
<linearGradient id="paint7_linear_1677_10287" x1="31.3325" y1="9.91683" x2="31.9333" y2="56.284" gradientUnits="userSpaceOnUse">
<stop stop-color="white"/>
<stop offset="0.021" stop-color="white"/>
<stop offset="0.167" stop-color="white"/>
<stop offset="0.808" stop-color="#545D89"/>
<stop offset="1" stop-color="#1C2157"/>
</linearGradient>
<linearGradient id="paint8_linear_1677_10287" x1="31.3317" y1="1.45785" x2="32.9985" y2="36.9629" gradientUnits="userSpaceOnUse">
<stop stop-color="white"/>
<stop offset="0.021" stop-color="white"/>
<stop offset="0.167" stop-color="white"/>
<stop offset="0.808" stop-color="#545D89"/>
<stop offset="1" stop-color="#1C2157"/>
</linearGradient>
<clipPath id="clip0_1677_10287">
<rect width="56" height="56" fill="white" transform="translate(3.33301)"/>
</clipPath>
</defs>
</svg>
