<?xml version="1.0" encoding="UTF-8"?>
<svg id="Layer_2" data-name="Layer 2" xmlns="http://www.w3.org/2000/svg" viewBox="0 0 2190.12 418.68">
  <defs>
    <style>
      .cls-1 {
        fill: #0acdff;
      }

      .cls-2 {
        fill: #fcb614;
      }
    </style>
  </defs>
  <g id="Layer_1-2" data-name="Layer 1">
    <g>
      <g>
        <path class="cls-2" d="m126.15,268.79h0l-2.9-7.35c-11.53-29.21-27.76-55.78-48.21-79.12C54,158.28,28.33,137.95,0,122.72v151.3c0,6.99,4.45,13.19,11.02,15.33,33.11,10.75,64.36,26.06,93.23,45.75,31.59,21.5,59.36,47.5,82.92,77.55,6.3,8.04,18.49,8.04,24.79,0,23.56-30.05,51.33-56.05,82.92-77.55,28.86-19.7,60.12-35,93.23-45.75,6.57-2.13,11.02-8.33,11.02-15.33V122.72c-28.34,15.22-54,35.56-75.04,59.61-20.45,23.34-36.68,49.91-48.21,79.12l-2.9,7.35h0c-29.74,0-57.25,15.93-71.9,41.81-.29.51-.57,1.02-.86,1.52-.02.03-.07.03-.09,0-.08-.15-.17-.3-.25-.45-14.96-26.58-43.24-42.88-73.74-42.88Z"/>
        <path class="cls-1" d="m305.08,163.72c28.8-25.58,60.38-47.46,94.04-65.28V16.13c0-11.43-11.41-19.24-21.85-14.93-24.45,10.09-47.7,23.09-69.47,38.89-39.75,28.83-73.13,65.72-99.14,109.68-4.25,7.16-13.94,7.16-18.19,0-26.02-43.96-59.39-80.85-99.14-109.68C69.55,24.29,46.3,11.29,21.85,1.2,11.41-3.1,0,4.7,0,16.13v82.3c33.67,17.82,65.25,39.71,94.04,65.28,29.34,26.05,55.45,55.68,78.22,88.4h26.68s27.91,0,27.91,0c22.78-32.72,48.88-62.35,78.22-88.4Z"/>
      </g>
      <g>
        <path d="m633.41,184.09c-10.62-20.72-19.87-33.78-36.08-41.26,12.28-7.84,21.57-19.32,30.51-37.21l38.44-76.15h-52.85l-35.17,68.99c-11.15,21.72-15.2,24.84-52.31,24.84h-16.32V29.48h-48.71v231.44h48.71v-92.51h16.32c41.76,0,46.52,3.35,57.23,24.19l35.19,68.32h54.55l-39.5-76.83Z"/>
        <path d="m872.18,57.3c-8.25-21.67-24.33-31.76-50.6-31.76s-42.65,10.07-51.24,31.71l-80.45,203.67h53.4l71.42-181.21c1.45-3.26,3.23-4.47,6.54-4.47s4.97,1.17,6.15,4.31l68.47,181.37h53.68l-77.38-203.62Z"/>
        <polygon points="910.52 29.48 910.52 78.19 975.15 78.19 975.15 260.92 1024.19 260.92 1024.19 78.19 1088.82 78.19 1088.82 29.48 910.52 29.48"/>
        <path d="m1226.18,57.3c-8.25-21.67-24.33-31.76-50.6-31.76s-42.65,10.07-51.24,31.71l-80.45,203.67h53.4l71.42-181.21c1.45-3.26,3.23-4.47,6.54-4.47s4.97,1.17,6.15,4.31l68.47,181.37h53.68l-77.38-203.62Z"/>
        <path d="m1395.6,212.21c-36.1,0-40.27-18.87-40.27-33.05V29.48h-48.71v150c0,52.52,30.79,81.44,86.69,81.44h93.25v-48.71h-90.95Z"/>
        <polygon points="1601.16 29.48 1541.21 120.18 1481.89 29.48 1422.6 29.48 1516.51 162.04 1516.51 260.92 1565.55 260.92 1565.55 162.04 1659.45 29.48 1601.16 29.48"/>
        <path d="m1861.09,25.54v180.19c0,6.17-4.42,7.47-8.12,7.47-4.42,0-7.38-1.96-9.6-6.35l-64.51-141.13c-7.97-21.84-21.18-44.11-58.43-44.11-18.05,0-32.14,4.97-41.89,14.76-9.13,9.18-13.96,22.48-13.96,38.47v182.15h48.71V76.8c0-5.39,2.61-7.79,8.45-7.79,4.74,0,6.98,1.6,9.23,6.59l64.55,141.22c7.51,20.58,21.01,44.11,58.76,44.11,34.97,0,55.85-20.02,55.85-53.55V25.54h-49.04Z"/>
        <polygon points="2090.45 143.43 2189.65 29.48 2128.49 29.48 2059.67 108.45 1994.01 29.48 1933.63 29.48 2027.74 140.42 1924.36 260.92 1985.44 260.92 2058.54 175.73 2129.74 260.92 2190.12 260.92 2090.45 143.43"/>
      </g>
    </g>
  </g>
</svg>