<?xml version="1.0" encoding="UTF-8"?>
<svg id="Layer_2" data-name="Layer 2" xmlns="http://www.w3.org/2000/svg" viewBox="0 0 399.12 418.68">
  <defs>
    <style>
      .cls-1 {
        fill: #0acdff;
      }

      .cls-2 {
        fill: #fcb614;
      }
    </style>
  </defs>
  <g id="Layer_1-2" data-name="Layer 1">
    <g>
      <path class="cls-2" d="m126.15,268.79h0l-2.9-7.35c-11.53-29.21-27.76-55.78-48.21-79.12C54,158.28,28.33,137.95,0,122.72v151.3c0,6.99,4.45,13.19,11.02,15.33,33.11,10.75,64.36,26.06,93.23,45.75,31.59,21.5,59.36,47.5,82.92,77.55,6.3,8.04,18.49,8.04,24.79,0,23.56-30.05,51.33-56.05,82.92-77.55,28.86-19.7,60.12-35,93.23-45.75,6.57-2.13,11.02-8.33,11.02-15.33V122.72c-28.34,15.22-54,35.56-75.04,59.61-20.45,23.34-36.68,49.91-48.21,79.12l-2.9,7.35h0c-29.74,0-57.25,15.93-71.9,41.81-.29.51-.57,1.02-.86,1.52-.02.03-.07.03-.09,0-.08-.15-.17-.3-.25-.45-14.96-26.58-43.24-42.88-73.74-42.88Z"/>
      <path class="cls-1" d="m305.08,163.72c28.8-25.58,60.38-47.46,94.04-65.28V16.13c0-11.43-11.41-19.24-21.85-14.93-24.45,10.09-47.7,23.09-69.47,38.89-39.75,28.83-73.13,65.72-99.14,109.68-4.25,7.16-13.94,7.16-18.19,0-26.02-43.96-59.39-80.85-99.14-109.68C69.55,24.29,46.3,11.29,21.85,1.2,11.41-3.1,0,4.7,0,16.13v82.3c33.67,17.82,65.25,39.71,94.04,65.28,29.34,26.05,55.45,55.68,78.22,88.4h26.68s27.91,0,27.91,0c22.78-32.72,48.88-62.35,78.22-88.4Z"/>
    </g>
  </g>
</svg>