<?xml version="1.0" encoding="utf-8"?>
<!-- Generator: Adobe Illustrator 18.0.0, SVG Export Plug-In . SVG Version: 6.00 Build 0)  -->
<!DOCTYPE svg PUBLIC "-//W3C//DTD SVG 1.1//EN" "http://www.w3.org/Graphics/SVG/1.1/DTD/svg11.dtd">
<svg version="1.1" id="Ebene_1" xmlns="http://www.w3.org/2000/svg" xmlns:xlink="http://www.w3.org/1999/xlink" x="0px" y="0px"
	 viewBox="0 0 200 50" enable-background="new 0 0 200 50" xml:space="preserve">
<g>
	<path fill="#FFFFFF" d="M198.6,27.8h-4l-4,6.9l-4-6.9h-4l6.1,10.3v7h3.8v-7L198.6,27.8z M176.5,27.8v10.6l-7.6-10.6h-3.4v17.4h3.7
		V34.3l7.9,10.8h3.1V27.8H176.5z M154.8,32.4l2.3,6.2h-4.6L154.8,32.4z M159.5,45.1h4.1l-7-17.4H153l-6.8,17.4h4l1.2-3.3h6.9
		L159.5,45.1z M140.1,36.2h-2.8v-5h2.8c1.5,0,2.5,1,2.5,2.5S141.6,36.2,140.1,36.2 M140.3,27.8h-6.7v17.4h3.8v-5.4h2.9
		c3.5,0,6.1-2.5,6.1-6C146.4,30.3,143.8,27.8,140.3,27.8 M130.2,45.1l-2.7-17.4h-3.8L119,38.4l-4.7-10.6h-3.8l-2.7,17.4h3.8
		l1.7-11.3l5.2,11.3h0.9l5.2-11.3l1.7,11.3H130.2z M96.7,42c-3.1,0-5.5-2.4-5.5-5.5c0-3.1,2.4-5.5,5.5-5.5c3.1,0,5.4,2.4,5.4,5.5
		S99.8,42,96.7,42 M96.7,45.5c5.3,0,9.2-3.9,9.2-9.1s-3.9-9.1-9.2-9.1c-5.3,0-9.3,3.9-9.3,9.1C87.4,41.6,91.4,45.5,96.7,45.5z"/>
	<path fill="#FFFFFF" d="M85.5,27.9h-4.7c-5.1,0-8.8,3.6-8.8,8.7c0,5,3.7,8.7,8.8,8.7h4.7v-3.5h-4.6c-3,0-5-2.2-5-5.2
		c0-3.1,2.1-5.2,5-5.2h4.6V27.9z"/>
	<path fill="#FFFFFF" d="M158.5,21.7c3.6,0,6.6-1.8,6.6-5.6c0-3.9-3.3-4.7-6-5.4c-1.8-0.4-3.3-0.8-3.3-2c0-1.1,1.2-1.7,2.4-1.7
		c1.4,0,2.6,0.7,2.6,2.2h3.7c0-3.5-2.3-5.6-6.3-5.6c-3.8,0-6.3,1.9-6.3,5.2c0,3.7,3.2,4.5,5.8,5.1c1.9,0.4,3.5,0.8,3.5,2.2
		c0,1.3-1.4,2-2.8,2c-1.5,0-2.9-0.8-2.9-2.5h-3.8C151.8,19.5,154.5,21.7,158.5,21.7 M149.3,21.3l-6.5-9l5.9-8.3h-4.4l-5.7,8V4h-3.8
		v17.4h3.8v-8.5l6.1,8.5H149.3z M120.7,7.5h3c1.6,0,2.5,0.9,2.5,2.2c0,1.3-0.9,2.2-2.5,2.2h-3V7.5z M126.5,21.3h4.2l-3.8-6.6
		c1.9-0.9,3.2-2.8,3.2-5.1c0-3.3-2.6-5.7-6.1-5.7h-7v17.4h3.8v-5.9h2.4L126.5,21.3z M105.1,17.9v-3.6h6v-3.4h-6V7.5h6.7V4h-10.4
		v17.4H112v-3.5H105.1z M92.4,21.3h3.8V4h-3.8V21.3z M79.7,17.9H77V7.5h2.7c3,0,5.1,2.1,5.1,5.2C84.7,15.7,82.7,17.9,79.7,17.9
		 M79.8,4h-6.6v17.4h6.6c5.1,0,8.8-3.7,8.8-8.7C88.6,7.6,84.9,4,79.8,4"/>
</g>
<polygon fill="#FFFFFF" points="184.3,11.4 180.1,11.4 180.1,7.2 176.6,7.2 176.6,11.4 172.5,11.4 172.5,14.7 176.6,14.7 
	176.6,19.1 180.1,19.1 180.1,14.7 184.3,14.7 "/>
<g>
	<path fill="#F3FF00" d="M37.3,24.6C37.3,17.7,43,12,49.9,12l11.6,0V3.9H49.9c-6.8,0-12.9,3.3-16.7,8.4C35.8,15.8,37.3,20,37.3,24.6
		"/>
	<path fill="#F3FF00" d="M37.3,24.6c0,6.9,5.6,12.6,12.6,12.6l11.6,0v8.1H49.9c-6.8,0-12.9-3.3-16.7-8.4
		C35.8,33.4,37.3,29.2,37.3,24.6"/>
	<path fill="#C6D8F1" d="M29.2,24.6c0-4.6,1.5-8.8,4-12.2c-3.8-5.1-9.8-8.4-16.7-8.4H5V12l11.6,0C23.5,12,29.2,17.7,29.2,24.6"/>
	<path fill="#C6D8F1" d="M29.2,24.6c0,4.6,1.5,8.8,4,12.2c-3.8,5.1-9.8,8.4-16.7,8.4H5v-8.1l11.6,0C23.5,37.2,29.2,31.5,29.2,24.6"
		/>
</g>
</svg>
