<svg width="96" height="96" viewBox="0 0 96 96" fill="none" xmlns="http://www.w3.org/2000/svg">
<g filter="url(#filter0_d_689_5648)">
<path d="M71.5812 76.9473L65.0491 72.5335C64.9293 72.4562 64.6567 72.3451 64.449 72.3438L18.5335 72.0574C17.9322 72.0536 17.4372 72.5425 17.4334 73.1438C17.4297 73.7451 17.9185 74.2401 18.5198 74.2438L21.7995 74.2643L21.7586 80.8237L16.2924 80.7896C15.6912 80.7858 15.2023 80.2908 15.206 79.6895L15.588 18.4688C15.5992 16.665 17.0843 15.1984 18.8881 15.2096L64.8036 15.4961C64.8036 15.4961 64.7484 15.5832 64.7153 15.6267C64.6492 15.7137 64.5939 15.8118 64.5386 15.9099C64.4282 16.095 64.3177 16.2802 64.229 16.4764C64.1737 16.5854 64.1293 16.6835 64.0848 16.8035C63.9961 17.0107 63.9401 17.229 63.873 17.4581C63.8506 17.5564 63.8171 17.6546 63.7946 17.7638C63.727 18.0913 63.692 18.43 63.6899 18.7799L63.6012 32.9918C63.5975 33.5931 64.0863 34.0881 64.6876 34.0919C65.2889 34.0956 65.7839 33.6067 65.7877 33.0054L65.8149 28.6325L73.4675 28.6803C74.0688 28.684 74.5638 28.1952 74.5676 27.5939L74.6221 18.8481C74.641 15.8308 72.2074 13.3667 69.1901 13.3478L18.9017 13.0341C15.8844 13.0153 13.4203 15.4488 13.4014 18.4661L13.0195 79.6868C13.0083 81.4906 14.4749 82.9757 16.2787 82.987L64.3807 83.287C64.5884 83.2883 64.8623 83.1916 64.9831 83.1049L71.5698 78.7729C71.8772 78.5671 72.0651 78.2294 72.0674 77.8687C72.0696 77.5079 71.886 77.1569 71.5811 76.9582L71.5812 76.9473ZM72.4357 18.8235L72.388 26.4761L65.8286 26.4351L65.8764 18.7826C65.8876 16.9787 67.3727 15.5121 69.1765 15.5233C70.9804 15.5346 72.447 17.0197 72.4357 18.8235ZM63.3421 74.5235L63.3285 76.7099L23.9723 76.4644L23.9859 74.2779L63.3421 74.5235ZM23.9587 78.6509L63.3148 78.8964L63.3012 81.0828L23.945 80.8373L23.9587 78.6509ZM65.4936 80.1454L65.5226 75.4882L69.0064 77.8386L65.4936 80.1454Z" fill="url(#paint0_linear_689_5648)"/>
<path d="M65.5617 69.0708L65.6503 54.8588C65.6541 54.2575 65.1652 53.7625 64.5639 53.7588C63.9627 53.755 63.4676 54.2439 63.4639 54.8452L63.3752 69.0571C63.3715 69.6584 63.8604 70.1534 64.4616 70.1572C65.0629 70.1609 65.5579 69.672 65.5617 69.0708Z" fill="url(#paint1_linear_689_5648)"/>
<path d="M78.0833 49.4963L65.6849 49.394L65.7531 38.4617L85.1515 38.564C85.7528 38.5678 86.2478 38.0789 86.2515 37.4776C86.2553 36.8763 85.7664 36.3813 85.1651 36.3776L64.6735 36.2684C64.0722 36.2647 63.5772 36.7536 63.5735 37.3549L63.5666 38.4481L59.5326 38.4229C57.1824 29.6074 49.1659 23.0525 39.6111 22.9929C28.1541 22.9214 18.7817 32.1776 18.7103 43.6346C18.6388 55.0916 27.895 64.464 39.352 64.5355C48.9068 64.5951 57.0044 58.1406 59.4644 49.3552L63.4984 49.3803L63.4916 50.4736C63.4879 51.0748 63.9768 51.5699 64.578 51.5736L78.0697 51.6827C78.6709 51.6865 79.166 51.1976 79.1697 50.5963C79.1735 49.9951 78.6846 49.5 78.0833 49.4963ZM39.3656 62.349C29.1221 62.2851 20.8328 53.8918 20.8967 43.6482C20.9606 33.4047 29.354 25.1154 39.5975 25.1793C49.841 25.2432 58.1297 33.735 58.0664 43.8801C58.0031 54.0253 49.6529 62.4132 39.3656 62.349ZM59.97 47.1718C60.1064 46.3418 60.2462 44.9651 60.2529 43.8938C60.2596 42.8224 60.1372 41.4004 60.0109 40.6124L63.553 40.6345L63.5121 47.1939L59.97 47.1718Z" fill="url(#paint2_linear_689_5648)"/>
<path fill-rule="evenodd" clip-rule="evenodd" d="M21.8912 43.492C21.9514 33.8497 29.8497 26.0493 39.492 26.1095C49.1342 26.1696 56.9341 34.1554 56.8745 43.7102C56.8149 53.265 48.8941 61.1527 39.2737 61.0927C29.6533 61.0327 21.8311 53.1342 21.8912 43.492ZM39.5003 59.0003C48.0608 59.0003 55.0004 52.0608 55.0004 43.5003C55.0004 34.9399 48.0608 28.0003 39.5003 28.0003C30.9399 28.0003 24.0003 34.9399 24.0003 43.5003C24.0003 52.0608 30.9399 59.0003 39.5003 59.0003Z" fill="url(#paint3_linear_689_5648)"/>
<path d="M32 43.3137L36.9315 49L47 39" stroke="white" stroke-width="2.5" stroke-linecap="round" stroke-linejoin="round"/>
<path d="M84.3202 39.5798C83.039 38.166 83.1464 35.9813 84.5602 34.7001C85.974 33.4189 88.1587 33.5263 89.4399 34.9401C90.7211 36.3539 90.6137 38.5386 89.1999 39.8198C87.7861 41.101 85.6014 40.9936 84.3202 39.5798Z" fill="white"/>
</g>
<defs>
<filter id="filter0_d_689_5648" x="-3" y="-2" width="104" height="104" filterUnits="userSpaceOnUse" color-interpolation-filters="sRGB">
<feFlood flood-opacity="0" result="BackgroundImageFix"/>
<feColorMatrix in="SourceAlpha" type="matrix" values="0 0 0 0 0 0 0 0 0 0 0 0 0 0 0 0 0 0 127 0" result="hardAlpha"/>
<feOffset dx="1" dy="2"/>
<feGaussianBlur stdDeviation="2"/>
<feColorMatrix type="matrix" values="0 0 0 0 0.109804 0 0 0 0 0.129412 0 0 0 0 0.341176 0 0 0 0.2 0"/>
<feBlend mode="normal" in2="BackgroundImageFix" result="effect1_dropShadow_689_5648"/>
<feBlend mode="normal" in="SourceGraphic" in2="effect1_dropShadow_689_5648" result="shape"/>
</filter>
<linearGradient id="paint0_linear_689_5648" x1="59.5" y1="7.5" x2="-8.93356" y2="78.8498" gradientUnits="userSpaceOnUse">
<stop stop-color="white"/>
<stop offset="0.021" stop-color="white"/>
<stop offset="0.167" stop-color="white"/>
<stop offset="0.808" stop-color="#545D89"/>
<stop offset="1" stop-color="#1C2157"/>
</linearGradient>
<linearGradient id="paint1_linear_689_5648" x1="59.5" y1="7.5" x2="-8.93356" y2="78.8498" gradientUnits="userSpaceOnUse">
<stop stop-color="white"/>
<stop offset="0.021" stop-color="white"/>
<stop offset="0.167" stop-color="white"/>
<stop offset="0.808" stop-color="#545D89"/>
<stop offset="1" stop-color="#1C2157"/>
</linearGradient>
<linearGradient id="paint2_linear_689_5648" x1="33" y1="49" x2="106.404" y2="46.58" gradientUnits="userSpaceOnUse">
<stop stop-color="white"/>
<stop offset="0.021" stop-color="white"/>
<stop offset="0.167" stop-color="white"/>
<stop offset="0.808" stop-color="#545D89"/>
<stop offset="1" stop-color="#1C2157"/>
</linearGradient>
<linearGradient id="paint3_linear_689_5648" x1="33" y1="49" x2="106.404" y2="46.58" gradientUnits="userSpaceOnUse">
<stop stop-color="white"/>
<stop offset="0.021" stop-color="white"/>
<stop offset="0.167" stop-color="white"/>
<stop offset="0.808" stop-color="#545D89"/>
<stop offset="1" stop-color="#1C2157"/>
</linearGradient>
</defs>
</svg>
