<svg width="57" height="56" viewBox="0 0 57 56" fill="none" xmlns="http://www.w3.org/2000/svg">
<g clip-path="url(#clip0_1677_10254)">
<g filter="url(#filter0_d_1677_10254)">
<path d="M48.6014 33.3464C48.3421 33.3464 48.1329 33.1371 48.1329 32.8779V29.8613V25.6781H10.0552V36.805C10.0552 37.0643 9.84592 37.2735 9.58668 37.2735C9.32743 37.2735 9.11816 37.0643 9.11816 36.805V25.2095C9.11816 24.9503 9.32743 24.741 9.58668 24.741H48.6045C48.8637 24.741 49.073 24.9503 49.073 25.2095V32.8779C49.073 33.1371 48.8637 33.3464 48.6045 33.3464H48.6014Z" fill="url(#paint0_linear_1677_10254)"/>
<path d="M29.0922 44.7538C28.833 44.7538 28.6237 44.5445 28.6237 44.2853V16.8702C28.6237 16.611 28.833 16.4017 29.0922 16.4017C29.3515 16.4017 29.5607 16.611 29.5607 16.8702V44.2853C29.5607 44.5445 29.3515 44.7538 29.0922 44.7538Z" fill="url(#paint1_linear_1677_10254)"/>
<path d="M26.9173 9.33329C26.9173 8.04463 27.962 6.99996 29.2507 6.99996C30.5393 6.99996 31.584 8.04463 31.584 9.33329C31.584 10.622 30.5393 11.6666 29.2507 11.6666C27.962 11.6666 26.9173 10.622 26.9173 9.33329Z" fill="white"/>
<path d="M28.9995 17.339C23.774 17.339 18.7797 14.9152 15.2908 10.6892C14.7442 10.0271 14.7442 9.06506 15.2908 8.39977C18.7797 4.17378 23.7772 1.75 28.9995 1.75C31.9543 1.75 34.8934 2.52773 37.4952 4.00199C37.7201 4.13005 37.8013 4.41428 37.6733 4.63917C37.5452 4.86405 37.261 4.94214 37.0361 4.8172C34.5373 3.40541 31.8356 2.68703 28.9995 2.68703C24.0551 2.68703 19.3231 4.98587 16.0123 8.99634C15.75 9.31493 15.75 9.77408 16.0123 10.0927C19.3231 14.1 24.0551 16.402 28.9995 16.402C33.9439 16.402 38.6759 14.1031 41.9867 10.0927C42.2491 9.77408 42.2491 9.31493 41.9867 8.99634C41.2527 8.10929 40.4406 7.29095 39.5661 6.56632C39.3662 6.40078 39.338 6.10718 39.5036 5.90728C39.6691 5.70738 39.9627 5.67927 40.1626 5.84481C41.0809 6.60692 41.9367 7.46587 42.7082 8.39977C43.2548 9.06193 43.2548 10.0239 42.7082 10.6892C39.2194 14.9152 34.2219 17.339 28.9995 17.339Z" fill="url(#paint2_linear_1677_10254)"/>
<path d="M28.9206 17.3389C24.6228 17.3389 21.1277 13.8438 21.1277 9.54599C21.1277 5.24816 24.6228 1.75305 28.9206 1.75305C33.2185 1.75305 36.7136 5.24816 36.7136 9.54599C36.7136 13.8438 33.2185 17.3389 28.9206 17.3389ZM28.9206 2.69008C25.1413 2.69008 22.0647 5.76665 22.0647 9.54599C22.0647 13.3253 25.1413 16.4019 28.9206 16.4019C32.7 16.4019 35.7766 13.3253 35.7766 9.54599C35.7766 5.76665 32.7 2.69008 28.9206 2.69008Z" fill="url(#paint3_linear_1677_10254)"/>
<path d="M35.0204 54.6962H22.5267C22.2674 54.6962 22.0582 54.4869 22.0582 54.2277C22.0582 53.9685 22.2674 53.7592 22.5267 53.7592C22.6516 53.7592 22.7672 53.7123 22.8546 53.6249C22.939 53.5374 22.9889 53.4219 22.9889 53.2969V46.6596C22.9889 46.0443 23.4887 45.5446 24.104 45.5446H35.0204C35.6357 45.5446 36.1354 46.0443 36.1354 46.6596V53.5811C36.1354 54.1965 35.6357 54.6962 35.0204 54.6962ZM23.8479 53.7592H35.0204C35.1172 53.7592 35.1984 53.6811 35.1984 53.5811V46.6596C35.1984 46.5628 35.1203 46.4816 35.0204 46.4816H24.104C24.0072 46.4816 23.926 46.5597 23.926 46.6596V53.2969C23.926 53.4562 23.901 53.6124 23.8479 53.7592Z" fill="url(#paint4_linear_1677_10254)"/>
<path fill-rule="evenodd" clip-rule="evenodd" d="M22.5267 54.6962L33.6584 54.6959C34.2129 54.6959 34.6736 54.29 34.7592 53.7594H31.0502L22.5267 53.7592C22.2737 53.7592 22.0643 53.5528 22.0643 53.2966V43.9639C22.0643 43.8639 22.1455 43.7858 22.2423 43.7858H26.7182C26.7556 43.7858 26.7931 43.7983 26.8244 43.8202L28.2611 44.8978C28.4517 45.0414 28.689 45.1195 28.9295 45.1195H33.6584C33.7584 45.1195 33.8364 45.2007 33.8364 45.2976V45.9509H34.7735V45.2976C34.7735 44.6822 34.2737 44.1825 33.6584 44.1825H28.9295C28.8921 44.1825 28.8546 44.17 28.8233 44.1481L27.3866 43.0706C27.196 42.9269 26.9587 42.8488 26.7182 42.8488H22.2423C21.627 42.8488 21.1272 43.3485 21.1272 43.9639V53.2966C21.1272 54.0681 21.7552 54.6962 22.5267 54.6962Z" fill="url(#paint5_linear_1677_10254)"/>
<path d="M27.1524 48.2086H25.1846C24.9254 48.2086 24.7161 47.9994 24.7161 47.7401C24.7161 47.4809 24.9254 47.2716 25.1846 47.2716H27.1524C27.4116 47.2716 27.6209 47.4809 27.6209 47.7401C27.6209 47.9994 27.4116 48.2086 27.1524 48.2086Z" fill="url(#paint6_linear_1677_10254)"/>
<path d="M15.7271 47.1129H3.23342C2.97418 47.1129 2.76491 46.9036 2.76491 46.6444C2.76491 46.3851 2.97418 46.1758 3.23342 46.1758C3.35836 46.1758 3.47393 46.129 3.56139 46.0415C3.64572 45.9541 3.69569 45.8385 3.69569 45.7136V39.0763C3.69569 38.461 4.19544 37.9612 4.81075 37.9612H15.7271C16.3424 37.9612 16.8422 38.461 16.8422 39.0763V45.9978C16.8422 46.6131 16.3424 47.1129 15.7271 47.1129ZM4.55463 46.1758H15.7271C15.8239 46.1758 15.9052 46.0978 15.9052 45.9978V39.0763C15.9052 38.9795 15.8271 38.8983 15.7271 38.8983H4.81075C4.71393 38.8983 4.63272 38.9764 4.63272 39.0763V45.7136C4.63272 45.8729 4.60773 46.029 4.55463 46.1758Z" fill="url(#paint7_linear_1677_10254)"/>
<path fill-rule="evenodd" clip-rule="evenodd" d="M3.23342 47.1129L14.3652 47.1126C14.9197 47.1126 15.3804 46.7067 15.466 46.1761H11.757L3.23342 46.1758C2.98043 46.1758 2.77101 45.9694 2.77101 45.7133V36.3805C2.77101 36.2806 2.85222 36.2025 2.94905 36.2025H7.42491C7.46239 36.2025 7.49988 36.215 7.53111 36.2368L8.96788 37.3144C9.15841 37.4581 9.39579 37.5362 9.6363 37.5362H14.3652C14.4651 37.5362 14.5432 37.6174 14.5432 37.7142V38.3675H15.4802V37.7142C15.4802 37.0989 14.9805 36.5992 14.3652 36.5992H9.6363C9.59882 36.5992 9.56133 36.5867 9.5301 36.5648L8.09333 35.4872C7.9028 35.3435 7.66542 35.2655 7.42491 35.2655H2.94905C2.33373 35.2655 1.83398 35.7652 1.83398 36.3805V45.7133C1.83398 46.4848 2.46194 47.1129 3.23342 47.1129Z" fill="url(#paint8_linear_1677_10254)"/>
<path d="M7.85914 40.6253H5.89139C5.63214 40.6253 5.42287 40.416 5.42287 40.1568C5.42287 39.8975 5.63214 39.6883 5.89139 39.6883H7.85914C8.11839 39.6883 8.32766 39.8975 8.32766 40.1568C8.32766 40.416 8.11839 40.6253 7.85914 40.6253Z" fill="url(#paint9_linear_1677_10254)"/>
<path d="M54.3856 43.0295H41.8919C41.6326 43.0295 41.4234 42.8203 41.4234 42.561C41.4234 42.3018 41.6326 42.0925 41.8919 42.0925C42.0168 42.0925 42.1324 42.0457 42.2199 41.9582C42.3042 41.8708 42.3542 41.7552 42.3542 41.6303V34.993C42.3542 34.3777 42.8539 33.8779 43.4692 33.8779H54.3856C55.0009 33.8779 55.5006 34.3777 55.5006 34.993V41.9145C55.5006 42.5298 55.0009 43.0295 54.3856 43.0295ZM43.2131 42.0925H54.3856C54.4824 42.0925 54.5636 42.0144 54.5636 41.9145V34.993C54.5636 34.8962 54.4855 34.8149 54.3856 34.8149H43.4692C43.3724 34.8149 43.2912 34.893 43.2912 34.993V41.6303C43.2912 41.7895 43.2662 41.9457 43.2131 42.0925Z" fill="url(#paint10_linear_1677_10254)"/>
<path fill-rule="evenodd" clip-rule="evenodd" d="M41.8919 43.0295L53.0236 43.0293C53.5782 43.0293 54.0389 42.6234 54.1244 42.0928H50.4154L41.8919 42.0925C41.6389 42.0925 41.4295 41.8861 41.4295 41.63V32.2972C41.4295 32.1972 41.5107 32.1192 41.6075 32.1192H46.0834C46.1209 32.1192 46.1583 32.1316 46.1896 32.1535L47.6264 33.2311C47.8169 33.3748 48.0543 33.4529 48.2948 33.4529H53.0236C53.1236 33.4529 53.2017 33.5341 53.2017 33.6309V34.2842H54.1387V33.6309C54.1387 33.0156 53.6389 32.5158 53.0236 32.5158H48.2948C48.2573 32.5158 48.2198 32.5033 48.1886 32.4815L46.7518 31.4039C46.5613 31.2602 46.3239 31.1821 46.0834 31.1821H41.6075C40.9922 31.1821 40.4925 31.6819 40.4925 32.2972V41.63C40.4925 42.4015 41.1204 43.0295 41.8919 43.0295Z" fill="url(#paint11_linear_1677_10254)"/>
<path d="M46.5176 36.542H44.5499C44.2906 36.542 44.0813 36.3327 44.0813 36.0735C44.0813 35.8142 44.2906 35.6049 44.5499 35.6049H46.5176C46.7769 35.6049 46.9861 35.8142 46.9861 36.0735C46.9861 36.3327 46.7769 36.542 46.5176 36.542Z" fill="url(#paint12_linear_1677_10254)"/>
<path d="M29.2513 27.4167C30.54 27.4167 31.5846 26.372 31.5846 25.0833C31.5846 23.7947 30.54 22.75 29.2513 22.75C27.9626 22.75 26.918 23.7947 26.918 25.0833C26.918 26.372 27.9626 27.4167 29.2513 27.4167Z" fill="white"/>
<path d="M9.41732 27.4167C10.706 27.4167 11.7507 26.372 11.7507 25.0833C11.7507 23.7947 10.706 22.75 9.41732 22.75C8.12865 22.75 7.08398 23.7947 7.08398 25.0833C7.08398 26.372 8.12865 27.4167 9.41732 27.4167Z" fill="white"/>
<path d="M48.5013 27.4167C49.79 27.4167 50.8346 26.372 50.8346 25.0833C50.8346 23.7947 49.79 22.75 48.5013 22.75C47.2126 22.75 46.168 23.7947 46.168 25.0833C46.168 26.372 47.2126 27.4167 48.5013 27.4167Z" fill="white"/>
</g>
</g>
<defs>
<filter id="filter0_d_1677_10254" x="-1.16602" y="-0.25" width="61.667" height="60.9462" filterUnits="userSpaceOnUse" color-interpolation-filters="sRGB">
<feFlood flood-opacity="0" result="BackgroundImageFix"/>
<feColorMatrix in="SourceAlpha" type="matrix" values="0 0 0 0 0 0 0 0 0 0 0 0 0 0 0 0 0 0 127 0" result="hardAlpha"/>
<feOffset dx="1" dy="2"/>
<feGaussianBlur stdDeviation="2"/>
<feColorMatrix type="matrix" values="0 0 0 0 0.109804 0 0 0 0 0.129412 0 0 0 0 0.341176 0 0 0 0.2 0"/>
<feBlend mode="normal" in2="BackgroundImageFix" result="effect1_dropShadow_1677_10254"/>
<feBlend mode="normal" in="SourceGraphic" in2="effect1_dropShadow_1677_10254" result="shape"/>
</filter>
<linearGradient id="paint0_linear_1677_10254" x1="28.7799" y1="17.2515" x2="31.2867" y2="49.8909" gradientUnits="userSpaceOnUse">
<stop stop-color="white"/>
<stop offset="0.021" stop-color="white"/>
<stop offset="0.167" stop-color="white"/>
<stop offset="0.808" stop-color="#545D89"/>
<stop offset="1" stop-color="#1C2157"/>
</linearGradient>
<linearGradient id="paint1_linear_1677_10254" x1="28.7799" y1="17.2515" x2="31.2867" y2="49.8909" gradientUnits="userSpaceOnUse">
<stop stop-color="white"/>
<stop offset="0.021" stop-color="white"/>
<stop offset="0.167" stop-color="white"/>
<stop offset="0.808" stop-color="#545D89"/>
<stop offset="1" stop-color="#1C2157"/>
</linearGradient>
<linearGradient id="paint2_linear_1677_10254" x1="35.1831" y1="-0.0831815" x2="23.642" y2="18.4691" gradientUnits="userSpaceOnUse">
<stop stop-color="white"/>
<stop offset="0.021" stop-color="white"/>
<stop offset="0.167" stop-color="white"/>
<stop offset="0.808" stop-color="#545D89"/>
<stop offset="1" stop-color="#1C2157"/>
</linearGradient>
<linearGradient id="paint3_linear_1677_10254" x1="35.1831" y1="-0.0831815" x2="23.642" y2="18.4691" gradientUnits="userSpaceOnUse">
<stop stop-color="white"/>
<stop offset="0.021" stop-color="white"/>
<stop offset="0.167" stop-color="white"/>
<stop offset="0.808" stop-color="#545D89"/>
<stop offset="1" stop-color="#1C2157"/>
</linearGradient>
<linearGradient id="paint4_linear_1677_10254" x1="28.6234" y1="25.5294" x2="24.7198" y2="55.3468" gradientUnits="userSpaceOnUse">
<stop stop-color="white"/>
<stop offset="0.021" stop-color="white"/>
<stop offset="0.167" stop-color="white"/>
<stop offset="0.808" stop-color="#545D89"/>
<stop offset="1" stop-color="#1C2157"/>
</linearGradient>
<linearGradient id="paint5_linear_1677_10254" x1="28.6234" y1="25.5294" x2="24.7198" y2="55.3468" gradientUnits="userSpaceOnUse">
<stop stop-color="white"/>
<stop offset="0.021" stop-color="white"/>
<stop offset="0.167" stop-color="white"/>
<stop offset="0.808" stop-color="#545D89"/>
<stop offset="1" stop-color="#1C2157"/>
</linearGradient>
<linearGradient id="paint6_linear_1677_10254" x1="28.6234" y1="25.5294" x2="24.7198" y2="55.3468" gradientUnits="userSpaceOnUse">
<stop stop-color="white"/>
<stop offset="0.021" stop-color="white"/>
<stop offset="0.167" stop-color="white"/>
<stop offset="0.808" stop-color="#545D89"/>
<stop offset="1" stop-color="#1C2157"/>
</linearGradient>
<linearGradient id="paint7_linear_1677_10254" x1="28.6234" y1="25.5294" x2="24.7198" y2="55.3468" gradientUnits="userSpaceOnUse">
<stop stop-color="white"/>
<stop offset="0.021" stop-color="white"/>
<stop offset="0.167" stop-color="white"/>
<stop offset="0.808" stop-color="#545D89"/>
<stop offset="1" stop-color="#1C2157"/>
</linearGradient>
<linearGradient id="paint8_linear_1677_10254" x1="28.6234" y1="25.5294" x2="24.7198" y2="55.3468" gradientUnits="userSpaceOnUse">
<stop stop-color="white"/>
<stop offset="0.021" stop-color="white"/>
<stop offset="0.167" stop-color="white"/>
<stop offset="0.808" stop-color="#545D89"/>
<stop offset="1" stop-color="#1C2157"/>
</linearGradient>
<linearGradient id="paint9_linear_1677_10254" x1="28.6234" y1="25.5294" x2="24.7198" y2="55.3468" gradientUnits="userSpaceOnUse">
<stop stop-color="white"/>
<stop offset="0.021" stop-color="white"/>
<stop offset="0.167" stop-color="white"/>
<stop offset="0.808" stop-color="#545D89"/>
<stop offset="1" stop-color="#1C2157"/>
</linearGradient>
<linearGradient id="paint10_linear_1677_10254" x1="28.6234" y1="25.5294" x2="24.7198" y2="55.3468" gradientUnits="userSpaceOnUse">
<stop stop-color="white"/>
<stop offset="0.021" stop-color="white"/>
<stop offset="0.167" stop-color="white"/>
<stop offset="0.808" stop-color="#545D89"/>
<stop offset="1" stop-color="#1C2157"/>
</linearGradient>
<linearGradient id="paint11_linear_1677_10254" x1="28.6234" y1="25.5294" x2="24.7198" y2="55.3468" gradientUnits="userSpaceOnUse">
<stop stop-color="white"/>
<stop offset="0.021" stop-color="white"/>
<stop offset="0.167" stop-color="white"/>
<stop offset="0.808" stop-color="#545D89"/>
<stop offset="1" stop-color="#1C2157"/>
</linearGradient>
<linearGradient id="paint12_linear_1677_10254" x1="28.6234" y1="25.5294" x2="24.7198" y2="55.3468" gradientUnits="userSpaceOnUse">
<stop stop-color="white"/>
<stop offset="0.021" stop-color="white"/>
<stop offset="0.167" stop-color="white"/>
<stop offset="0.808" stop-color="#545D89"/>
<stop offset="1" stop-color="#1C2157"/>
</linearGradient>
<clipPath id="clip0_1677_10254">
<rect width="56" height="56" fill="white" transform="translate(0.666992)"/>
</clipPath>
</defs>
</svg>
