<svg width="56" height="56" viewBox="0 0 56 56" fill="none" xmlns="http://www.w3.org/2000/svg">
<g clip-path="url(#clip0_1677_10230)">
<g filter="url(#filter0_d_1677_10230)">
<path d="M40.1584 13.4625H37.4052C37.0788 13.4625 36.8152 13.5923 36.8152 13.2658V8.54614C36.8152 7.93258 36.3157 7.43308 35.7022 7.43308H20.8863C20.2727 7.43308 19.7732 7.93258 19.7732 8.54614V13.2658C19.7732 13.5923 19.5097 13.4625 19.1832 13.4625H16.4301C16.1036 13.4625 15.8401 13.5923 15.8401 13.2658V8.54614C15.8401 5.76152 18.1056 3.5 20.8863 3.5H35.7022C38.4868 3.5 40.7483 5.76546 40.7483 8.54614V13.2658C40.7483 13.5923 40.4848 13.4625 40.1584 13.4625ZM37.9952 12.6759H39.5684V8.54614C39.5684 6.41441 37.8339 4.67992 35.7022 4.67992H20.8863C18.7545 4.67992 17.02 6.41441 17.02 8.54614V12.6759H18.5933V8.54614C18.5933 7.27969 19.6237 6.25316 20.8863 6.25316H35.7022C36.9686 6.25316 37.9952 7.28362 37.9952 8.54614V12.6759Z" fill="url(#paint0_linear_1677_10230)"/>
<path fill-rule="evenodd" clip-rule="evenodd" d="M4.69383 28.4702V47.1848C4.69383 50.0953 7.06155 52.463 9.97203 52.463H47.3992C50.3097 52.463 52.6774 50.0953 52.6774 47.1848V28.2692C52.4208 28.3984 52.1309 28.4712 51.824 28.4712H51.5014V47.1848C51.5014 49.4464 49.6607 51.2831 47.4032 51.2831H9.97203C7.71051 51.2831 5.87376 49.4424 5.87376 47.1848V28.4712H4.75679C4.73572 28.4712 4.71474 28.4709 4.69383 28.4702Z" fill="url(#paint1_linear_1677_10230)"/>
<path fill-rule="evenodd" clip-rule="evenodd" d="M2.33398 14.9059C2.33398 13.494 3.47857 12.3494 4.89049 12.3494H51.6942C53.1061 12.3494 54.2507 13.494 54.2507 14.9059V26.3119C54.2507 27.7238 53.1061 28.8684 51.6942 28.8684H45.0079V27.6885H51.6942C52.4544 27.6885 53.0707 27.0721 53.0707 26.3119V14.9059C53.0707 14.1457 52.4544 13.5294 51.6942 13.5294H4.89049C4.13022 13.5294 3.51391 14.1457 3.51391 14.9059V26.3119C3.51391 27.0721 4.13022 27.6885 4.89049 27.6885H11.5767V28.8684H4.89049C3.47857 28.8684 2.33398 27.7238 2.33398 26.3119V14.9059ZM17.4763 28.8684H39.1083V27.6885H17.4763V28.8684Z" fill="url(#paint2_linear_1677_10230)"/>
<path d="M43.9263 31.9442H40.4534C39.4937 31.9442 38.715 31.1654 38.715 30.2058V26.7329C38.715 25.7771 39.4937 24.9944 40.4534 24.9944H43.9263C44.886 24.9944 45.6647 25.7732 45.6647 26.7329V30.2058C45.6647 31.1615 44.886 31.9442 43.9263 31.9442ZM40.4534 26.1744C40.1466 26.1744 39.8949 26.4222 39.8949 26.7329V30.2058C39.8949 30.5126 40.1466 30.7643 40.4534 30.7643H43.9263C44.2331 30.7643 44.4848 30.5165 44.4848 30.2058V26.7329C44.4848 26.4261 44.2331 26.1744 43.9263 26.1744H40.4534Z" fill="url(#paint3_linear_1677_10230)"/>
<path d="M42.188 34.1742C40.9608 34.1742 39.9579 33.1752 39.9579 31.9442V31.3542C39.9579 31.0278 40.2214 30.7642 40.5479 30.7642H43.8241C44.1506 30.7642 44.4141 31.0278 44.4141 31.3542V31.9442C44.4141 33.1713 43.4151 34.1742 42.184 34.1742H42.188ZM41.1378 31.9442C41.1378 32.5223 41.6098 32.9943 42.188 32.9943C42.7661 32.9943 43.2381 32.5223 43.2381 31.9442H41.1418H41.1378Z" fill="url(#paint4_linear_1677_10230)"/>
<path d="M16.1351 31.9442H12.6622C11.7065 31.9442 10.9238 31.1654 10.9238 30.2058V26.7329C10.9238 25.7771 11.7025 24.9944 12.6622 24.9944H16.1351C17.0908 24.9944 17.8735 25.7732 17.8735 26.7329V30.2058C17.8735 31.1615 17.0948 31.9442 16.1351 31.9442ZM12.6622 26.1744C12.3554 26.1744 12.1037 26.4222 12.1037 26.7329V30.2058C12.1037 30.5126 12.3515 30.7643 12.6622 30.7643H16.1351C16.4419 30.7643 16.6936 30.5165 16.6936 30.2058V26.7329C16.6936 26.4261 16.4458 26.1744 16.1351 26.1744H12.6622Z" fill="url(#paint5_linear_1677_10230)"/>
<path d="M14.3967 34.1742C13.1696 34.1742 12.1667 33.1752 12.1667 31.9442V31.3542C12.1667 31.0278 12.4302 30.7642 12.7566 30.7642H16.0329C16.3594 30.7642 16.6229 31.0278 16.6229 31.3542V31.9442C16.6229 33.1713 15.6239 34.1742 14.3928 34.1742H14.3967ZM13.3466 31.9442C13.3466 32.5223 13.8186 32.9943 14.3967 32.9943C14.9749 32.9943 15.4469 32.5223 15.4469 31.9442H13.3505H13.3466Z" fill="url(#paint6_linear_1677_10230)"/>
<path d="M26.8807 46.4251C23.1443 46.4251 20.104 43.3848 20.104 39.6484C20.104 39.3219 20.3675 39.0584 20.694 39.0584L26.2907 39.0584L26.2907 33.4616C26.2907 33.1352 26.5542 32.8717 26.8807 32.8717C30.6171 32.8717 33.6574 35.9119 33.6574 39.6484C33.6574 43.3848 30.6171 46.4251 26.8807 46.4251ZM21.3154 40.2383C21.6104 43.0466 23.9938 45.2451 26.8807 45.2451C29.9682 45.2451 32.4775 42.7358 32.4775 39.6484C32.4775 36.7615 30.2789 34.378 27.4707 34.0831L27.4707 39.6484C27.4707 39.9748 27.2071 40.2383 26.8807 40.2383L21.3154 40.2383Z" fill="url(#paint7_linear_1677_10230)"/>
<path d="M24.6468 38.0045L18.4601 38.0045C18.1336 38.0045 17.8701 37.741 17.8701 37.4145C17.8701 33.6781 20.9104 30.6378 24.6468 30.6378C24.9733 30.6378 25.2368 30.9013 25.2368 31.2278L25.2368 37.4145C25.2368 37.741 24.9733 38.0045 24.6468 38.0045ZM19.0815 36.8245L24.0569 36.8245L24.0569 31.8492C21.4414 32.1245 19.3568 34.209 19.0815 36.8245Z" fill="url(#paint8_linear_1677_10230)"/>
<path d="M23.9665 45.6975C23.8721 45.6975 23.7777 45.6739 23.6873 45.6267C23.4001 45.4733 23.29 45.1154 23.4434 44.8283L26.3578 39.3692C26.5112 39.0821 26.8691 38.9759 27.1562 39.1254C27.4433 39.2787 27.5535 39.6367 27.4001 39.9238L24.4857 45.3829C24.3795 45.5795 24.175 45.6936 23.9665 45.6936L23.9665 45.6975Z" fill="url(#paint9_linear_1677_10230)"/>
<path d="M14.2436 48.6754L10.7825 48.6754C10.4561 48.6754 10.1925 48.4119 10.1925 48.0855L10.1925 41.4267L9.11094 41.4267C8.88282 41.4267 8.67831 41.297 8.57998 41.0924C8.48165 40.8879 8.50918 40.648 8.65077 40.471L12.0568 36.18C12.167 36.0384 12.34 35.9558 12.517 35.9558C12.6979 35.9558 12.867 36.0384 12.9772 36.18L16.3832 40.471C16.5248 40.648 16.5523 40.8918 16.454 41.0924C16.3557 41.297 16.1472 41.4267 15.923 41.4267L14.8375 41.4267L14.8375 48.0855C14.8375 48.4119 14.574 48.6754 14.2476 48.6754L14.2436 48.6754ZM11.3725 47.4955L13.6537 47.4955L13.6537 40.8368C13.6537 40.5103 13.9172 40.2468 14.2436 40.2468L14.6959 40.2468L12.5131 37.4937L10.3302 40.2468L10.7825 40.2468C11.109 40.2468 11.3725 40.5103 11.3725 40.8368L11.3725 47.4955Z" fill="url(#paint10_linear_1677_10230)"/>
<path d="M37.9762 47.8335L35.5251 47.8335C35.2349 47.8335 35.0007 47.5797 35.0007 47.2653L35.0007 44.3183C35.0007 44.0039 35.2349 43.7501 35.5251 43.7501L37.9762 43.7501C38.2664 43.7501 38.5007 44.0039 38.5007 44.3183L38.5007 47.2653C38.5007 47.5797 38.2664 47.8335 37.9762 47.8335ZM36.0496 46.6971L37.4517 46.6971L37.4517 44.8865L36.0496 44.8865L36.0496 46.6971Z" fill="url(#paint11_linear_1677_10230)"/>
<path d="M43.0514 47.8335L39.7833 47.8335C39.3963 47.8335 39.084 47.5704 39.084 47.2446L39.084 39.6723C39.084 39.3465 39.3963 39.0835 39.7833 39.0835L43.0514 39.0835C43.4383 39.0835 43.7507 39.3465 43.7507 39.6723L43.7507 47.2446C43.7507 47.5704 43.4383 47.8335 43.0514 47.8335ZM40.4826 46.6558L42.3521 46.6558L42.3521 40.2611L40.4826 40.2611L40.4826 46.6558Z" fill="url(#paint12_linear_1677_10230)"/>
<path d="M47.3095 47.8335L44.8585 47.8335C44.5683 47.8335 44.334 47.5732 44.334 47.2508L44.334 34.4161C44.334 34.0937 44.5683 33.8335 44.8585 33.8335L47.3095 33.8335C47.5997 33.8335 47.834 34.0937 47.834 34.4161L47.834 47.2508C47.834 47.5732 47.5997 47.8335 47.3095 47.8335ZM45.3829 46.6681L46.785 46.6681L46.785 34.9988L45.3829 34.9988L45.3829 46.6681Z" fill="url(#paint13_linear_1677_10230)"/>
</g>
</g>
<defs>
<filter id="filter0_d_1677_10230" x="0.583984" y="2.33333" width="56.5837" height="53.6297" filterUnits="userSpaceOnUse" color-interpolation-filters="sRGB">
<feFlood flood-opacity="0" result="BackgroundImageFix"/>
<feColorMatrix in="SourceAlpha" type="matrix" values="0 0 0 0 0 0 0 0 0 0 0 0 0 0 0 0 0 0 127 0" result="hardAlpha"/>
<feOffset dx="0.583333" dy="1.16667"/>
<feGaussianBlur stdDeviation="1.16667"/>
<feColorMatrix type="matrix" values="0 0 0 0 0.109804 0 0 0 0 0.129412 0 0 0 0 0.341176 0 0 0 0.2 0"/>
<feBlend mode="normal" in2="BackgroundImageFix" result="effect1_dropShadow_1677_10230"/>
<feBlend mode="normal" in="SourceGraphic" in2="effect1_dropShadow_1677_10230" result="shape"/>
</filter>
<linearGradient id="paint0_linear_1677_10230" x1="33.012" y1="1.92677" x2="10.9853" y2="55.3471" gradientUnits="userSpaceOnUse">
<stop stop-color="white"/>
<stop offset="0.021" stop-color="white"/>
<stop offset="0.167" stop-color="white"/>
<stop offset="0.808" stop-color="#545D89"/>
<stop offset="1" stop-color="#1C2157"/>
</linearGradient>
<linearGradient id="paint1_linear_1677_10230" x1="33.012" y1="1.92677" x2="10.9853" y2="55.3471" gradientUnits="userSpaceOnUse">
<stop stop-color="white"/>
<stop offset="0.021" stop-color="white"/>
<stop offset="0.167" stop-color="white"/>
<stop offset="0.808" stop-color="#545D89"/>
<stop offset="1" stop-color="#1C2157"/>
</linearGradient>
<linearGradient id="paint2_linear_1677_10230" x1="33.012" y1="1.92677" x2="10.9853" y2="55.3471" gradientUnits="userSpaceOnUse">
<stop stop-color="white"/>
<stop offset="0.021" stop-color="white"/>
<stop offset="0.167" stop-color="white"/>
<stop offset="0.808" stop-color="#545D89"/>
<stop offset="1" stop-color="#1C2157"/>
</linearGradient>
<linearGradient id="paint3_linear_1677_10230" x1="33.012" y1="1.92677" x2="10.9853" y2="55.3471" gradientUnits="userSpaceOnUse">
<stop stop-color="white"/>
<stop offset="0.021" stop-color="white"/>
<stop offset="0.167" stop-color="white"/>
<stop offset="0.808" stop-color="#545D89"/>
<stop offset="1" stop-color="#1C2157"/>
</linearGradient>
<linearGradient id="paint4_linear_1677_10230" x1="33.012" y1="1.92677" x2="10.9853" y2="55.3471" gradientUnits="userSpaceOnUse">
<stop stop-color="white"/>
<stop offset="0.021" stop-color="white"/>
<stop offset="0.167" stop-color="white"/>
<stop offset="0.808" stop-color="#545D89"/>
<stop offset="1" stop-color="#1C2157"/>
</linearGradient>
<linearGradient id="paint5_linear_1677_10230" x1="33.012" y1="1.92677" x2="10.9853" y2="55.3471" gradientUnits="userSpaceOnUse">
<stop stop-color="white"/>
<stop offset="0.021" stop-color="white"/>
<stop offset="0.167" stop-color="white"/>
<stop offset="0.808" stop-color="#545D89"/>
<stop offset="1" stop-color="#1C2157"/>
</linearGradient>
<linearGradient id="paint6_linear_1677_10230" x1="33.012" y1="1.92677" x2="10.9853" y2="55.3471" gradientUnits="userSpaceOnUse">
<stop stop-color="white"/>
<stop offset="0.021" stop-color="white"/>
<stop offset="0.167" stop-color="white"/>
<stop offset="0.808" stop-color="#545D89"/>
<stop offset="1" stop-color="#1C2157"/>
</linearGradient>
<linearGradient id="paint7_linear_1677_10230" x1="29.8652" y1="28.8687" x2="30.8857" y2="51.411" gradientUnits="userSpaceOnUse">
<stop stop-color="white"/>
<stop offset="0.808" stop-color="#545D89"/>
<stop offset="1" stop-color="#1C2157"/>
</linearGradient>
<linearGradient id="paint8_linear_1677_10230" x1="29.8652" y1="28.8687" x2="30.8857" y2="51.411" gradientUnits="userSpaceOnUse">
<stop stop-color="white"/>
<stop offset="0.808" stop-color="#545D89"/>
<stop offset="1" stop-color="#1C2157"/>
</linearGradient>
<linearGradient id="paint9_linear_1677_10230" x1="29.8652" y1="28.8687" x2="30.8857" y2="51.411" gradientUnits="userSpaceOnUse">
<stop stop-color="white"/>
<stop offset="0.808" stop-color="#545D89"/>
<stop offset="1" stop-color="#1C2157"/>
</linearGradient>
<linearGradient id="paint10_linear_1677_10230" x1="29.8652" y1="28.8687" x2="30.8857" y2="51.411" gradientUnits="userSpaceOnUse">
<stop stop-color="white"/>
<stop offset="0.808" stop-color="#545D89"/>
<stop offset="1" stop-color="#1C2157"/>
</linearGradient>
<linearGradient id="paint11_linear_1677_10230" x1="29.8652" y1="28.8687" x2="30.8857" y2="51.411" gradientUnits="userSpaceOnUse">
<stop stop-color="white"/>
<stop offset="0.808" stop-color="#545D89"/>
<stop offset="1" stop-color="#1C2157"/>
</linearGradient>
<linearGradient id="paint12_linear_1677_10230" x1="29.8652" y1="28.8687" x2="30.8857" y2="51.411" gradientUnits="userSpaceOnUse">
<stop stop-color="white"/>
<stop offset="0.808" stop-color="#545D89"/>
<stop offset="1" stop-color="#1C2157"/>
</linearGradient>
<linearGradient id="paint13_linear_1677_10230" x1="29.8652" y1="28.8687" x2="30.8857" y2="51.411" gradientUnits="userSpaceOnUse">
<stop stop-color="white"/>
<stop offset="0.808" stop-color="#545D89"/>
<stop offset="1" stop-color="#1C2157"/>
</linearGradient>
<clipPath id="clip0_1677_10230">
<rect width="56" height="56" fill="white"/>
</clipPath>
</defs>
</svg>
