<svg width="80" height="80" viewBox="0 0 80 80" fill="none" xmlns="http://www.w3.org/2000/svg">
<g filter="url(#filter0_d_1677_10543)">
<path d="M53.1435 46.2789C52.7342 46.6832 52.73 47.3427 53.1343 47.752C53.5385 48.1614 54.1981 48.1655 54.6074 47.7612L53.1435 46.2789ZM58.4307 42.5213L59.4723 42.5278C59.4749 42.1065 59.2235 41.7251 58.8353 41.5615C58.4471 41.3978 57.9985 41.4841 57.6987 41.7802L58.4307 42.5213ZM58.3248 59.4975L59.0567 60.2387C59.2533 60.0446 59.3647 59.7803 59.3664 59.504L58.3248 59.4975ZM53.7695 63.9963L53.0284 64.7283C53.2225 64.9248 53.4868 65.0362 53.763 65.0379C54.0393 65.0397 54.3049 64.9316 54.5015 64.7374L53.7695 63.9963ZM49.8331 60.0105L50.5743 59.2785C50.17 58.8692 49.5105 58.8651 49.1012 59.2693L49.8331 60.0105ZM44.7085 65.0716L44.702 66.1132C44.9783 66.1149 45.2439 66.0068 45.4404 65.8127L44.7085 65.0716ZM19.8524 58.1257L20.8941 58.1322L20.8941 58.1258L19.8524 58.1257ZM62.1879 47.8077C62.5921 48.217 63.2517 48.2212 63.661 47.8169C64.0703 47.4127 64.0744 46.7531 63.6702 46.3438L62.1879 47.8077ZM54.6074 47.7612L59.1626 43.2625L57.6987 41.7802L53.1435 46.2789L54.6074 47.7612ZM57.389 42.5148L57.2831 59.4911L59.3664 59.504L59.4723 42.5278L57.389 42.5148ZM57.5928 58.7564L53.0376 63.2551L54.5015 64.7374L59.0567 60.2387L57.5928 58.7564ZM54.5107 63.2643L50.5743 59.2785L49.092 60.7424L53.0284 64.7283L54.5107 63.2643ZM49.1012 59.2693L43.9765 64.3304L45.4404 65.8127L50.5651 60.7516L49.1012 59.2693ZM44.715 64.0299L40.188 64.0017L40.175 66.085L44.702 66.1132L44.715 64.0299ZM40.188 64.0017L33.3975 63.9593L33.3845 66.0426L40.175 66.085L40.188 64.0017ZM33.3975 63.9593L26.607 63.9169L26.594 66.0002L33.3845 66.0426L33.3975 63.9593ZM26.607 63.9169C23.4362 63.8972 20.8743 61.303 20.8941 58.1322L18.8108 58.1192C18.7838 62.4406 22.2727 65.9733 26.594 66.0002L26.607 63.9169ZM20.8941 58.1258L20.8943 52.9167L18.811 52.9166L18.8107 58.1257L20.8941 58.1258ZM57.6891 43.2525L62.1879 47.8077L63.6702 46.3438L59.1714 41.7886L57.6891 43.2525Z" fill="url(#paint0_linear_1677_10543)"/>
<path d="M34.8246 31.0562C34.821 31.6315 35.2844 32.1008 35.8597 32.1044C36.435 32.1079 36.9043 31.6445 36.9079 31.0692L34.8246 31.0562ZM17.8501 16.237L17.8566 15.1954C17.5803 15.1937 17.3147 15.3017 17.1181 15.4959L17.8501 16.237ZM11.0172 22.9851L10.2852 22.244C10.0887 22.4381 9.97728 22.7024 9.97556 22.9786L11.0172 22.9851ZM13.0971 52.4247L13.1068 51.3831L13.1036 51.383L13.0971 52.4247ZM19.9399 53.5299C20.5151 53.5352 20.9858 53.0732 20.9911 52.4979C20.9965 51.9226 20.5344 51.4519 19.9592 51.4466L19.9399 53.5299ZM17.8077 23.0275L17.8012 24.0692C18.3765 24.0727 18.8457 23.6093 18.8493 23.034L17.8077 23.0275ZM15.2617 21.9752C14.6864 21.9752 14.22 22.4416 14.22 23.0169C14.22 23.5922 14.6864 24.0586 15.2617 24.0586L15.2617 21.9752ZM16.1101 23.0169L16.1166 21.9752L16.1101 21.9752L16.1101 23.0169ZM32.2384 28.5531L33.28 28.5531L33.28 26.4697L32.2384 26.4697L32.2384 28.5531ZM32.2384 33.0801L33.28 33.0801L33.28 30.9968L32.2384 30.9968L32.2384 33.0801ZM29.1415 37.6072L30.1831 37.6072L30.1831 35.5239L29.1415 35.5239L29.1415 37.6072ZM25.7462 42.1343L26.7878 42.1343L26.7878 40.051L25.7462 40.051L25.7462 42.1343ZM25.4477 46.6614L26.4894 46.6614L26.4894 44.578L25.4477 44.578L25.4477 46.6614ZM36.9079 31.0692L36.9855 18.62L34.9022 18.607L34.8246 31.0562L36.9079 31.0692ZM36.9855 18.62C36.9969 16.7998 35.5212 15.3056 33.701 15.2942L33.688 17.3775C34.3577 17.3817 34.9064 17.9374 34.9022 18.607L36.9855 18.62ZM33.701 15.2942L17.8566 15.1954L17.8436 17.2787L33.688 17.3775L33.701 15.2942ZM17.1181 15.4959L10.2852 22.244L11.7492 23.7263L18.582 16.9782L17.1181 15.4959ZM9.97556 22.9786L9.80611 50.1406L11.8894 50.1536L12.0589 22.9916L9.97556 22.9786ZM9.80611 50.1406C9.79475 51.9608 11.2704 53.455 13.0906 53.4663L13.1036 51.383C12.434 51.3789 11.8852 50.8232 11.8894 50.1536L9.80611 50.1406ZM13.0875 53.4663L19.9399 53.5299L19.9592 51.4466L13.1068 51.3831L13.0875 53.4663ZM16.8084 16.2305L16.766 23.021L18.8493 23.034L18.8917 16.2435L16.8084 16.2305ZM17.8142 21.9859L16.1166 21.9753L16.1036 24.0586L17.8012 24.0692L17.8142 21.9859ZM16.1101 21.9752L15.2617 21.9752L15.2617 24.0586L16.1101 24.0586L16.1101 21.9752ZM14.9634 28.5531L32.2384 28.5531L32.2384 26.4697L14.9634 26.4697L14.9634 28.5531ZM14.9634 33.0801L32.2384 33.0801L32.2384 30.9968L14.9634 30.9968L14.9634 33.0801ZM14.9634 37.6072L29.1415 37.6072L29.1415 35.5239L14.9634 35.5239L14.9634 37.6072ZM14.9634 42.1343L25.7462 42.1343L25.7462 40.051L14.9634 40.051L14.9634 42.1343ZM14.9634 46.6614L25.4477 46.6614L25.4477 44.578L14.9634 44.578L14.9634 46.6614Z" fill="url(#paint1_linear_1677_10543)"/>
<path d="M36.8986 46.912L33.5034 46.8908C32.2585 46.883 31.2462 45.8581 31.254 44.6132L31.2611 43.4814M36.8986 46.912L36.8065 61.6252M36.8986 46.912L40.2935 46.9337C41.5384 46.9414 42.5633 45.9292 42.5711 44.6843L42.5782 43.5526M48.2237 45.8541C48.2654 39.1768 42.5154 33.8102 35.6749 34.5258C30.5218 35.0709 26.2971 39.2096 25.6651 44.3553C25.0332 49.501 27.8457 54.0344 32.1001 56.0302C32.9013 56.4087 33.4283 57.2043 33.4228 58.087L33.4009 61.5954L40.1914 61.6378L40.2132 58.1294C40.2188 57.2353 40.7557 56.4464 41.5616 56.0779C45.4546 54.314 48.1841 50.3924 48.2125 45.8314L48.2237 45.8541ZM33.4119 61.6064L40.2024 61.6488L40.1742 66.1758C40.1664 67.4207 39.1415 68.4329 37.8966 68.4252L35.6331 68.4111C34.3882 68.4033 33.3759 67.3784 33.3837 66.1334L33.4119 61.6064Z" stroke="url(#paint2_linear_1677_10543)" stroke-width="2.08333" stroke-linecap="round" stroke-linejoin="round"/>
<path d="M20.0003 55.8333C21.8413 55.8333 23.3337 54.3409 23.3337 52.5C23.3337 50.659 21.8413 49.1667 20.0003 49.1667C18.1594 49.1667 16.667 50.659 16.667 52.5C16.667 54.3409 18.1594 55.8333 20.0003 55.8333Z" fill="white"/>
<path d="M69.6511 22.0276C69.6864 16.3756 65.1331 11.7651 59.4811 11.7298C53.829 11.6946 49.2186 16.2479 49.1833 21.8999C49.1481 27.5519 53.7013 32.1624 59.3534 32.1976C65.0054 32.2329 69.6158 27.6796 69.6511 22.0276Z" stroke="url(#paint3_linear_1677_10543)" stroke-width="2.08333" stroke-linejoin="round"/>
<path d="M65.5579 21.9555C65.5791 18.5643 62.8471 15.798 59.4559 15.7768C56.0647 15.7557 53.2984 18.4877 53.2772 21.8789C53.2561 25.2701 55.9881 28.0364 59.3793 28.0575C62.7705 28.0787 65.5368 25.3467 65.5579 21.9555Z" stroke="url(#paint4_linear_1677_10543)" stroke-width="2.08333" stroke-linejoin="round"/>
<circle cx="59.1663" cy="21.6667" r="3.33333" fill="white"/>
</g>
<defs>
<filter id="filter0_d_1677_10543" x="-2.5" y="-1.66667" width="86.6667" height="86.6667" filterUnits="userSpaceOnUse" color-interpolation-filters="sRGB">
<feFlood flood-opacity="0" result="BackgroundImageFix"/>
<feColorMatrix in="SourceAlpha" type="matrix" values="0 0 0 0 0 0 0 0 0 0 0 0 0 0 0 0 0 0 127 0" result="hardAlpha"/>
<feOffset dx="0.833333" dy="1.66667"/>
<feGaussianBlur stdDeviation="1.66667"/>
<feColorMatrix type="matrix" values="0 0 0 0 0.109804 0 0 0 0 0.129412 0 0 0 0 0.341176 0 0 0 0.2 0"/>
<feBlend mode="normal" in2="BackgroundImageFix" result="effect1_dropShadow_1677_10543"/>
<feBlend mode="normal" in="SourceGraphic" in2="effect1_dropShadow_1677_10543" result="shape"/>
</filter>
<linearGradient id="paint0_linear_1677_10543" x1="60.8337" y1="39.5833" x2="25.1658" y2="80.3031" gradientUnits="userSpaceOnUse">
<stop stop-color="white"/>
<stop offset="0.021" stop-color="white"/>
<stop offset="0.167" stop-color="white"/>
<stop offset="0.808" stop-color="#545D89"/>
<stop offset="1" stop-color="#1C2157"/>
</linearGradient>
<linearGradient id="paint1_linear_1677_10543" x1="28.75" y1="15" x2="3.70835" y2="91.798" gradientUnits="userSpaceOnUse">
<stop stop-color="white"/>
<stop offset="0.021" stop-color="white"/>
<stop offset="0.167" stop-color="white"/>
<stop offset="0.808" stop-color="#545D89"/>
<stop offset="1" stop-color="#1C2157"/>
</linearGradient>
<linearGradient id="paint2_linear_1677_10543" x1="41.6663" y1="31.25" x2="34.8617" y2="73.2435" gradientUnits="userSpaceOnUse">
<stop stop-color="white"/>
<stop offset="0.021" stop-color="white"/>
<stop offset="0.167" stop-color="white"/>
<stop offset="0.808" stop-color="#545D89"/>
<stop offset="1" stop-color="#1C2157"/>
</linearGradient>
<linearGradient id="paint3_linear_1677_10543" x1="60.8333" y1="14.5833" x2="52.7331" y2="73.0068" gradientUnits="userSpaceOnUse">
<stop stop-color="white"/>
<stop offset="0.021" stop-color="white"/>
<stop offset="0.167" stop-color="white"/>
<stop offset="0.808" stop-color="#545D89"/>
<stop offset="1" stop-color="#1C2157"/>
</linearGradient>
<linearGradient id="paint4_linear_1677_10543" x1="60.8333" y1="14.5833" x2="52.7331" y2="73.0068" gradientUnits="userSpaceOnUse">
<stop stop-color="white"/>
<stop offset="0.021" stop-color="white"/>
<stop offset="0.167" stop-color="white"/>
<stop offset="0.808" stop-color="#545D89"/>
<stop offset="1" stop-color="#1C2157"/>
</linearGradient>
</defs>
</svg>
