<svg width="158" height="240" viewBox="0 0 158 240" fill="none" xmlns="http://www.w3.org/2000/svg">
<path fill-rule="evenodd" clip-rule="evenodd" d="M79.2587 65.7667C79.1999 65.6827 79.1046 65.6367 79.0094 65.6367C78.949 65.6367 78.8887 65.6541 78.8363 65.6906C78.6981 65.7872 78.6648 65.9742 78.76 66.1121C81.3691 69.8531 82.7475 74.247 82.7475 78.8214C82.7475 88.7702 76.1771 97.2169 67.1387 100.068V100.702C76.5169 97.8304 83.3542 89.1079 83.3542 78.8214C83.3542 74.1234 81.9377 69.6091 79.2587 65.7667ZM56.955 101.442V100.83C46.285 99.163 38.0959 89.9283 38.0959 78.8214C38.0959 78.6535 37.9609 78.5188 37.7926 78.5188C37.6242 78.5188 37.4893 78.6551 37.4893 78.8214C37.4893 90.2633 45.9487 99.7702 56.955 101.442Z" fill="#F3FF00"/>
<path d="M93.56 78.5152C93.7267 78.5152 93.8633 78.6499 93.8633 78.8178C93.8633 87.7307 90.384 96.1112 84.0684 102.413C81.8784 104.598 79.4383 106.443 76.8126 107.92C76.5374 108.118 76.8126 107.53 76.8126 107.53C76.8126 107.53 76.1457 107.334 76.6207 107.333C79.159 105.892 81.5189 104.101 83.6397 101.985C89.8424 95.7975 93.2567 87.5691 93.2567 78.8178C93.2567 78.6515 93.3916 78.5152 93.56 78.5152Z" fill="url(#paint0_linear_6785_49723)"/>
<path d="M92.6936 78.8204C92.6936 79.2973 93.0811 79.6855 93.5607 79.6855C94.0403 79.6855 94.4277 79.2989 94.4277 78.8204C94.4277 78.3419 94.0403 77.9553 93.5607 77.9553C93.0811 77.9553 92.6936 78.3419 92.6936 78.8204Z" fill="#1C2157"/>
<path d="M62.9973 45.4703C70.6189 46.0846 77.5962 49.157 83.1739 54.3549C88.5856 59.3979 92.2172 66.1684 93.4013 73.4173C93.4354 73.6267 93.2936 73.8251 93.0821 73.8589C92.8722 73.8945 92.6734 73.7513 92.6394 73.5403C91.4832 66.459 87.9331 59.8445 82.6458 54.918C77.197 49.8402 70.3813 46.838 62.9339 46.2377C54.2138 45.5349 45.7414 48.2618 39.0786 53.918C32.4157 59.5743 28.3612 67.4802 27.6597 76.1827C26.7092 87.976 32.2472 99.3973 42.1112 105.99C42.2882 106.107 42.3358 106.347 42.2179 106.525C42.1001 106.701 41.8605 106.749 41.682 106.631C31.5851 99.8844 25.9173 88.1935 26.8903 76.1223C27.6082 67.2161 31.7591 59.1223 38.5776 53.334C45.3961 47.5456 54.0681 44.7537 62.9939 45.4732L62.9973 45.4703Z" fill="url(#paint1_linear_6785_49723)"/>
<path d="M92.9171 72.2245C92.2221 72.2804 91.7043 72.8878 91.7605 73.5812C91.8167 74.2747 92.4256 74.7916 93.1206 74.7358C93.8155 74.68 94.3334 74.0726 94.2772 73.3791C94.221 72.6856 93.6121 72.1687 92.9171 72.2245Z" fill="#1C2157"/>
<path d="M41.1062 105.378C40.5906 105.816 40.5284 106.588 40.9672 107.102C41.406 107.617 42.1798 107.679 42.6953 107.242C43.2109 106.804 43.2732 106.032 42.8343 105.517C42.3955 105.003 41.6218 104.94 41.1062 105.378Z" fill="#1C2157"/>
<path d="M102.096 87.8431C101.413 87.8431 100.86 88.395 100.86 89.0758C100.86 89.7567 101.413 90.3086 102.096 90.3086C102.778 90.3086 103.331 89.7567 103.331 89.0758C103.331 88.395 102.778 87.8431 102.096 87.8431Z" fill="#1C2157"/>
<path d="M55.8842 39.3389C66.4111 38.0178 76.8212 40.8667 85.1966 47.3597C93.5719 53.8526 98.911 63.2129 100.229 73.7167C101.025 80.0589 100.318 86.2974 98.1275 92.259C96.0387 97.9459 92.6048 103.168 88.2014 107.36C87.9899 107.562 87.6543 107.553 87.4518 107.342C87.2492 107.131 87.2584 106.796 87.4699 106.594C91.7577 102.514 95.0987 97.4315 97.1327 91.8951C99.2646 86.0926 99.9527 80.0209 99.1781 73.8486C97.8951 63.6247 92.6995 54.5146 84.5475 48.1948C76.3955 41.8751 66.2625 39.1033 56.0176 40.3889C45.7727 41.6745 36.6387 46.8642 30.301 55.0022C23.9633 63.1402 21.18 73.2532 22.4628 83.4755C22.4991 83.7648 22.2939 84.0301 22.0024 84.0667C21.7109 84.1032 21.4465 83.8969 21.4102 83.6076C20.0921 73.1039 22.9528 62.7145 29.4642 54.3535C35.9755 45.9924 45.3589 40.6597 55.8858 39.3387L55.8842 39.3389Z" fill="url(#paint2_linear_6785_49723)"/>
<path d="M21.2826 81.3245C20.0532 81.6852 19.349 82.972 19.7099 84.1986C20.0707 85.4253 21.3599 86.1272 22.5893 85.7665C23.8188 85.4057 24.5229 84.1189 24.1621 82.8923C23.8012 81.6657 22.512 80.9637 21.2826 81.3245Z" fill="#1C2157"/>
<path d="M87.6327 105.353C86.7338 105.465 86.0963 106.284 86.2089 107.181C86.3214 108.078 87.1414 108.714 88.0403 108.601C88.9392 108.488 89.5767 107.669 89.4642 106.772C89.3516 105.875 88.5316 105.24 87.6327 105.353Z" fill="#1C2157"/>
<path d="M69.3315 52.0479C54.5406 47.0823 38.4754 55.0486 33.5202 69.8085C31.8299 74.8436 31.592 80.2225 32.831 85.3636C34.0365 90.3647 36.5807 94.9461 40.1881 98.6108C40.3055 98.7304 40.4977 98.7315 40.6174 98.6145C40.7371 98.4976 40.7379 98.3056 40.6205 98.186C37.0908 94.5992 34.6007 90.1162 33.4201 85.2204C32.2075 80.1902 32.4402 74.9265 34.0948 69.998C38.9435 55.5551 54.6636 47.7587 69.1384 52.6182C83.6132 57.4776 91.4442 73.1805 86.5955 87.6233C84.0642 95.1633 78.5701 100.892 71.8371 103.954C70.274 104.596 71.837 104.351 71.837 104.351C71.837 104.351 71.2532 104.596 72.4246 104.349C79.1517 101.184 84.626 95.3959 87.1705 87.8164C92.1257 73.0566 84.1235 57.0104 69.331 52.0444L69.3315 52.0479Z" fill="url(#paint3_linear_6785_49723)"/>
<path d="M40.7924 97.2389C41.4342 97.4543 41.7803 98.1482 41.5653 98.7887C41.3503 99.4291 40.6556 99.7736 40.0138 99.5581C39.3719 99.3427 39.0259 98.6488 39.2409 98.0083C39.4559 97.3679 40.1505 97.0234 40.7924 97.2389Z" fill="#C6D8F1"/>
<path d="M35.3263 81.7748C33.862 67.9076 43.9279 55.4369 57.7646 53.9759C71.6012 52.5148 84.0497 62.6082 85.5139 76.4754C86.278 83.7115 83.8918 90.9304 78.9664 96.2825C78.8534 96.4046 78.6616 96.4137 78.5397 96.3004C78.4162 96.1873 78.4086 95.9949 78.5216 95.8728C83.3284 90.6498 85.6579 83.6029 84.9122 76.5406C83.4829 63.005 71.3325 53.1532 57.8267 54.5793C44.3209 56.0054 34.496 68.1775 35.9252 81.7131C36.3829 86.0481 37.9754 90.1898 40.5323 93.6868C43.0131 97.0816 46.3408 99.8057 50.1559 101.563C50.3068 101.634 50.3735 101.814 50.305 101.964C50.2351 102.117 50.0556 102.182 49.9049 102.114C45.9959 100.312 42.588 97.5225 40.0459 94.0447C37.4272 90.4601 35.7955 86.2187 35.3264 81.7764L35.3263 81.7748Z" fill="url(#paint4_linear_6785_49723)"/>
<path d="M78.3657 97.4013C78.84 97.3512 79.1854 96.9251 79.135 96.4482C79.0846 95.9713 78.6595 95.6265 78.1836 95.6768C77.7077 95.727 77.3639 96.153 77.4143 96.6299C77.4646 97.1068 77.8898 97.4515 78.3657 97.4013Z" fill="#1C2157"/>
<path d="M50.1645 102.886C50.6388 102.836 50.9842 102.409 50.9338 101.933C50.8835 101.456 50.4583 101.111 49.9824 101.161C49.5065 101.211 49.1627 101.637 49.2131 102.114C49.2635 102.591 49.6886 102.936 50.1645 102.886Z" fill="#1C2157"/>
<path d="M22.8516 91.2646C22.9898 91.285 23.1105 91.3812 23.1571 91.5226C25.3602 98.287 29.3853 104.32 34.7969 108.97C39.1858 112.742 44.3434 115.463 49.9087 116.97C50.568 117.146 50.0976 117.332 50.0976 117.332L50.098 117.332L50.0989 117.332C50.0989 117.332 50.1005 117.718 49.9087 117.752C44.159 116.227 38.8298 113.433 34.3017 109.543C28.7847 104.802 24.6806 98.6514 22.4357 91.756C22.3719 91.5576 22.4803 91.3445 22.6793 91.2793C22.7366 91.2605 22.795 91.2563 22.8516 91.2646Z" fill="url(#paint5_linear_6785_49723)"/>
<path d="M47.7011 109.121C47.6199 109.673 48.0019 110.185 48.5549 110.267C49.1079 110.348 49.6214 109.967 49.7027 109.415C49.7839 108.864 49.4019 108.351 48.8489 108.27C48.2959 108.188 47.7824 108.569 47.7011 109.121Z" fill="#F3FF00"/>
<path d="M22.9427 90.6407C22.39 90.5593 21.8761 90.9404 21.7949 91.4919C21.7137 92.0434 22.0959 92.5564 22.6486 92.6378C23.2014 92.7192 23.7152 92.3381 23.7964 91.7866C23.8776 91.2351 23.4954 90.7221 22.9427 90.6407Z" fill="#F3FF00"/>
<path d="M36.7321 77.7665C36.1467 78.3507 36.1466 79.2978 36.7321 79.8819C37.3175 80.466 38.2667 80.466 38.8521 79.8819C39.4375 79.2978 39.4375 78.3507 38.8521 77.7665C38.2667 77.1824 37.3175 77.1824 36.7321 77.7665Z" fill="#F3FF00"/>
<path d="M78.3362 65.9411C78.3362 66.3119 78.6364 66.6113 79.008 66.6113C79.3796 66.6113 79.6797 66.3119 79.6797 65.9411C79.6797 65.5703 79.3796 65.2708 79.008 65.2708C78.6364 65.2708 78.3362 65.5703 78.3362 65.9411Z" fill="#1C2157"/>
<path d="M60.4213 56.093C65.5426 56.093 70.3797 57.7489 74.41 60.8814C74.4767 60.9321 74.4878 61.0272 74.437 61.0938C74.3862 61.1603 74.2909 61.1714 74.2242 61.1207C70.2479 58.0293 65.4759 56.3957 60.4228 56.3957C60.3387 56.3957 60.272 56.3275 60.272 56.2451C60.272 56.1628 60.3403 56.0946 60.4228 56.0946L60.4213 56.093Z" fill="url(#paint6_linear_6785_49723)"/>
<path d="M73.6438 60.9997C73.6438 61.3705 73.944 61.6699 74.3156 61.6699C74.6872 61.6699 74.9873 61.3705 74.9873 60.9997C74.9873 60.6289 74.6872 60.3294 74.3156 60.3294C73.944 60.3294 73.6438 60.6289 73.6438 60.9997Z" fill="#F3FF00"/>
<path d="M59.7493 56.2438C59.7493 56.6146 60.0494 56.9141 60.421 56.9141C60.7926 56.9141 61.0928 56.6146 61.0928 56.2438C61.0928 55.873 60.7926 55.5736 60.421 55.5736C60.0494 55.5736 59.7493 55.873 59.7493 56.2438Z" fill="#F3FF00"/>
<path d="M53.4999 87.172C53.3589 87.172 53.2179 87.1132 53.12 86.9996C51.518 85.1861 50.6367 82.8556 50.6367 80.435C50.6367 74.9632 55.0862 70.5137 60.5581 70.5137C66.0299 70.5137 70.4794 74.9632 70.4794 80.435C70.4794 82.6637 69.7587 84.771 68.3917 86.5257C68.2194 86.745 67.9021 86.7881 67.6789 86.6158C67.4595 86.4434 67.4164 86.1262 67.5888 85.9029C68.8148 84.3284 69.465 82.4365 69.465 80.435C69.465 75.5233 65.4698 71.5281 60.5581 71.5281C55.6464 71.5281 51.6512 75.5233 51.6512 80.435C51.6512 82.6089 52.4424 84.7005 53.8799 86.3299C54.0639 86.5414 54.0444 86.8625 53.8368 87.0466C53.7389 87.1328 53.6213 87.172 53.4999 87.172Z" fill="#F3FF00"/>
<path d="M102.303 141.381L97.6342 126.861C97.0663 125.094 95.9891 123.559 94.5164 122.427L87.1371 116.736L86.4321 114.229C86.1814 113.336 85.5429 112.619 84.6851 112.267L77.4664 109.298L77.2275 107.633C77.0747 106.568 76.358 105.663 75.3592 105.267L67.8858 102.314L65.1323 80.4111C64.8503 78.1589 62.9232 76.459 60.6514 76.459C58.1603 76.459 56.1353 78.484 56.1353 80.9751V113.332H52.6572C51.255 113.332 50.0212 114.327 49.7235 115.698L47.3303 126.759C47.2911 126.935 47.2324 127.104 47.1462 127.264L43.9814 133.277C43.7542 133.707 43.6367 134.189 43.6367 134.675V156.022C43.6367 157.024 44.1342 157.953 44.9645 158.513L62.6216 170.393C63.17 170.761 63.499 171.38 63.499 172.042V188.046C63.499 188.328 63.7262 188.555 64.0082 188.555C64.2902 188.555 64.5174 188.328 64.5174 188.046V172.042C64.5174 171.039 64.0199 170.111 63.1896 169.55L45.5325 157.675C44.9841 157.306 44.6551 156.688 44.6551 156.026V147.988H54.079C54.361 147.988 54.5882 147.761 54.5882 147.479C54.5882 147.197 54.361 146.97 54.079 146.97H44.6551V134.679C44.6551 134.358 44.7334 134.036 44.8823 133.754L48.0471 127.742C48.1724 127.499 48.2664 127.245 48.3252 126.978L50.7184 115.917C50.9142 115.008 51.7328 114.35 52.6611 114.35H56.1393V136.927C56.1393 138.584 57.4866 139.927 59.1396 139.927H59.5704C60.6671 139.927 61.5562 140.817 61.5562 141.913V158.803C61.5562 159.86 62.1203 160.851 63.0329 161.388L70.9214 166.045C71.5246 166.401 71.8967 167.055 71.8967 167.757V177.017C71.8967 180.555 72.9151 181.249 72.9151 177.017V167.757C72.9151 166.699 72.351 165.708 71.4384 165.171L63.5499 160.514C62.9467 160.158 62.5746 159.504 62.5746 158.803V141.913C62.5746 140.256 61.2272 138.913 59.5743 138.913H59.1435C58.0468 138.913 57.1576 138.024 57.1576 136.927V80.9712C57.1576 79.0402 58.7283 77.4734 60.6554 77.4734C62.414 77.4734 63.9063 78.7895 64.1257 80.5364L68.4851 115.196C68.5204 115.475 68.775 115.67 69.0531 115.635C69.3312 115.6 69.527 115.345 69.4917 115.067L68.0308 103.462L74.9871 106.211C75.649 106.474 76.1229 107.073 76.2248 107.778L78.43 123.21H65.9823C65.7002 123.21 65.4731 123.438 65.4731 123.72C65.4731 124.002 65.7002 124.229 65.9823 124.229H79.0136C79.0371 124.229 79.0606 124.229 79.0841 124.225C79.088 124.225 79.0919 124.225 79.0997 124.225C79.1193 124.225 79.135 124.217 79.1507 124.213C79.1663 124.209 79.182 124.205 79.1977 124.197C79.2133 124.19 79.229 124.182 79.2447 124.178C79.2603 124.17 79.276 124.162 79.2877 124.154C79.2995 124.146 79.3152 124.135 79.3269 124.127C79.3387 124.115 79.3543 124.107 79.3661 124.096C79.3778 124.084 79.3896 124.072 79.3974 124.06C79.4092 124.049 79.4209 124.037 79.4288 124.021C79.4366 124.009 79.4444 123.994 79.4523 123.978C79.4601 123.962 79.4679 123.951 79.4758 123.935C79.4836 123.919 79.4875 123.904 79.4914 123.892C79.4953 123.876 79.5032 123.861 79.5071 123.841C79.5071 123.825 79.511 123.81 79.5149 123.794C79.5149 123.774 79.5188 123.759 79.5188 123.739C79.5188 123.735 79.5188 123.731 79.5188 123.723C79.5188 123.712 79.5188 123.7 79.5188 123.688C79.5188 123.676 79.5188 123.665 79.5188 123.653L77.6348 110.473L84.3013 113.215C84.8692 113.45 85.2923 113.924 85.4568 114.515L90.1452 131.177C90.1961 131.353 90.2196 131.534 90.2196 131.714V134.193C90.2196 135.29 89.3305 136.179 88.2338 136.179H72.163C70.5062 136.179 69.1627 137.526 69.1627 139.179V156.621C69.1627 158.278 70.5101 159.621 72.163 159.621H76.5185C77.6153 159.621 78.5044 160.51 78.5044 161.607V194.291C78.5044 194.573 78.7316 194.801 79.0136 194.801C79.2956 194.801 79.5228 194.573 79.5228 194.291V161.607C79.5228 159.95 78.1754 158.607 76.5225 158.607H72.1669C71.0702 158.607 70.1811 157.718 70.1811 156.621V139.179C70.1811 138.083 71.0741 137.193 72.1669 137.193H88.2377C89.8945 137.193 91.238 135.846 91.238 134.193V131.714C91.238 131.44 91.1988 131.165 91.1244 130.899L87.6032 118.385L93.9015 123.242C95.2097 124.248 96.1654 125.611 96.6707 127.182L101.34 141.702C101.402 141.898 101.434 142.101 101.434 142.309V184.779C101.434 185.876 100.544 186.765 99.4477 186.765H93.2199C91.5631 186.765 90.2196 188.112 90.2196 189.765V193.219C90.2196 193.501 90.4468 193.728 90.7288 193.728C91.0108 193.728 91.238 193.501 91.238 193.219V189.765C91.238 188.669 92.1271 187.779 93.2239 187.779H99.4516C101.108 187.779 102.452 186.432 102.452 184.779V142.309C102.452 141.995 102.405 141.686 102.307 141.388L102.303 141.381Z" fill="url(#paint7_linear_6785_49723)"/>
<path d="M78.14 143.535H93.7133C93.9953 143.535 94.2225 143.308 94.2225 143.026C94.2225 142.744 93.9953 142.517 93.7133 142.517H78.14C76.4832 142.517 75.1397 143.864 75.1397 145.517V148.932C75.1397 149.923 75.6293 150.852 76.4479 151.412L89.9728 160.644C90.5172 161.016 90.8384 161.627 90.8384 162.285V172.234C90.8384 172.516 91.0656 172.743 91.3476 172.743C91.6296 172.743 91.8568 172.516 91.8568 172.234V162.285C91.8568 161.294 91.3671 160.366 90.5485 159.806L77.0237 150.574C76.4793 150.201 76.1581 149.59 76.1581 148.932V145.517C76.1581 144.42 77.0472 143.531 78.1439 143.531L78.14 143.535Z" fill="url(#paint8_linear_6785_49723)"/>
<path d="M91.2303 179.037C91.2303 178.755 91.0031 178.528 90.7211 178.528H87.1724C85.5156 178.528 84.1721 179.875 84.1721 181.528V203.319C84.1721 203.601 84.3993 203.828 84.6813 203.828C84.9633 203.828 85.1905 203.601 85.1905 203.319V181.528C85.1905 180.431 86.0836 179.542 87.1763 179.542H90.725C91.007 179.542 91.2342 179.315 91.2342 179.033L91.2303 179.037Z" fill="url(#paint9_linear_6785_49723)"/>
<path d="M64.0073 190.011C65.0954 190.011 65.9774 189.129 65.9774 188.04C65.9774 186.952 65.0954 186.07 64.0073 186.07C62.9192 186.07 62.0371 186.952 62.0371 188.04C62.0371 189.129 62.9192 190.011 64.0073 190.011Z" fill="#C6D8F1"/>
<path d="M88.7549 179.033C88.7549 177.944 89.6362 177.062 90.7251 177.062C91.8139 177.062 92.6952 177.944 92.6952 179.033C92.6952 180.122 91.8139 181.003 90.7251 181.003C89.6362 181.003 88.7549 180.122 88.7549 179.033Z" fill="#C6D8F1"/>
<path d="M77.0391 194.486C77.0391 193.397 77.9204 192.516 79.0092 192.516C80.0981 192.516 80.9794 193.397 80.9794 194.486C80.9794 195.575 80.0981 196.456 79.0092 196.456C77.9204 196.456 77.0391 195.575 77.0391 194.486Z" fill="#C6D8F1"/>
<path d="M89.377 172.236C89.377 171.147 90.2582 170.266 91.3471 170.266C92.436 170.266 93.3173 171.147 93.3173 172.236C93.3173 173.325 92.436 174.206 91.3471 174.206C90.2582 174.206 89.377 173.325 89.377 172.236Z" fill="#C6D8F1"/>
<path d="M54.0747 149.444C55.1628 149.444 56.0448 148.562 56.0448 147.474C56.0448 146.386 55.1628 145.504 54.0747 145.504C52.9866 145.504 52.1045 146.386 52.1045 147.474C52.1045 148.562 52.9866 149.444 54.0747 149.444Z" fill="#C6D8F1"/>
<path d="M68.9868 117.099C70.0749 117.099 70.9569 116.216 70.9569 115.128C70.9569 114.04 70.0749 113.158 68.9868 113.158C67.8987 113.158 67.0166 114.04 67.0166 115.128C67.0166 116.216 67.8987 117.099 68.9868 117.099Z" fill="#C6D8F1"/>
<path d="M77.0391 123.712C77.0391 122.623 77.9204 121.742 79.0092 121.742C80.0981 121.742 80.9794 122.623 80.9794 123.712C80.9794 124.801 80.0981 125.683 79.0092 125.683C77.9204 125.683 77.0391 124.801 77.0391 123.712Z" fill="#C6D8F1"/>
<path d="M65.978 125.683C67.0661 125.683 67.9481 124.8 67.9481 123.712C67.9481 122.624 67.0661 121.742 65.978 121.742C64.8899 121.742 64.0078 122.624 64.0078 123.712C64.0078 124.8 64.8899 125.683 65.978 125.683Z" fill="#C6D8F1"/>
<path d="M91.7422 143.027C91.7422 141.938 92.6235 141.057 93.7124 141.057C94.8012 141.057 95.6825 141.938 95.6825 143.027C95.6825 144.116 94.8012 144.997 93.7124 144.997C92.6235 144.997 91.7422 144.116 91.7422 143.027Z" fill="#C6D8F1"/>
<path d="M72.4067 180.886C73.4948 180.886 74.3769 180.004 74.3769 178.915C74.3769 177.827 73.4948 176.945 72.4067 176.945C71.3186 176.945 70.4365 177.827 70.4365 178.915C70.4365 180.004 71.3186 180.886 72.4067 180.886Z" fill="#C6D8F1"/>
<path d="M82.7119 202.798C82.7119 201.709 83.5932 200.828 84.6821 200.828C85.771 200.828 86.6522 201.709 86.6522 202.798C86.6522 203.887 85.771 204.768 84.6821 204.768C83.5932 204.768 82.7119 203.887 82.7119 202.798Z" fill="#C6D8F1"/>
<path d="M88.7549 194.49C88.7549 193.401 89.6362 192.52 90.7251 192.52C91.8139 192.52 92.6952 193.401 92.6952 194.49C92.6952 195.579 91.8139 196.46 90.7251 196.46C89.6362 196.46 88.7549 195.579 88.7549 194.49Z" fill="#C6D8F1"/>
<path d="M36.7678 41.6518C36.2854 42.1332 36.2854 42.9137 36.7678 43.3951C37.2503 43.8765 38.0326 43.8765 38.5151 43.3951C38.9975 42.9137 38.9975 42.1332 38.5151 41.6517C38.0326 41.1703 37.2503 41.1703 36.7678 41.6518Z" fill="#1C2157"/>
<defs>
<linearGradient id="paint0_linear_6785_49723" x1="85.3799" y1="110.327" x2="85.3799" y2="75.0974" gradientUnits="userSpaceOnUse">
<stop stop-color="#1D2686"/>
<stop offset="1" stop-color="#C6D8F1"/>
</linearGradient>
<linearGradient id="paint1_linear_6785_49723" x1="57.9165" y1="113.045" x2="63.9457" y2="38.2427" gradientUnits="userSpaceOnUse">
<stop stop-color="#1D2686"/>
<stop offset="1" stop-color="#C6D8F1"/>
</linearGradient>
<linearGradient id="paint2_linear_6785_49723" x1="66.5296" y1="115.984" x2="55.8604" y2="30.9637" gradientUnits="userSpaceOnUse">
<stop stop-color="#1D2686"/>
<stop offset="1" stop-color="#C6D8F1"/>
</linearGradient>
<linearGradient id="paint3_linear_6785_49723" x1="50.2649" y1="106.559" x2="70.6186" y2="45.9319" gradientUnits="userSpaceOnUse">
<stop stop-color="#1D2686"/>
<stop offset="1" stop-color="#C6D8F1"/>
</linearGradient>
<linearGradient id="paint4_linear_6785_49723" x1="89.3002" y1="73.714" x2="29.2543" y2="80.0543" gradientUnits="userSpaceOnUse">
<stop stop-color="#1D2686"/>
<stop offset="1" stop-color="#C6D8F1"/>
</linearGradient>
<linearGradient id="paint5_linear_6785_49723" x1="34.8384" y1="117.342" x2="38.7183" y2="90.9886" gradientUnits="userSpaceOnUse">
<stop stop-color="#1D2686"/>
<stop offset="1" stop-color="#C6D8F1"/>
</linearGradient>
<linearGradient id="paint6_linear_6785_49723" x1="67.5524" y1="61.5589" x2="67.5524" y2="55.5058" gradientUnits="userSpaceOnUse">
<stop stop-color="#1D2686"/>
<stop offset="1" stop-color="#C6D8F1"/>
</linearGradient>
<linearGradient id="paint7_linear_6785_49723" x1="73.0443" y1="76.459" x2="73.0443" y2="236.238" gradientUnits="userSpaceOnUse">
<stop stop-color="#C6D8F1"/>
<stop offset="1" stop-color="#E2EBF7"/>
</linearGradient>
<linearGradient id="paint8_linear_6785_49723" x1="73.0443" y1="76.459" x2="73.0443" y2="236.238" gradientUnits="userSpaceOnUse">
<stop stop-color="#C6D8F1"/>
<stop offset="1" stop-color="#E2EBF7"/>
</linearGradient>
<linearGradient id="paint9_linear_6785_49723" x1="73.0443" y1="76.459" x2="73.0443" y2="236.238" gradientUnits="userSpaceOnUse">
<stop stop-color="#C6D8F1"/>
<stop offset="1" stop-color="#E2EBF7"/>
</linearGradient>
</defs>
</svg>
